%TF.GenerationSoftware,KiCad,Pcbnew,7.0.7*%
%TF.CreationDate,2023-10-10T10:51:27+02:00*%
%TF.ProjectId,RB2AMPController,52423241-4d50-4436-9f6e-74726f6c6c65,rev?*%
%TF.SameCoordinates,Original*%
%TF.FileFunction,Copper,L2,Bot*%
%TF.FilePolarity,Positive*%
%FSLAX46Y46*%
G04 Gerber Fmt 4.6, Leading zero omitted, Abs format (unit mm)*
G04 Created by KiCad (PCBNEW 7.0.7) date 2023-10-10 10:51:27*
%MOMM*%
%LPD*%
G01*
G04 APERTURE LIST*
%TA.AperFunction,ComponentPad*%
%ADD10R,1.700000X1.700000*%
%TD*%
%TA.AperFunction,ComponentPad*%
%ADD11O,1.700000X1.700000*%
%TD*%
%TA.AperFunction,ComponentPad*%
%ADD12C,5.300000*%
%TD*%
%TA.AperFunction,ComponentPad*%
%ADD13R,1.850000X1.850000*%
%TD*%
%TA.AperFunction,ComponentPad*%
%ADD14C,1.850000*%
%TD*%
%TA.AperFunction,ViaPad*%
%ADD15C,0.600000*%
%TD*%
%TA.AperFunction,Conductor*%
%ADD16C,0.500000*%
%TD*%
%TA.AperFunction,Conductor*%
%ADD17C,0.300000*%
%TD*%
G04 APERTURE END LIST*
D10*
%TO.P,J201,1,Pin_1*%
%TO.N,+12V*%
X85200000Y-129260000D03*
D11*
%TO.P,J201,2,Pin_2*%
%TO.N,Net-(J201-Pin_2)*%
X85200000Y-126720000D03*
%TO.P,J201,3,Pin_3*%
%TO.N,Net-(J201-Pin_3)*%
X85200000Y-124180000D03*
%TO.P,J201,4,Pin_4*%
%TO.N,Net-(J201-Pin_4)*%
X85200000Y-121640000D03*
%TO.P,J201,5,Pin_5*%
%TO.N,Net-(J201-Pin_5)*%
X85200000Y-119100000D03*
%TO.P,J201,6,Pin_6*%
%TO.N,Net-(J201-Pin_6)*%
X85200000Y-116560000D03*
%TO.P,J201,7,Pin_7*%
%TO.N,Net-(J201-Pin_7)*%
X85200000Y-114020000D03*
%TO.P,J201,8,Pin_8*%
%TO.N,Net-(J201-Pin_8)*%
X85200000Y-111480000D03*
%TO.P,J201,9,Pin_9*%
%TO.N,Net-(J201-Pin_9)*%
X85200000Y-108940000D03*
%TO.P,J201,10,Pin_10*%
%TO.N,GND*%
X85200000Y-106400000D03*
%TD*%
D12*
%TO.P,MH1,1,1*%
%TO.N,GND*%
X84400000Y-62400000D03*
%TD*%
D10*
%TO.P,J203,1,Pin_1*%
%TO.N,GND*%
X184805000Y-62200000D03*
D11*
%TO.P,J203,2,Pin_2*%
%TO.N,Current*%
X182265000Y-62200000D03*
%TO.P,J203,3,Pin_3*%
%TO.N,+3V3*%
X179725000Y-62200000D03*
%TD*%
D13*
%TO.P,J209,1,P1*%
%TO.N,GND*%
X196600000Y-83667500D03*
D14*
%TO.P,J209,2,P2*%
%TO.N,Net-(J209-P2)*%
X196600000Y-81127500D03*
%TD*%
D12*
%TO.P,MH3,1,1*%
%TO.N,GND*%
X84400000Y-136200000D03*
%TD*%
%TO.P,MH4,1,1*%
%TO.N,GND*%
X198400000Y-136200000D03*
%TD*%
D13*
%TO.P,J101,1,P1*%
%TO.N,GND*%
X151512563Y-135800062D03*
D14*
%TO.P,J101,2,P2*%
%TO.N,+12V*%
X154052563Y-135800062D03*
%TD*%
D12*
%TO.P,MH2,1,1*%
%TO.N,GND*%
X198400000Y-62400000D03*
%TD*%
D13*
%TO.P,J205,1,P1*%
%TO.N,GND*%
X197000000Y-121800000D03*
D14*
%TO.P,J205,2,P2*%
%TO.N,Net-(J205-P2)*%
X197000000Y-119260000D03*
%TD*%
D11*
%TO.P,U301,1,GPIO0*%
%TO.N,unconnected-(U301-GPIO0-Pad1)*%
X141620000Y-61620000D03*
%TO.P,U301,2,GPIO1*%
%TO.N,FAN_PWM*%
X141620000Y-64160000D03*
D10*
%TO.P,U301,3,GND*%
%TO.N,GND*%
X141620000Y-66700000D03*
D11*
%TO.P,U301,4,GPIO2*%
%TO.N,I2C1 SDA*%
X141620000Y-69240000D03*
%TO.P,U301,5,GPIO3*%
%TO.N,I2C1 SCK*%
X141620000Y-71780000D03*
%TO.P,U301,6,GPIO4*%
%TO.N,I2C0 SDA*%
X141620000Y-74320000D03*
%TO.P,U301,7,GPIO5*%
%TO.N,I2C0 SCK*%
X141620000Y-76860000D03*
D10*
%TO.P,U301,8,GND*%
%TO.N,GND*%
X141620000Y-79400000D03*
D11*
%TO.P,U301,9,GPIO6*%
%TO.N,RXD0*%
X141620000Y-81940000D03*
%TO.P,U301,10,GPIO7*%
%TO.N,RXD1*%
X141620000Y-84480000D03*
%TO.P,U301,11,GPIO8*%
%TO.N,CRS*%
X141620000Y-87020000D03*
%TO.P,U301,12,GPIO9*%
%TO.N,unconnected-(U301-GPIO9-Pad12)*%
X141620000Y-89560000D03*
D10*
%TO.P,U301,13,GND*%
%TO.N,GND*%
X141620000Y-92100000D03*
D11*
%TO.P,U301,14,GPIO10*%
%TO.N,TXD0*%
X141620000Y-94640000D03*
%TO.P,U301,15,GPIO11*%
%TO.N,TXD1*%
X141620000Y-97180000D03*
%TO.P,U301,16,GPIO12*%
%TO.N,TX_EN*%
X141620000Y-99720000D03*
%TO.P,U301,17,GPIO13*%
%TO.N,unconnected-(U301-GPIO13-Pad17)*%
X141620000Y-102260000D03*
D10*
%TO.P,U301,18,GND*%
%TO.N,GND*%
X141620000Y-104800000D03*
D11*
%TO.P,U301,19,GPIO14*%
%TO.N,MDIO*%
X141620000Y-107340000D03*
%TO.P,U301,20,GPIO15*%
%TO.N,MDC*%
X141620000Y-109880000D03*
%TO.P,U301,21,GPIO16*%
%TO.N,BIAS*%
X159400000Y-109880000D03*
%TO.P,U301,22,GPIO17*%
%TO.N,TX*%
X159400000Y-107340000D03*
D10*
%TO.P,U301,23,GND*%
%TO.N,GND*%
X159400000Y-104800000D03*
D11*
%TO.P,U301,24,GPIO18*%
%TO.N,unconnected-(U301-GPIO18-Pad24)*%
X159400000Y-102260000D03*
%TO.P,U301,25,GPIO19*%
%TO.N,VoltCheck*%
X159400000Y-99720000D03*
%TO.P,U301,26,GPIO20*%
%TO.N,RXCLK*%
X159400000Y-97180000D03*
%TO.P,U301,27,GPIO21*%
%TO.N,unconnected-(U301-GPIO21-Pad27)*%
X159400000Y-94640000D03*
D10*
%TO.P,U301,28,GND*%
%TO.N,GND*%
X159400000Y-92100000D03*
D11*
%TO.P,U301,29,GPIO22*%
%TO.N,unconnected-(U301-GPIO22-Pad29)*%
X159400000Y-89560000D03*
%TO.P,U301,30,RUN*%
%TO.N,unconnected-(U301-RUN-Pad30)*%
X159400000Y-87020000D03*
%TO.P,U301,31,GPIO26_ADC0*%
%TO.N,UFWD*%
X159400000Y-84480000D03*
%TO.P,U301,32,GPIO27_ADC1*%
%TO.N,Urev*%
X159400000Y-81940000D03*
D10*
%TO.P,U301,33,AGND*%
%TO.N,GND*%
X159400000Y-79400000D03*
D11*
%TO.P,U301,34,GPIO28_ADC2*%
%TO.N,Current*%
X159400000Y-76860000D03*
%TO.P,U301,35,ADC_VREF*%
%TO.N,Net-(IC301-CATHODE)*%
X159400000Y-74320000D03*
%TO.P,U301,36,3V3*%
%TO.N,unconnected-(U301-3V3-Pad36)*%
X159400000Y-71780000D03*
%TO.P,U301,37,3V3_EN*%
%TO.N,unconnected-(U301-3V3_EN-Pad37)*%
X159400000Y-69240000D03*
D10*
%TO.P,U301,38,GND*%
%TO.N,GND*%
X159400000Y-66700000D03*
D11*
%TO.P,U301,39,VSYS*%
%TO.N,unconnected-(U301-VSYS-Pad39)*%
X159400000Y-64160000D03*
%TO.P,U301,40,VBUS*%
%TO.N,+5V*%
X159400000Y-61620000D03*
%TO.P,U301,41,SWCLK*%
%TO.N,unconnected-(U301-SWCLK-Pad41)*%
X147970000Y-109650000D03*
D10*
%TO.P,U301,42,GND*%
%TO.N,GND*%
X150510000Y-109650000D03*
D11*
%TO.P,U301,43,SWDIO*%
%TO.N,unconnected-(U301-SWDIO-Pad43)*%
X153050000Y-109650000D03*
%TD*%
D10*
%TO.P,J301,1,Pin_1*%
%TO.N,+3V3*%
X122960000Y-81540000D03*
D11*
%TO.P,J301,2,Pin_2*%
X122960000Y-79000000D03*
%TO.P,J301,3,Pin_3*%
%TO.N,GND*%
X120420000Y-81540000D03*
%TO.P,J301,4,Pin_4*%
X120420000Y-79000000D03*
%TO.P,J301,5,Pin_5*%
%TO.N,MDC*%
X117880000Y-81540000D03*
%TO.P,J301,6,Pin_6*%
%TO.N,MDIO*%
X117880000Y-79000000D03*
%TO.P,J301,7,Pin_7*%
%TO.N,CRS*%
X115340000Y-81540000D03*
%TO.P,J301,8,Pin_8*%
%TO.N,RXCLK*%
X115340000Y-79000000D03*
%TO.P,J301,9,Pin_9*%
%TO.N,RXD1*%
X112800000Y-81540000D03*
%TO.P,J301,10,Pin_10*%
%TO.N,RXD0*%
X112800000Y-79000000D03*
%TO.P,J301,11,Pin_11*%
%TO.N,TXD0*%
X110260000Y-81540000D03*
%TO.P,J301,12,Pin_12*%
%TO.N,TX_EN*%
X110260000Y-79000000D03*
%TO.P,J301,13,Pin_13*%
%TO.N,unconnected-(J301-Pin_13-Pad13)*%
X107720000Y-81540000D03*
%TO.P,J301,14,Pin_14*%
%TO.N,TXD1*%
X107720000Y-79000000D03*
%TD*%
D13*
%TO.P,J206,1,P1*%
%TO.N,GND*%
X196600000Y-95400000D03*
D14*
%TO.P,J206,2,P2*%
%TO.N,Net-(J206-P2)*%
X196600000Y-92860000D03*
%TD*%
D10*
%TO.P,J212,1,P1*%
%TO.N,GND*%
X196600000Y-74887500D03*
D11*
%TO.P,J212,2,P2*%
%TO.N,Net-(J212-P2)*%
X196600000Y-72347500D03*
%TD*%
D13*
%TO.P,J204,1,Pin_1*%
%TO.N,GND*%
X84400000Y-83140000D03*
D14*
%TO.P,J204,2,Pin_2*%
%TO.N,I2C0 SCK*%
X84400000Y-80600000D03*
%TO.P,J204,3,Pin_3*%
%TO.N,I2C0 SDA*%
X84400000Y-78060000D03*
%TO.P,J204,4,Pin_4*%
%TO.N,+3V3*%
X84400000Y-75520000D03*
%TD*%
D13*
%TO.P,J202,1,P1*%
%TO.N,GND*%
X196600000Y-110200000D03*
D14*
%TO.P,J202,2,P2*%
%TO.N,Net-(J202-P2)*%
X196600000Y-107660000D03*
%TD*%
D10*
%TO.P,J210,1,Pin_1*%
%TO.N,GND*%
X103000000Y-62000000D03*
D11*
%TO.P,J210,2,Pin_2*%
%TO.N,Net-(J210-Pin_2)*%
X100460000Y-62000000D03*
%TO.P,J210,3,Pin_3*%
%TO.N,Net-(J210-Pin_3)*%
X97920000Y-62000000D03*
%TD*%
D15*
%TO.N,+5V*%
X157000000Y-118600000D03*
%TO.N,+3V3*%
X183200000Y-98400000D03*
X183200000Y-85800000D03*
X124800000Y-89200000D03*
X115000000Y-87400000D03*
X183725000Y-76075000D03*
X147200000Y-120600000D03*
%TO.N,+12V*%
X193400000Y-115200000D03*
X193400000Y-103800000D03*
X110000000Y-68200000D03*
%TO.N,FAN_PWM*%
X89000000Y-66200000D03*
%TD*%
D16*
%TO.N,+5V*%
X159400000Y-61620000D02*
X156580000Y-61620000D01*
X156580000Y-61620000D02*
X156000000Y-62200000D01*
X156000000Y-62200000D02*
X156000000Y-117600000D01*
X156000000Y-117600000D02*
X157000000Y-118600000D01*
%TO.N,GND*%
X199400000Y-85000000D02*
X199400000Y-94800000D01*
X199400000Y-94800000D02*
X198800000Y-95400000D01*
X198200000Y-62200000D02*
X198400000Y-62400000D01*
X196600000Y-83667500D02*
X198067500Y-83667500D01*
X198067500Y-83667500D02*
X199400000Y-85000000D01*
X198800000Y-95400000D02*
X196600000Y-95400000D01*
X184805000Y-62200000D02*
X198200000Y-62200000D01*
%TO.N,+3V3*%
X184400000Y-76000000D02*
X184400000Y-85800000D01*
X116800000Y-89200000D02*
X115000000Y-87400000D01*
X183725000Y-76075000D02*
X183800000Y-76000000D01*
X184400000Y-120800000D02*
X182000000Y-123200000D01*
X148800000Y-123200000D02*
X146400000Y-120800000D01*
X147000000Y-120800000D02*
X146400000Y-120800000D01*
X179725000Y-62200000D02*
X179725000Y-64525000D01*
X147200000Y-120600000D02*
X147000000Y-120800000D01*
X184400000Y-98400000D02*
X184400000Y-120800000D01*
X183125000Y-64525000D02*
X184400000Y-65800000D01*
X184400000Y-65800000D02*
X184400000Y-76000000D01*
X184400000Y-85800000D02*
X184400000Y-98400000D01*
X183200000Y-85800000D02*
X184400000Y-85800000D01*
X182000000Y-123200000D02*
X148800000Y-123200000D01*
X183200000Y-98400000D02*
X184400000Y-98400000D01*
X183800000Y-76000000D02*
X184400000Y-76000000D01*
X179725000Y-64525000D02*
X183125000Y-64525000D01*
X124800000Y-89200000D02*
X116800000Y-89200000D01*
%TO.N,+12V*%
X82150000Y-127750000D02*
X82150000Y-68850000D01*
X192800000Y-103800000D02*
X192600000Y-103600000D01*
X94590000Y-138650000D02*
X85200000Y-129260000D01*
X83660000Y-129260000D02*
X82150000Y-127750000D01*
X193400000Y-103800000D02*
X192800000Y-103800000D01*
X155000000Y-138400000D02*
X189600000Y-138400000D01*
X192600000Y-135400000D02*
X192600000Y-115200000D01*
X82150000Y-68850000D02*
X82800000Y-68200000D01*
X192600000Y-115200000D02*
X192600000Y-103600000D01*
X154052563Y-137452563D02*
X155000000Y-138400000D01*
X85200000Y-129260000D02*
X83660000Y-129260000D01*
X154052563Y-135800062D02*
X154052563Y-137452563D01*
X82800000Y-68200000D02*
X110000000Y-68200000D01*
X189600000Y-138400000D02*
X192600000Y-135400000D01*
X152950000Y-138650000D02*
X94590000Y-138650000D01*
X193400000Y-115200000D02*
X192600000Y-115200000D01*
X154052563Y-137547437D02*
X152950000Y-138650000D01*
X154052563Y-135800062D02*
X154052563Y-137547437D01*
%TO.N,I2C0 SCK*%
X103200000Y-75600000D02*
X98400000Y-80400000D01*
X90000000Y-80400000D02*
X89800000Y-80600000D01*
X98400000Y-80400000D02*
X90000000Y-80400000D01*
X137200000Y-75600000D02*
X103200000Y-75600000D01*
X89800000Y-80600000D02*
X84400000Y-80600000D01*
X141620000Y-76860000D02*
X138460000Y-76860000D01*
X138460000Y-76860000D02*
X137200000Y-75600000D01*
%TO.N,I2C0 SDA*%
X89260000Y-78060000D02*
X90000000Y-78800000D01*
X84400000Y-78060000D02*
X89260000Y-78060000D01*
X98000000Y-78800000D02*
X90000000Y-78800000D01*
X141620000Y-74320000D02*
X102480000Y-74320000D01*
X102480000Y-74320000D02*
X98000000Y-78800000D01*
%TO.N,FAN_PWM*%
X141620000Y-64160000D02*
X111840000Y-64160000D01*
X111840000Y-64160000D02*
X110600000Y-65400000D01*
X110600000Y-65400000D02*
X89800000Y-65400000D01*
X89800000Y-65400000D02*
X89000000Y-66200000D01*
D17*
%TO.N,RXD1*%
X126800000Y-80200000D02*
X131080000Y-84480000D01*
X114140000Y-80200000D02*
X126800000Y-80200000D01*
X131080000Y-84480000D02*
X141620000Y-84480000D01*
X112800000Y-81540000D02*
X114140000Y-80200000D01*
D16*
%TO.N,CRS*%
X115340000Y-83340000D02*
X119020000Y-87020000D01*
X119020000Y-87020000D02*
X141620000Y-87020000D01*
X115340000Y-81540000D02*
X115340000Y-83340000D01*
%TO.N,TX_EN*%
X119120000Y-99720000D02*
X141620000Y-99720000D01*
X110260000Y-77600000D02*
X110200000Y-77600000D01*
X103400000Y-84000000D02*
X119120000Y-99720000D01*
X105400000Y-77000000D02*
X103400000Y-79000000D01*
X103400000Y-79000000D02*
X103400000Y-84000000D01*
X110260000Y-79000000D02*
X110260000Y-77600000D01*
X109600000Y-77000000D02*
X105400000Y-77000000D01*
X110200000Y-77600000D02*
X109600000Y-77000000D01*
%TO.N,TXD1*%
X105400000Y-83000000D02*
X119580000Y-97180000D01*
X107720000Y-79000000D02*
X106200000Y-79000000D01*
X105400000Y-79800000D02*
X105400000Y-83000000D01*
X106200000Y-79000000D02*
X105400000Y-79800000D01*
X119580000Y-97180000D02*
X141620000Y-97180000D01*
%TO.N,TXD0*%
X119440000Y-94640000D02*
X141620000Y-94640000D01*
X110260000Y-85460000D02*
X119440000Y-94640000D01*
X110260000Y-81540000D02*
X110260000Y-85460000D01*
%TD*%
%TA.AperFunction,Conductor*%
%TO.N,GND*%
G36*
X82105703Y-128767515D02*
G01*
X82112166Y-128773533D01*
X82836401Y-129497768D01*
X83084267Y-129745634D01*
X83096048Y-129759266D01*
X83110390Y-129778530D01*
X83150420Y-129812119D01*
X83154392Y-129815759D01*
X83160223Y-129821590D01*
X83185939Y-129841923D01*
X83244786Y-129891302D01*
X83244788Y-129891303D01*
X83250823Y-129895272D01*
X83250789Y-129895322D01*
X83257144Y-129899370D01*
X83257177Y-129899318D01*
X83263319Y-129903107D01*
X83263323Y-129903110D01*
X83332914Y-129935561D01*
X83401558Y-129970036D01*
X83401561Y-129970037D01*
X83401567Y-129970040D01*
X83401572Y-129970041D01*
X83408355Y-129972510D01*
X83408334Y-129972567D01*
X83415451Y-129975040D01*
X83415470Y-129974984D01*
X83422330Y-129977257D01*
X83497531Y-129992784D01*
X83497532Y-129992784D01*
X83572279Y-130010500D01*
X83572288Y-130010500D01*
X83579452Y-130011338D01*
X83579445Y-130011397D01*
X83586946Y-130012163D01*
X83586952Y-130012104D01*
X83594140Y-130012733D01*
X83594143Y-130012732D01*
X83594144Y-130012733D01*
X83670898Y-130010500D01*
X83725501Y-130010500D01*
X83792540Y-130030185D01*
X83838295Y-130082989D01*
X83849501Y-130134500D01*
X83849501Y-130157876D01*
X83855908Y-130217483D01*
X83906202Y-130352328D01*
X83906206Y-130352335D01*
X83992452Y-130467544D01*
X83992455Y-130467547D01*
X84107664Y-130553793D01*
X84107671Y-130553797D01*
X84242517Y-130604091D01*
X84242516Y-130604091D01*
X84249444Y-130604835D01*
X84302127Y-130610500D01*
X85437769Y-130610499D01*
X85504808Y-130630184D01*
X85525450Y-130646818D01*
X89631210Y-134752578D01*
X93566452Y-138687819D01*
X93599937Y-138749142D01*
X93594953Y-138818834D01*
X93553081Y-138874767D01*
X93487617Y-138899184D01*
X93478771Y-138899500D01*
X84401878Y-138899500D01*
X84398133Y-138899387D01*
X84102465Y-138881502D01*
X84095026Y-138880598D01*
X83805516Y-138827543D01*
X83798240Y-138825750D01*
X83704858Y-138796651D01*
X83517244Y-138738188D01*
X83510248Y-138735534D01*
X83241846Y-138614737D01*
X83235211Y-138611254D01*
X82983334Y-138458989D01*
X82977175Y-138454739D01*
X82745475Y-138273214D01*
X82739875Y-138268253D01*
X82531745Y-138060123D01*
X82526784Y-138054523D01*
X82345257Y-137822821D01*
X82341010Y-137816665D01*
X82188745Y-137564788D01*
X82185262Y-137558153D01*
X82064465Y-137289751D01*
X82061814Y-137282764D01*
X81974247Y-137001753D01*
X81972456Y-136994483D01*
X81919401Y-136704973D01*
X81918497Y-136697534D01*
X81917353Y-136678624D01*
X81900613Y-136401866D01*
X81900500Y-136398122D01*
X81900500Y-128861228D01*
X81920185Y-128794189D01*
X81972989Y-128748434D01*
X82042147Y-128738490D01*
X82105703Y-128767515D01*
G37*
%TD.AperFunction*%
%TA.AperFunction,Conductor*%
G36*
X198401866Y-59900613D02*
G01*
X198481342Y-59905420D01*
X198697539Y-59918497D01*
X198704973Y-59919401D01*
X198994483Y-59972456D01*
X199001753Y-59974247D01*
X199282764Y-60061814D01*
X199289751Y-60064465D01*
X199443864Y-60133825D01*
X199558158Y-60185265D01*
X199564788Y-60188745D01*
X199816665Y-60341010D01*
X199822821Y-60345257D01*
X200054523Y-60526784D01*
X200060123Y-60531745D01*
X200268253Y-60739875D01*
X200273214Y-60745475D01*
X200454739Y-60977175D01*
X200458989Y-60983334D01*
X200611254Y-61235211D01*
X200614737Y-61241846D01*
X200735534Y-61510248D01*
X200738188Y-61517244D01*
X200793385Y-61694376D01*
X200825750Y-61798240D01*
X200827543Y-61805516D01*
X200880598Y-62095026D01*
X200881502Y-62102465D01*
X200899387Y-62398132D01*
X200899500Y-62401877D01*
X200899500Y-136398122D01*
X200899387Y-136401867D01*
X200881502Y-136697534D01*
X200880598Y-136704973D01*
X200827543Y-136994483D01*
X200825750Y-137001759D01*
X200789936Y-137116691D01*
X200756167Y-137225062D01*
X200738192Y-137282745D01*
X200735534Y-137289751D01*
X200614737Y-137558153D01*
X200611254Y-137564788D01*
X200458989Y-137816665D01*
X200454733Y-137822833D01*
X200273215Y-138054523D01*
X200268246Y-138060132D01*
X200060132Y-138268246D01*
X200054523Y-138273215D01*
X199822833Y-138454733D01*
X199816665Y-138458989D01*
X199564788Y-138611254D01*
X199558153Y-138614737D01*
X199289751Y-138735534D01*
X199282749Y-138738190D01*
X199219650Y-138757853D01*
X199001759Y-138825750D01*
X198994483Y-138827543D01*
X198704973Y-138880598D01*
X198697534Y-138881502D01*
X198401867Y-138899387D01*
X198398122Y-138899500D01*
X190461230Y-138899500D01*
X190394191Y-138879815D01*
X190348436Y-138827011D01*
X190338492Y-138757853D01*
X190367517Y-138694297D01*
X190373549Y-138687819D01*
X190793122Y-138268246D01*
X193085638Y-135975727D01*
X193099267Y-135963950D01*
X193118530Y-135949610D01*
X193118532Y-135949606D01*
X193118534Y-135949606D01*
X193136663Y-135927999D01*
X193152113Y-135909585D01*
X193155767Y-135905599D01*
X193161591Y-135899776D01*
X193181930Y-135874052D01*
X193231302Y-135815214D01*
X193231306Y-135815205D01*
X193235274Y-135809175D01*
X193235325Y-135809208D01*
X193239372Y-135802856D01*
X193239320Y-135802824D01*
X193243112Y-135796675D01*
X193275575Y-135727058D01*
X193310036Y-135658440D01*
X193310040Y-135658433D01*
X193310042Y-135658421D01*
X193312509Y-135651646D01*
X193312567Y-135651667D01*
X193315043Y-135644546D01*
X193314986Y-135644527D01*
X193317255Y-135637680D01*
X193317256Y-135637675D01*
X193317257Y-135637673D01*
X193332791Y-135562437D01*
X193350500Y-135487721D01*
X193350500Y-135487719D01*
X193351339Y-135480548D01*
X193351398Y-135480554D01*
X193352164Y-135473054D01*
X193352105Y-135473049D01*
X193352734Y-135465859D01*
X193350500Y-135389082D01*
X193350500Y-119260005D01*
X195569615Y-119260005D01*
X195589123Y-119495430D01*
X195647117Y-119724445D01*
X195742013Y-119940787D01*
X195871225Y-120138562D01*
X195937350Y-120210392D01*
X195968273Y-120273046D01*
X195960413Y-120342472D01*
X195916266Y-120396628D01*
X195889455Y-120410557D01*
X195832911Y-120431646D01*
X195832906Y-120431649D01*
X195717812Y-120517809D01*
X195717809Y-120517812D01*
X195631649Y-120632906D01*
X195631645Y-120632913D01*
X195581403Y-120767620D01*
X195581401Y-120767627D01*
X195575000Y-120827155D01*
X195575000Y-121550000D01*
X196386653Y-121550000D01*
X196453692Y-121569685D01*
X196499447Y-121622489D01*
X196509391Y-121691647D01*
X196505631Y-121708933D01*
X196500000Y-121728111D01*
X196500000Y-121871888D01*
X196505631Y-121891067D01*
X196505630Y-121960936D01*
X196467855Y-122019714D01*
X196404299Y-122048738D01*
X196386653Y-122050000D01*
X195575000Y-122050000D01*
X195575000Y-122772844D01*
X195581401Y-122832372D01*
X195581403Y-122832379D01*
X195631645Y-122967086D01*
X195631649Y-122967093D01*
X195717809Y-123082187D01*
X195717812Y-123082190D01*
X195832906Y-123168350D01*
X195832913Y-123168354D01*
X195967620Y-123218596D01*
X195967627Y-123218598D01*
X196027155Y-123224999D01*
X196027172Y-123225000D01*
X196750000Y-123225000D01*
X196750000Y-122412301D01*
X196769685Y-122345262D01*
X196822489Y-122299507D01*
X196891647Y-122289563D01*
X196964237Y-122300000D01*
X196964238Y-122300000D01*
X197035762Y-122300000D01*
X197035763Y-122300000D01*
X197108353Y-122289563D01*
X197177512Y-122299507D01*
X197230315Y-122345262D01*
X197250000Y-122412301D01*
X197250000Y-123225000D01*
X197972828Y-123225000D01*
X197972844Y-123224999D01*
X198032372Y-123218598D01*
X198032379Y-123218596D01*
X198167086Y-123168354D01*
X198167093Y-123168350D01*
X198282187Y-123082190D01*
X198282190Y-123082187D01*
X198368350Y-122967093D01*
X198368354Y-122967086D01*
X198418596Y-122832379D01*
X198418598Y-122832372D01*
X198424999Y-122772844D01*
X198425000Y-122772827D01*
X198425000Y-122050000D01*
X197613347Y-122050000D01*
X197546308Y-122030315D01*
X197500553Y-121977511D01*
X197490609Y-121908353D01*
X197494369Y-121891067D01*
X197500000Y-121871888D01*
X197500000Y-121728111D01*
X197494369Y-121708933D01*
X197494370Y-121639064D01*
X197532145Y-121580286D01*
X197595701Y-121551262D01*
X197613347Y-121550000D01*
X198425000Y-121550000D01*
X198425000Y-120827172D01*
X198424999Y-120827155D01*
X198418598Y-120767627D01*
X198418596Y-120767620D01*
X198368354Y-120632913D01*
X198368350Y-120632906D01*
X198282190Y-120517812D01*
X198282187Y-120517809D01*
X198167093Y-120431649D01*
X198167086Y-120431645D01*
X198110545Y-120410557D01*
X198054611Y-120368686D01*
X198030194Y-120303222D01*
X198045046Y-120234949D01*
X198062644Y-120210397D01*
X198128775Y-120138561D01*
X198257986Y-119940788D01*
X198352883Y-119724445D01*
X198410876Y-119495434D01*
X198424136Y-119335413D01*
X198430385Y-119260005D01*
X198430385Y-119259994D01*
X198410876Y-119024569D01*
X198410876Y-119024566D01*
X198352883Y-118795555D01*
X198257986Y-118579212D01*
X198128774Y-118381437D01*
X197968776Y-118207635D01*
X197968775Y-118207634D01*
X197968773Y-118207632D01*
X197875559Y-118135080D01*
X197782348Y-118062531D01*
X197574580Y-117950092D01*
X197574571Y-117950089D01*
X197351141Y-117873384D01*
X197189571Y-117846423D01*
X197118120Y-117834500D01*
X196881880Y-117834500D01*
X196823625Y-117844220D01*
X196648858Y-117873384D01*
X196425428Y-117950089D01*
X196425419Y-117950092D01*
X196217651Y-118062531D01*
X196031228Y-118207631D01*
X196031223Y-118207635D01*
X195871225Y-118381437D01*
X195742013Y-118579212D01*
X195647117Y-118795554D01*
X195589123Y-119024569D01*
X195569615Y-119259994D01*
X195569615Y-119260005D01*
X193350500Y-119260005D01*
X193350500Y-116121955D01*
X193370185Y-116054916D01*
X193422989Y-116009161D01*
X193460615Y-115998735D01*
X193493568Y-115995022D01*
X193579250Y-115985369D01*
X193579253Y-115985368D01*
X193579255Y-115985368D01*
X193749522Y-115925789D01*
X193902262Y-115829816D01*
X194029816Y-115702262D01*
X194125789Y-115549522D01*
X194185368Y-115379255D01*
X194185864Y-115374855D01*
X194205565Y-115200003D01*
X194205565Y-115199996D01*
X194185369Y-115020750D01*
X194185368Y-115020745D01*
X194140109Y-114891402D01*
X194125789Y-114850478D01*
X194029816Y-114697738D01*
X193902262Y-114570184D01*
X193749523Y-114474211D01*
X193579254Y-114414631D01*
X193579250Y-114414630D01*
X193460616Y-114401264D01*
X193396202Y-114374197D01*
X193356647Y-114316603D01*
X193350500Y-114278044D01*
X193350500Y-107660005D01*
X195169615Y-107660005D01*
X195189123Y-107895430D01*
X195247117Y-108124445D01*
X195342013Y-108340787D01*
X195471225Y-108538562D01*
X195537350Y-108610392D01*
X195568273Y-108673046D01*
X195560413Y-108742472D01*
X195516266Y-108796628D01*
X195489455Y-108810557D01*
X195432911Y-108831646D01*
X195432906Y-108831649D01*
X195317812Y-108917809D01*
X195317809Y-108917812D01*
X195231649Y-109032906D01*
X195231645Y-109032913D01*
X195181403Y-109167620D01*
X195181401Y-109167627D01*
X195175000Y-109227155D01*
X195175000Y-109950000D01*
X195986653Y-109950000D01*
X196053692Y-109969685D01*
X196099447Y-110022489D01*
X196109391Y-110091647D01*
X196105631Y-110108933D01*
X196100000Y-110128111D01*
X196100000Y-110271888D01*
X196105631Y-110291067D01*
X196105630Y-110360936D01*
X196067855Y-110419714D01*
X196004299Y-110448738D01*
X195986653Y-110450000D01*
X195175000Y-110450000D01*
X195175000Y-111172844D01*
X195181401Y-111232372D01*
X195181403Y-111232379D01*
X195231645Y-111367086D01*
X195231649Y-111367093D01*
X195317809Y-111482187D01*
X195317812Y-111482190D01*
X195432906Y-111568350D01*
X195432913Y-111568354D01*
X195567620Y-111618596D01*
X195567627Y-111618598D01*
X195627155Y-111624999D01*
X195627172Y-111625000D01*
X196350000Y-111625000D01*
X196350000Y-110812301D01*
X196369685Y-110745262D01*
X196422489Y-110699507D01*
X196491647Y-110689563D01*
X196564237Y-110700000D01*
X196564238Y-110700000D01*
X196635762Y-110700000D01*
X196635763Y-110700000D01*
X196708353Y-110689563D01*
X196777512Y-110699507D01*
X196830315Y-110745262D01*
X196850000Y-110812301D01*
X196849999Y-111624999D01*
X196850000Y-111625000D01*
X197572828Y-111625000D01*
X197572844Y-111624999D01*
X197632372Y-111618598D01*
X197632379Y-111618596D01*
X197767086Y-111568354D01*
X197767093Y-111568350D01*
X197882187Y-111482190D01*
X197882190Y-111482187D01*
X197968350Y-111367093D01*
X197968354Y-111367086D01*
X198018596Y-111232379D01*
X198018598Y-111232372D01*
X198024999Y-111172844D01*
X198025000Y-111172827D01*
X198025000Y-110450000D01*
X197213347Y-110450000D01*
X197146308Y-110430315D01*
X197100553Y-110377511D01*
X197090609Y-110308353D01*
X197094369Y-110291067D01*
X197100000Y-110271888D01*
X197100000Y-110128111D01*
X197094369Y-110108933D01*
X197094370Y-110039064D01*
X197132145Y-109980286D01*
X197195701Y-109951262D01*
X197213347Y-109950000D01*
X198024999Y-109950000D01*
X198025000Y-109227172D01*
X198024999Y-109227155D01*
X198018598Y-109167627D01*
X198018596Y-109167620D01*
X197968354Y-109032913D01*
X197968350Y-109032906D01*
X197882190Y-108917812D01*
X197882187Y-108917809D01*
X197767093Y-108831649D01*
X197767086Y-108831645D01*
X197710545Y-108810557D01*
X197654611Y-108768686D01*
X197630194Y-108703222D01*
X197645046Y-108634949D01*
X197662644Y-108610397D01*
X197728775Y-108538561D01*
X197857986Y-108340788D01*
X197952883Y-108124445D01*
X198010876Y-107895434D01*
X198022550Y-107754549D01*
X198030385Y-107660005D01*
X198030385Y-107659994D01*
X198010876Y-107424569D01*
X198010876Y-107424566D01*
X197952883Y-107195555D01*
X197857986Y-106979212D01*
X197857985Y-106979211D01*
X197728774Y-106781437D01*
X197568776Y-106607635D01*
X197568775Y-106607634D01*
X197568773Y-106607632D01*
X197475559Y-106535080D01*
X197382348Y-106462531D01*
X197174580Y-106350092D01*
X197174571Y-106350089D01*
X196951141Y-106273384D01*
X196795792Y-106247461D01*
X196718120Y-106234500D01*
X196481880Y-106234500D01*
X196423625Y-106244220D01*
X196248858Y-106273384D01*
X196025428Y-106350089D01*
X196025419Y-106350092D01*
X195817651Y-106462531D01*
X195631228Y-106607631D01*
X195631223Y-106607635D01*
X195471225Y-106781437D01*
X195342013Y-106979212D01*
X195247117Y-107195554D01*
X195189123Y-107424569D01*
X195169615Y-107659994D01*
X195169615Y-107660005D01*
X193350500Y-107660005D01*
X193350500Y-104721955D01*
X193370185Y-104654916D01*
X193422989Y-104609161D01*
X193460615Y-104598735D01*
X193493568Y-104595022D01*
X193579250Y-104585369D01*
X193579253Y-104585368D01*
X193579255Y-104585368D01*
X193749522Y-104525789D01*
X193902262Y-104429816D01*
X194029816Y-104302262D01*
X194125789Y-104149522D01*
X194185368Y-103979255D01*
X194205565Y-103800000D01*
X194195189Y-103707913D01*
X194185369Y-103620750D01*
X194185368Y-103620745D01*
X194128273Y-103457577D01*
X194125789Y-103450478D01*
X194029816Y-103297738D01*
X193902262Y-103170184D01*
X193840541Y-103131402D01*
X193749523Y-103074211D01*
X193579254Y-103014631D01*
X193579249Y-103014630D01*
X193400004Y-102994435D01*
X193399996Y-102994435D01*
X193220750Y-103014630D01*
X193220742Y-103014632D01*
X193184294Y-103027386D01*
X193114515Y-103030947D01*
X193058244Y-103000537D01*
X193051220Y-102993909D01*
X193045075Y-102990361D01*
X193030411Y-102981895D01*
X193015510Y-102971781D01*
X193000565Y-102959963D01*
X192996679Y-102956890D01*
X192996677Y-102956889D01*
X192983496Y-102950742D01*
X192949322Y-102934806D01*
X192944522Y-102932308D01*
X192899281Y-102906188D01*
X192899279Y-102906187D01*
X192876283Y-102899302D01*
X192859446Y-102892895D01*
X192837674Y-102882743D01*
X192837671Y-102882742D01*
X192786504Y-102872177D01*
X192781258Y-102870853D01*
X192755815Y-102863236D01*
X192731210Y-102855870D01*
X192727469Y-102855652D01*
X192707236Y-102854473D01*
X192689379Y-102852122D01*
X192665856Y-102847265D01*
X192613625Y-102848784D01*
X192608216Y-102848706D01*
X192556068Y-102845668D01*
X192556065Y-102845669D01*
X192532401Y-102849840D01*
X192514491Y-102851669D01*
X192490493Y-102852368D01*
X192490484Y-102852369D01*
X192440023Y-102865890D01*
X192434742Y-102867061D01*
X192383290Y-102876134D01*
X192383285Y-102876136D01*
X192361229Y-102885649D01*
X192344220Y-102891561D01*
X192321023Y-102897777D01*
X192321020Y-102897778D01*
X192275029Y-102922575D01*
X192270161Y-102924932D01*
X192222194Y-102945624D01*
X192202932Y-102959963D01*
X192187749Y-102969636D01*
X192166603Y-102981039D01*
X192166599Y-102981042D01*
X192127561Y-103015781D01*
X192123368Y-103019197D01*
X192081470Y-103050390D01*
X192066036Y-103068783D01*
X192053486Y-103081703D01*
X192035543Y-103097670D01*
X192035539Y-103097676D01*
X192005570Y-103140474D01*
X192002278Y-103144765D01*
X191968698Y-103184785D01*
X191968697Y-103184787D01*
X191957917Y-103206250D01*
X191948687Y-103221713D01*
X191934913Y-103241385D01*
X191934909Y-103241393D01*
X191915621Y-103289944D01*
X191913406Y-103294879D01*
X191889960Y-103341565D01*
X191884422Y-103364930D01*
X191879006Y-103382109D01*
X191870138Y-103404431D01*
X191870138Y-103404433D01*
X191862564Y-103456129D01*
X191861550Y-103461430D01*
X191849500Y-103512278D01*
X191849500Y-103536294D01*
X191848191Y-103554263D01*
X191844710Y-103578025D01*
X191849264Y-103630064D01*
X191849500Y-103635470D01*
X191849500Y-115176358D01*
X191849395Y-115179963D01*
X191845669Y-115243934D01*
X191845669Y-115243935D01*
X191847616Y-115254983D01*
X191849499Y-115276509D01*
X191849499Y-135037770D01*
X191829814Y-135104809D01*
X191813180Y-135125451D01*
X189325451Y-137613181D01*
X189264128Y-137646666D01*
X189237770Y-137649500D01*
X155362230Y-137649500D01*
X155295191Y-137629815D01*
X155274549Y-137613181D01*
X154839382Y-137178014D01*
X154805897Y-137116691D01*
X154803063Y-137090333D01*
X154803063Y-137082938D01*
X154822748Y-137015899D01*
X154850898Y-136985087D01*
X155021336Y-136852430D01*
X155181338Y-136678623D01*
X155310549Y-136480850D01*
X155405446Y-136264507D01*
X155463439Y-136035496D01*
X155476991Y-135871950D01*
X155482948Y-135800067D01*
X155482948Y-135800056D01*
X155463439Y-135564631D01*
X155463439Y-135564628D01*
X155405446Y-135335617D01*
X155310549Y-135119274D01*
X155181338Y-134921501D01*
X155181337Y-134921499D01*
X155021339Y-134747697D01*
X155021338Y-134747696D01*
X155021336Y-134747694D01*
X154873936Y-134632968D01*
X154834911Y-134602593D01*
X154627143Y-134490154D01*
X154627134Y-134490151D01*
X154403704Y-134413446D01*
X154212038Y-134381463D01*
X154170683Y-134374562D01*
X153934443Y-134374562D01*
X153893088Y-134381463D01*
X153701421Y-134413446D01*
X153477991Y-134490151D01*
X153477982Y-134490154D01*
X153270214Y-134602593D01*
X153093032Y-134740501D01*
X153028038Y-134766144D01*
X152959498Y-134752578D01*
X152909173Y-134704109D01*
X152900687Y-134685981D01*
X152880917Y-134632975D01*
X152880913Y-134632968D01*
X152794753Y-134517874D01*
X152794750Y-134517871D01*
X152679656Y-134431711D01*
X152679649Y-134431707D01*
X152544942Y-134381465D01*
X152544935Y-134381463D01*
X152485407Y-134375062D01*
X151762563Y-134375062D01*
X151762563Y-135187760D01*
X151742878Y-135254799D01*
X151690074Y-135300554D01*
X151620918Y-135310498D01*
X151548329Y-135300062D01*
X151548326Y-135300062D01*
X151476800Y-135300062D01*
X151476796Y-135300062D01*
X151404208Y-135310498D01*
X151335050Y-135300554D01*
X151282247Y-135254798D01*
X151262563Y-135187760D01*
X151262563Y-134375062D01*
X150539718Y-134375062D01*
X150480190Y-134381463D01*
X150480183Y-134381465D01*
X150345476Y-134431707D01*
X150345469Y-134431711D01*
X150230375Y-134517871D01*
X150230372Y-134517874D01*
X150144212Y-134632968D01*
X150144208Y-134632975D01*
X150093966Y-134767682D01*
X150093964Y-134767689D01*
X150087563Y-134827217D01*
X150087563Y-135550062D01*
X150899216Y-135550062D01*
X150966255Y-135569747D01*
X151012010Y-135622551D01*
X151021954Y-135691709D01*
X151018194Y-135708995D01*
X151012563Y-135728173D01*
X151012563Y-135871950D01*
X151018194Y-135891129D01*
X151018193Y-135960998D01*
X150980418Y-136019776D01*
X150916862Y-136048800D01*
X150899216Y-136050062D01*
X150087563Y-136050062D01*
X150087563Y-136772906D01*
X150093964Y-136832434D01*
X150093966Y-136832441D01*
X150144208Y-136967148D01*
X150144212Y-136967155D01*
X150230372Y-137082249D01*
X150230375Y-137082252D01*
X150345469Y-137168412D01*
X150345476Y-137168416D01*
X150480183Y-137218658D01*
X150480190Y-137218660D01*
X150539718Y-137225061D01*
X150539735Y-137225062D01*
X151262563Y-137225062D01*
X151262563Y-136412363D01*
X151282248Y-136345324D01*
X151335052Y-136299569D01*
X151404210Y-136289625D01*
X151476800Y-136300062D01*
X151476801Y-136300062D01*
X151548325Y-136300062D01*
X151548326Y-136300062D01*
X151620916Y-136289625D01*
X151690075Y-136299569D01*
X151742878Y-136345324D01*
X151762563Y-136412363D01*
X151762563Y-137225062D01*
X152485391Y-137225062D01*
X152485407Y-137225061D01*
X152544935Y-137218660D01*
X152544942Y-137218658D01*
X152679649Y-137168416D01*
X152679656Y-137168412D01*
X152794750Y-137082252D01*
X152794753Y-137082249D01*
X152880913Y-136967155D01*
X152880917Y-136967148D01*
X152900687Y-136914143D01*
X152942558Y-136858209D01*
X153008022Y-136833792D01*
X153076295Y-136848643D01*
X153093026Y-136859618D01*
X153254226Y-136985086D01*
X153295038Y-137041795D01*
X153302063Y-137082938D01*
X153302063Y-137185206D01*
X153282378Y-137252245D01*
X153265744Y-137272887D01*
X152675451Y-137863181D01*
X152614128Y-137896666D01*
X152587770Y-137899500D01*
X94952230Y-137899500D01*
X94885191Y-137879815D01*
X94864549Y-137863181D01*
X86586818Y-129585449D01*
X86553333Y-129524126D01*
X86550499Y-129497768D01*
X86550499Y-128362129D01*
X86550498Y-128362123D01*
X86544091Y-128302516D01*
X86493797Y-128167671D01*
X86493793Y-128167664D01*
X86407547Y-128052455D01*
X86407544Y-128052452D01*
X86292335Y-127966206D01*
X86292328Y-127966202D01*
X86160917Y-127917189D01*
X86104983Y-127875318D01*
X86080566Y-127809853D01*
X86095418Y-127741580D01*
X86116563Y-127713332D01*
X86238495Y-127591401D01*
X86374035Y-127397830D01*
X86473903Y-127183663D01*
X86535063Y-126955408D01*
X86555659Y-126720000D01*
X86535063Y-126484592D01*
X86473903Y-126256337D01*
X86374035Y-126042171D01*
X86238495Y-125848599D01*
X86238494Y-125848597D01*
X86071402Y-125681506D01*
X86071396Y-125681501D01*
X85885842Y-125551575D01*
X85842217Y-125496998D01*
X85835023Y-125427500D01*
X85866546Y-125365145D01*
X85885842Y-125348425D01*
X85908026Y-125332891D01*
X86071401Y-125218495D01*
X86238495Y-125051401D01*
X86374035Y-124857830D01*
X86473903Y-124643663D01*
X86535063Y-124415408D01*
X86555659Y-124180000D01*
X86535063Y-123944592D01*
X86483955Y-123753852D01*
X86473905Y-123716344D01*
X86473904Y-123716343D01*
X86473903Y-123716337D01*
X86374035Y-123502171D01*
X86238495Y-123308599D01*
X86238494Y-123308597D01*
X86071402Y-123141506D01*
X86071401Y-123141505D01*
X85885842Y-123011575D01*
X85885841Y-123011574D01*
X85842216Y-122956997D01*
X85835024Y-122887498D01*
X85866546Y-122825144D01*
X85885836Y-122808428D01*
X86071401Y-122678495D01*
X86238495Y-122511401D01*
X86374035Y-122317830D01*
X86473903Y-122103663D01*
X86535063Y-121875408D01*
X86555659Y-121640000D01*
X86535063Y-121404592D01*
X86473903Y-121176337D01*
X86374035Y-120962171D01*
X86367472Y-120952797D01*
X86245095Y-120778024D01*
X145644710Y-120778024D01*
X145646803Y-120801942D01*
X145647065Y-120819956D01*
X145645668Y-120843932D01*
X145645669Y-120843937D01*
X145654740Y-120895383D01*
X145655446Y-120900747D01*
X145660000Y-120952793D01*
X145660000Y-120952795D01*
X145667556Y-120975599D01*
X145671963Y-120993057D01*
X145676135Y-121016711D01*
X145694453Y-121059178D01*
X145696828Y-121064682D01*
X145698752Y-121069740D01*
X145715183Y-121119330D01*
X145715185Y-121119334D01*
X145727792Y-121139773D01*
X145736111Y-121155754D01*
X145745623Y-121177804D01*
X145776833Y-121219727D01*
X145779849Y-121224171D01*
X145800495Y-121257643D01*
X145807287Y-121268655D01*
X145824270Y-121285638D01*
X145836051Y-121299270D01*
X145850389Y-121318529D01*
X145890405Y-121352107D01*
X145894395Y-121355763D01*
X148224267Y-123685634D01*
X148236048Y-123699266D01*
X148250390Y-123718530D01*
X148290420Y-123752119D01*
X148294392Y-123755759D01*
X148300224Y-123761591D01*
X148300227Y-123761594D01*
X148325947Y-123781931D01*
X148384788Y-123831304D01*
X148390818Y-123835270D01*
X148390785Y-123835319D01*
X148397143Y-123839369D01*
X148397175Y-123839319D01*
X148403320Y-123843109D01*
X148403323Y-123843111D01*
X148472936Y-123875572D01*
X148541567Y-123910040D01*
X148541572Y-123910041D01*
X148548361Y-123912513D01*
X148548340Y-123912570D01*
X148555455Y-123915043D01*
X148555475Y-123914986D01*
X148562330Y-123917258D01*
X148637557Y-123932790D01*
X148637558Y-123932790D01*
X148712279Y-123950500D01*
X148712289Y-123950500D01*
X148719452Y-123951338D01*
X148719444Y-123951397D01*
X148726945Y-123952164D01*
X148726951Y-123952105D01*
X148734140Y-123952734D01*
X148734144Y-123952733D01*
X148734145Y-123952734D01*
X148810918Y-123950500D01*
X181936295Y-123950500D01*
X181954265Y-123951809D01*
X181978023Y-123955289D01*
X182030068Y-123950735D01*
X182035470Y-123950500D01*
X182043704Y-123950500D01*
X182043709Y-123950500D01*
X182055327Y-123949141D01*
X182076276Y-123946693D01*
X182089028Y-123945577D01*
X182152797Y-123939999D01*
X182152805Y-123939996D01*
X182159866Y-123938539D01*
X182159878Y-123938598D01*
X182167243Y-123936965D01*
X182167229Y-123936906D01*
X182174246Y-123935241D01*
X182174255Y-123935241D01*
X182246423Y-123908974D01*
X182319334Y-123884814D01*
X182319343Y-123884807D01*
X182325882Y-123881760D01*
X182325908Y-123881816D01*
X182332690Y-123878532D01*
X182332663Y-123878478D01*
X182339106Y-123875240D01*
X182339117Y-123875237D01*
X182403283Y-123833034D01*
X182468656Y-123792712D01*
X182468662Y-123792705D01*
X182474325Y-123788229D01*
X182474362Y-123788277D01*
X182480204Y-123783518D01*
X182480164Y-123783471D01*
X182485691Y-123778832D01*
X182485696Y-123778830D01*
X182538386Y-123722981D01*
X184885638Y-121375727D01*
X184899267Y-121363950D01*
X184918530Y-121349610D01*
X184918532Y-121349606D01*
X184918534Y-121349606D01*
X184936663Y-121327999D01*
X184952113Y-121309585D01*
X184955767Y-121305599D01*
X184961591Y-121299776D01*
X184981930Y-121274052D01*
X185031302Y-121215214D01*
X185031306Y-121215205D01*
X185035274Y-121209175D01*
X185035325Y-121209208D01*
X185039369Y-121202860D01*
X185039317Y-121202828D01*
X185043104Y-121196685D01*
X185043111Y-121196677D01*
X185075572Y-121127063D01*
X185110040Y-121058433D01*
X185110041Y-121058427D01*
X185112508Y-121051650D01*
X185112566Y-121051671D01*
X185115043Y-121044544D01*
X185114986Y-121044526D01*
X185117255Y-121037679D01*
X185117256Y-121037674D01*
X185117257Y-121037672D01*
X185132790Y-120962441D01*
X185150500Y-120887721D01*
X185150500Y-120887719D01*
X185151339Y-120880548D01*
X185151398Y-120880554D01*
X185152164Y-120873054D01*
X185152105Y-120873049D01*
X185152734Y-120865859D01*
X185150500Y-120789082D01*
X185150500Y-98423640D01*
X185150605Y-98420034D01*
X185151597Y-98403002D01*
X185154331Y-98356065D01*
X185152383Y-98345018D01*
X185150499Y-98323501D01*
X185150499Y-92860005D01*
X195169615Y-92860005D01*
X195189123Y-93095430D01*
X195247117Y-93324445D01*
X195342013Y-93540787D01*
X195471225Y-93738562D01*
X195537350Y-93810392D01*
X195568273Y-93873046D01*
X195560413Y-93942472D01*
X195516266Y-93996628D01*
X195489455Y-94010557D01*
X195432911Y-94031646D01*
X195432906Y-94031649D01*
X195317812Y-94117809D01*
X195317809Y-94117812D01*
X195231649Y-94232906D01*
X195231645Y-94232913D01*
X195181403Y-94367620D01*
X195181401Y-94367627D01*
X195175000Y-94427155D01*
X195175000Y-95150000D01*
X195986653Y-95150000D01*
X196053692Y-95169685D01*
X196099447Y-95222489D01*
X196109391Y-95291647D01*
X196105631Y-95308933D01*
X196100000Y-95328111D01*
X196100000Y-95471888D01*
X196105631Y-95491067D01*
X196105630Y-95560936D01*
X196067855Y-95619714D01*
X196004299Y-95648738D01*
X195986653Y-95650000D01*
X195175000Y-95650000D01*
X195175000Y-96372844D01*
X195181401Y-96432372D01*
X195181403Y-96432379D01*
X195231645Y-96567086D01*
X195231649Y-96567093D01*
X195317809Y-96682187D01*
X195317812Y-96682190D01*
X195432906Y-96768350D01*
X195432913Y-96768354D01*
X195567620Y-96818596D01*
X195567627Y-96818598D01*
X195627155Y-96824999D01*
X195627172Y-96825000D01*
X196350000Y-96825000D01*
X196350000Y-96012301D01*
X196369685Y-95945262D01*
X196422489Y-95899507D01*
X196491647Y-95889563D01*
X196564237Y-95900000D01*
X196564238Y-95900000D01*
X196635762Y-95900000D01*
X196635763Y-95900000D01*
X196708353Y-95889563D01*
X196777512Y-95899507D01*
X196830315Y-95945262D01*
X196850000Y-96012301D01*
X196849999Y-96824999D01*
X196850000Y-96825000D01*
X197572828Y-96825000D01*
X197572844Y-96824999D01*
X197632372Y-96818598D01*
X197632379Y-96818596D01*
X197767086Y-96768354D01*
X197767093Y-96768350D01*
X197882187Y-96682190D01*
X197882190Y-96682187D01*
X197968350Y-96567093D01*
X197968354Y-96567086D01*
X198018596Y-96432379D01*
X198018598Y-96432372D01*
X198024999Y-96372844D01*
X198025000Y-96372827D01*
X198025000Y-95650000D01*
X197213347Y-95650000D01*
X197146308Y-95630315D01*
X197100553Y-95577511D01*
X197090609Y-95508353D01*
X197094369Y-95491067D01*
X197100000Y-95471888D01*
X197100000Y-95328111D01*
X197094369Y-95308933D01*
X197094370Y-95239064D01*
X197132145Y-95180286D01*
X197195701Y-95151262D01*
X197213347Y-95150000D01*
X198024999Y-95150000D01*
X198025000Y-94427172D01*
X198024999Y-94427155D01*
X198018598Y-94367627D01*
X198018596Y-94367620D01*
X197968354Y-94232913D01*
X197968350Y-94232906D01*
X197882190Y-94117812D01*
X197882187Y-94117809D01*
X197767093Y-94031649D01*
X197767086Y-94031645D01*
X197710545Y-94010557D01*
X197654611Y-93968686D01*
X197630194Y-93903222D01*
X197645046Y-93834949D01*
X197662644Y-93810397D01*
X197728775Y-93738561D01*
X197857986Y-93540788D01*
X197952883Y-93324445D01*
X198010876Y-93095434D01*
X198030385Y-92860000D01*
X198010876Y-92624566D01*
X197952883Y-92395555D01*
X197857986Y-92179212D01*
X197728775Y-91981439D01*
X197728774Y-91981437D01*
X197568776Y-91807635D01*
X197568775Y-91807634D01*
X197568773Y-91807632D01*
X197387510Y-91666549D01*
X197382348Y-91662531D01*
X197174580Y-91550092D01*
X197174571Y-91550089D01*
X196951141Y-91473384D01*
X196795792Y-91447461D01*
X196718120Y-91434500D01*
X196481880Y-91434500D01*
X196423625Y-91444221D01*
X196248858Y-91473384D01*
X196025428Y-91550089D01*
X196025419Y-91550092D01*
X195817651Y-91662531D01*
X195631228Y-91807631D01*
X195631223Y-91807635D01*
X195471225Y-91981437D01*
X195342013Y-92179212D01*
X195247117Y-92395554D01*
X195189123Y-92624569D01*
X195169615Y-92859994D01*
X195169615Y-92860005D01*
X185150499Y-92860005D01*
X185150499Y-85823642D01*
X185150604Y-85820036D01*
X185151771Y-85800000D01*
X185154331Y-85756065D01*
X185152384Y-85745022D01*
X185150500Y-85723491D01*
X185150500Y-81127505D01*
X195169615Y-81127505D01*
X195189123Y-81362930D01*
X195247117Y-81591945D01*
X195342013Y-81808287D01*
X195471225Y-82006062D01*
X195537350Y-82077892D01*
X195568273Y-82140546D01*
X195560413Y-82209972D01*
X195516266Y-82264128D01*
X195489455Y-82278057D01*
X195432911Y-82299146D01*
X195432906Y-82299149D01*
X195317812Y-82385309D01*
X195317809Y-82385312D01*
X195231649Y-82500406D01*
X195231645Y-82500413D01*
X195181403Y-82635120D01*
X195181401Y-82635127D01*
X195175000Y-82694655D01*
X195175000Y-83417500D01*
X195986653Y-83417500D01*
X196053692Y-83437185D01*
X196099447Y-83489989D01*
X196109391Y-83559147D01*
X196105631Y-83576433D01*
X196100000Y-83595611D01*
X196100000Y-83739389D01*
X196103791Y-83752301D01*
X196105631Y-83758567D01*
X196105630Y-83828436D01*
X196067855Y-83887214D01*
X196004299Y-83916238D01*
X195986653Y-83917500D01*
X195175000Y-83917500D01*
X195175000Y-84640344D01*
X195181401Y-84699872D01*
X195181403Y-84699879D01*
X195231645Y-84834586D01*
X195231649Y-84834593D01*
X195317809Y-84949687D01*
X195317812Y-84949690D01*
X195432906Y-85035850D01*
X195432913Y-85035854D01*
X195567620Y-85086096D01*
X195567627Y-85086098D01*
X195627155Y-85092499D01*
X195627172Y-85092500D01*
X196350000Y-85092500D01*
X196350000Y-84279801D01*
X196369685Y-84212762D01*
X196422489Y-84167007D01*
X196491647Y-84157063D01*
X196564237Y-84167500D01*
X196564238Y-84167500D01*
X196635762Y-84167500D01*
X196635763Y-84167500D01*
X196708353Y-84157063D01*
X196777512Y-84167007D01*
X196830315Y-84212762D01*
X196850000Y-84279801D01*
X196849999Y-85092499D01*
X196850000Y-85092500D01*
X197572828Y-85092500D01*
X197572844Y-85092499D01*
X197632372Y-85086098D01*
X197632379Y-85086096D01*
X197767086Y-85035854D01*
X197767093Y-85035850D01*
X197882187Y-84949690D01*
X197882190Y-84949687D01*
X197968350Y-84834593D01*
X197968354Y-84834586D01*
X198018596Y-84699879D01*
X198018598Y-84699872D01*
X198024999Y-84640344D01*
X198025000Y-84640327D01*
X198025000Y-83917500D01*
X197213347Y-83917500D01*
X197146308Y-83897815D01*
X197100553Y-83845011D01*
X197090609Y-83775853D01*
X197094369Y-83758567D01*
X197096209Y-83752301D01*
X197100000Y-83739389D01*
X197100000Y-83595611D01*
X197100000Y-83595610D01*
X197094369Y-83576433D01*
X197094370Y-83506564D01*
X197132145Y-83447786D01*
X197195701Y-83418762D01*
X197213347Y-83417500D01*
X198024999Y-83417500D01*
X198025000Y-82694672D01*
X198024999Y-82694655D01*
X198018598Y-82635127D01*
X198018596Y-82635120D01*
X197968354Y-82500413D01*
X197968350Y-82500406D01*
X197882190Y-82385312D01*
X197882187Y-82385309D01*
X197767093Y-82299149D01*
X197767086Y-82299145D01*
X197710545Y-82278057D01*
X197654611Y-82236186D01*
X197630194Y-82170722D01*
X197645046Y-82102449D01*
X197662644Y-82077897D01*
X197728775Y-82006061D01*
X197857986Y-81808288D01*
X197952883Y-81591945D01*
X198010876Y-81362934D01*
X198025743Y-81183525D01*
X198030385Y-81127505D01*
X198030385Y-81127494D01*
X198013027Y-80918029D01*
X198010876Y-80892066D01*
X197952883Y-80663055D01*
X197857986Y-80446712D01*
X197728775Y-80248939D01*
X197728774Y-80248937D01*
X197568776Y-80075135D01*
X197568775Y-80075134D01*
X197568773Y-80075132D01*
X197384393Y-79931623D01*
X197382348Y-79930031D01*
X197174580Y-79817592D01*
X197174571Y-79817589D01*
X196951141Y-79740884D01*
X196795485Y-79714910D01*
X196718120Y-79702000D01*
X196481880Y-79702000D01*
X196465077Y-79704804D01*
X196248858Y-79740884D01*
X196025428Y-79817589D01*
X196025419Y-79817592D01*
X195817651Y-79930031D01*
X195631228Y-80075131D01*
X195631223Y-80075135D01*
X195471225Y-80248937D01*
X195342013Y-80446712D01*
X195247117Y-80663054D01*
X195189123Y-80892069D01*
X195169615Y-81127494D01*
X195169615Y-81127505D01*
X185150500Y-81127505D01*
X185150500Y-76023640D01*
X185150605Y-76020034D01*
X185152436Y-75988596D01*
X185154331Y-75956065D01*
X185152384Y-75945021D01*
X185150500Y-75923490D01*
X185150500Y-72347500D01*
X195244341Y-72347500D01*
X195264936Y-72582903D01*
X195264938Y-72582913D01*
X195326094Y-72811155D01*
X195326096Y-72811159D01*
X195326097Y-72811163D01*
X195397900Y-72965145D01*
X195425965Y-73025330D01*
X195425967Y-73025334D01*
X195514363Y-73151575D01*
X195561501Y-73218896D01*
X195561506Y-73218902D01*
X195683818Y-73341214D01*
X195717303Y-73402537D01*
X195712319Y-73472229D01*
X195670447Y-73528162D01*
X195639471Y-73545077D01*
X195507912Y-73594146D01*
X195507906Y-73594149D01*
X195392812Y-73680309D01*
X195392809Y-73680312D01*
X195306649Y-73795406D01*
X195306645Y-73795413D01*
X195256403Y-73930120D01*
X195256401Y-73930127D01*
X195250000Y-73989655D01*
X195250000Y-74637500D01*
X195986653Y-74637500D01*
X196053692Y-74657185D01*
X196099447Y-74709989D01*
X196109391Y-74779147D01*
X196105631Y-74796433D01*
X196100000Y-74815611D01*
X196100000Y-74959388D01*
X196105631Y-74978567D01*
X196105630Y-75048436D01*
X196067855Y-75107214D01*
X196004299Y-75136238D01*
X195986653Y-75137500D01*
X195250000Y-75137500D01*
X195250000Y-75785344D01*
X195256401Y-75844872D01*
X195256403Y-75844879D01*
X195306645Y-75979586D01*
X195306648Y-75979591D01*
X195392809Y-76094687D01*
X195392812Y-76094690D01*
X195507906Y-76180850D01*
X195507913Y-76180854D01*
X195642620Y-76231096D01*
X195642627Y-76231098D01*
X195702155Y-76237499D01*
X195702172Y-76237500D01*
X196350000Y-76237500D01*
X196350000Y-75499801D01*
X196369685Y-75432762D01*
X196422489Y-75387007D01*
X196491647Y-75377063D01*
X196564237Y-75387500D01*
X196564238Y-75387500D01*
X196635762Y-75387500D01*
X196635763Y-75387500D01*
X196708353Y-75377063D01*
X196777512Y-75387007D01*
X196830315Y-75432762D01*
X196850000Y-75499801D01*
X196850000Y-76237500D01*
X197497828Y-76237500D01*
X197497844Y-76237499D01*
X197557372Y-76231098D01*
X197557379Y-76231096D01*
X197692086Y-76180854D01*
X197692093Y-76180850D01*
X197807187Y-76094690D01*
X197807190Y-76094687D01*
X197893352Y-75979591D01*
X197893354Y-75979586D01*
X197943596Y-75844879D01*
X197943598Y-75844872D01*
X197949999Y-75785344D01*
X197950000Y-75785327D01*
X197950000Y-75137500D01*
X197213347Y-75137500D01*
X197146308Y-75117815D01*
X197100553Y-75065011D01*
X197090609Y-74995853D01*
X197094369Y-74978567D01*
X197100000Y-74959388D01*
X197100000Y-74815611D01*
X197094369Y-74796433D01*
X197094370Y-74726564D01*
X197132145Y-74667786D01*
X197195701Y-74638762D01*
X197213347Y-74637500D01*
X197950000Y-74637500D01*
X197950000Y-73989672D01*
X197949999Y-73989655D01*
X197943598Y-73930127D01*
X197943596Y-73930120D01*
X197893354Y-73795413D01*
X197893350Y-73795406D01*
X197807190Y-73680312D01*
X197807187Y-73680309D01*
X197692093Y-73594149D01*
X197692088Y-73594146D01*
X197560528Y-73545077D01*
X197504595Y-73503205D01*
X197480178Y-73437741D01*
X197495030Y-73369468D01*
X197516175Y-73341220D01*
X197638495Y-73218901D01*
X197774035Y-73025330D01*
X197873903Y-72811163D01*
X197935063Y-72582908D01*
X197955659Y-72347500D01*
X197935063Y-72112092D01*
X197873903Y-71883837D01*
X197774035Y-71669671D01*
X197686455Y-71544592D01*
X197638494Y-71476097D01*
X197471402Y-71309006D01*
X197471395Y-71309001D01*
X197277834Y-71173467D01*
X197277830Y-71173465D01*
X197277830Y-71173464D01*
X197063663Y-71073597D01*
X197063659Y-71073596D01*
X197063655Y-71073594D01*
X196835413Y-71012438D01*
X196835403Y-71012436D01*
X196600001Y-70991841D01*
X196599999Y-70991841D01*
X196364596Y-71012436D01*
X196364586Y-71012438D01*
X196136344Y-71073594D01*
X196136335Y-71073598D01*
X195922171Y-71173464D01*
X195922169Y-71173465D01*
X195728597Y-71309005D01*
X195561505Y-71476097D01*
X195425965Y-71669669D01*
X195425964Y-71669671D01*
X195326098Y-71883835D01*
X195326094Y-71883844D01*
X195264938Y-72112086D01*
X195264936Y-72112096D01*
X195244341Y-72347499D01*
X195244341Y-72347500D01*
X185150500Y-72347500D01*
X185150500Y-65863705D01*
X185151809Y-65845735D01*
X185155289Y-65821974D01*
X185150736Y-65769939D01*
X185150500Y-65764532D01*
X185150500Y-65756296D01*
X185150500Y-65756291D01*
X185146691Y-65723705D01*
X185139998Y-65647203D01*
X185139995Y-65647194D01*
X185138538Y-65640135D01*
X185138598Y-65640122D01*
X185136965Y-65632757D01*
X185136906Y-65632772D01*
X185135241Y-65625749D01*
X185135241Y-65625745D01*
X185108971Y-65553568D01*
X185085668Y-65483241D01*
X185084816Y-65480670D01*
X185081761Y-65474118D01*
X185081815Y-65474092D01*
X185078533Y-65467312D01*
X185078480Y-65467340D01*
X185075238Y-65460886D01*
X185075237Y-65460883D01*
X185033038Y-65396723D01*
X184992712Y-65331344D01*
X184992711Y-65331343D01*
X184992710Y-65331341D01*
X184988234Y-65325681D01*
X184988280Y-65325643D01*
X184983519Y-65319799D01*
X184983474Y-65319838D01*
X184978834Y-65314308D01*
X184922982Y-65261613D01*
X183700729Y-64039361D01*
X183688949Y-64025730D01*
X183681482Y-64015701D01*
X183674612Y-64006472D01*
X183674610Y-64006470D01*
X183634587Y-63972886D01*
X183630612Y-63969244D01*
X183627690Y-63966322D01*
X183624780Y-63963411D01*
X183599040Y-63943059D01*
X183540209Y-63893694D01*
X183534180Y-63889729D01*
X183534212Y-63889680D01*
X183527853Y-63885628D01*
X183527822Y-63885679D01*
X183521680Y-63881891D01*
X183521678Y-63881890D01*
X183521677Y-63881889D01*
X183482474Y-63863608D01*
X183452058Y-63849424D01*
X183405764Y-63826175D01*
X183383433Y-63814960D01*
X183383431Y-63814959D01*
X183383430Y-63814959D01*
X183376645Y-63812489D01*
X183376665Y-63812433D01*
X183369549Y-63809959D01*
X183369531Y-63810015D01*
X183362671Y-63807742D01*
X183334841Y-63801996D01*
X183287434Y-63792207D01*
X183238472Y-63780603D01*
X183212719Y-63774499D01*
X183205547Y-63773661D01*
X183205553Y-63773601D01*
X183198055Y-63772835D01*
X183198050Y-63772895D01*
X183190860Y-63772265D01*
X183114083Y-63774500D01*
X182548691Y-63774500D01*
X182481652Y-63754815D01*
X182435897Y-63702011D01*
X182425953Y-63632853D01*
X182454978Y-63569297D01*
X182513756Y-63531523D01*
X182516598Y-63530725D01*
X182656085Y-63493350D01*
X182728663Y-63473903D01*
X182942830Y-63374035D01*
X183136401Y-63238495D01*
X183258717Y-63116178D01*
X183320036Y-63082696D01*
X183389728Y-63087680D01*
X183445662Y-63129551D01*
X183462577Y-63160528D01*
X183511646Y-63292088D01*
X183511649Y-63292093D01*
X183597809Y-63407187D01*
X183597812Y-63407190D01*
X183712906Y-63493350D01*
X183712913Y-63493354D01*
X183847620Y-63543596D01*
X183847627Y-63543598D01*
X183907155Y-63549999D01*
X183907172Y-63550000D01*
X184554999Y-63550000D01*
X184554999Y-62812301D01*
X184574683Y-62745262D01*
X184627487Y-62699507D01*
X184696646Y-62689563D01*
X184703380Y-62690531D01*
X184769237Y-62700000D01*
X184769238Y-62700000D01*
X184840762Y-62700000D01*
X184840763Y-62700000D01*
X184913353Y-62689563D01*
X184982512Y-62699507D01*
X185035315Y-62745262D01*
X185055000Y-62812301D01*
X185055000Y-63550000D01*
X185702828Y-63550000D01*
X185702844Y-63549999D01*
X185762372Y-63543598D01*
X185762379Y-63543596D01*
X185897086Y-63493354D01*
X185897093Y-63493350D01*
X186012187Y-63407190D01*
X186012190Y-63407187D01*
X186098350Y-63292093D01*
X186098354Y-63292086D01*
X186148596Y-63157379D01*
X186148598Y-63157372D01*
X186154999Y-63097844D01*
X186155000Y-63097827D01*
X186155000Y-62450000D01*
X185418347Y-62450000D01*
X185351308Y-62430315D01*
X185305553Y-62377511D01*
X185295609Y-62308353D01*
X185299369Y-62291067D01*
X185305000Y-62271888D01*
X185305000Y-62128111D01*
X185299369Y-62108933D01*
X185299370Y-62039064D01*
X185337145Y-61980286D01*
X185400701Y-61951262D01*
X185418347Y-61950000D01*
X186155000Y-61950000D01*
X186155000Y-61302172D01*
X186154999Y-61302155D01*
X186148598Y-61242627D01*
X186148596Y-61242620D01*
X186098354Y-61107913D01*
X186098350Y-61107906D01*
X186012190Y-60992812D01*
X186012187Y-60992809D01*
X185897093Y-60906649D01*
X185897086Y-60906645D01*
X185762379Y-60856403D01*
X185762372Y-60856401D01*
X185702844Y-60850000D01*
X185055000Y-60850000D01*
X185055000Y-61587698D01*
X185035315Y-61654737D01*
X184982511Y-61700492D01*
X184913355Y-61710436D01*
X184840766Y-61700000D01*
X184840763Y-61700000D01*
X184769237Y-61700000D01*
X184696646Y-61710437D01*
X184627487Y-61700493D01*
X184574683Y-61654738D01*
X184554999Y-61587699D01*
X184555000Y-60850000D01*
X183907155Y-60850000D01*
X183847627Y-60856401D01*
X183847620Y-60856403D01*
X183712913Y-60906645D01*
X183712906Y-60906649D01*
X183597812Y-60992809D01*
X183597809Y-60992812D01*
X183511649Y-61107906D01*
X183511645Y-61107913D01*
X183462578Y-61239470D01*
X183420707Y-61295404D01*
X183355242Y-61319821D01*
X183286969Y-61304969D01*
X183258715Y-61283819D01*
X183200822Y-61225926D01*
X183136401Y-61161505D01*
X183136397Y-61161502D01*
X183136396Y-61161501D01*
X182942834Y-61025967D01*
X182942830Y-61025965D01*
X182886552Y-60999722D01*
X182728663Y-60926097D01*
X182728659Y-60926096D01*
X182728655Y-60926094D01*
X182500413Y-60864938D01*
X182500403Y-60864936D01*
X182265001Y-60844341D01*
X182264999Y-60844341D01*
X182029596Y-60864936D01*
X182029586Y-60864938D01*
X181801344Y-60926094D01*
X181801335Y-60926098D01*
X181587171Y-61025964D01*
X181587169Y-61025965D01*
X181393597Y-61161505D01*
X181226505Y-61328597D01*
X181096575Y-61514158D01*
X181041998Y-61557783D01*
X180972500Y-61564977D01*
X180910145Y-61533454D01*
X180893425Y-61514158D01*
X180763494Y-61328597D01*
X180596402Y-61161506D01*
X180596395Y-61161501D01*
X180584284Y-61153021D01*
X180519854Y-61107906D01*
X180402834Y-61025967D01*
X180402830Y-61025965D01*
X180346552Y-60999722D01*
X180188663Y-60926097D01*
X180188659Y-60926096D01*
X180188655Y-60926094D01*
X179960413Y-60864938D01*
X179960403Y-60864936D01*
X179725001Y-60844341D01*
X179724999Y-60844341D01*
X179489596Y-60864936D01*
X179489586Y-60864938D01*
X179261344Y-60926094D01*
X179261335Y-60926098D01*
X179047171Y-61025964D01*
X179047169Y-61025965D01*
X178853597Y-61161505D01*
X178686505Y-61328597D01*
X178550965Y-61522169D01*
X178550964Y-61522171D01*
X178451098Y-61736335D01*
X178451094Y-61736344D01*
X178389938Y-61964586D01*
X178389936Y-61964596D01*
X178369341Y-62199999D01*
X178369341Y-62200000D01*
X178389936Y-62435403D01*
X178389938Y-62435413D01*
X178451094Y-62663655D01*
X178451096Y-62663659D01*
X178451097Y-62663663D01*
X178536829Y-62847515D01*
X178550965Y-62877830D01*
X178550967Y-62877834D01*
X178620562Y-62977225D01*
X178686504Y-63071400D01*
X178686506Y-63071402D01*
X178853595Y-63238492D01*
X178853598Y-63238494D01*
X178853599Y-63238495D01*
X178921623Y-63286125D01*
X178965248Y-63340701D01*
X178974500Y-63387700D01*
X178974500Y-64501358D01*
X178974395Y-64504963D01*
X178970669Y-64568934D01*
X178970669Y-64568935D01*
X178981795Y-64632038D01*
X178982318Y-64635605D01*
X178989758Y-64699249D01*
X178989761Y-64699264D01*
X178993594Y-64709795D01*
X178999186Y-64730664D01*
X179001133Y-64741708D01*
X179001134Y-64741710D01*
X179026510Y-64800538D01*
X179027842Y-64803890D01*
X179049762Y-64864116D01*
X179055924Y-64873484D01*
X179066179Y-64892504D01*
X179070620Y-64902799D01*
X179070624Y-64902806D01*
X179108891Y-64954207D01*
X179110960Y-64957162D01*
X179146170Y-65010696D01*
X179154330Y-65018395D01*
X179168690Y-65034531D01*
X179175390Y-65043530D01*
X179224484Y-65084725D01*
X179227179Y-65087124D01*
X179273779Y-65131090D01*
X179273780Y-65131090D01*
X179273782Y-65131092D01*
X179283489Y-65136696D01*
X179301195Y-65149094D01*
X179309786Y-65156302D01*
X179309787Y-65156302D01*
X179309789Y-65156304D01*
X179329459Y-65166182D01*
X179367076Y-65185073D01*
X179370212Y-65186765D01*
X179425719Y-65218812D01*
X179436463Y-65222028D01*
X179456544Y-65230006D01*
X179466567Y-65235040D01*
X179479997Y-65238223D01*
X179528929Y-65249821D01*
X179532387Y-65250746D01*
X179593790Y-65269130D01*
X179604978Y-65269781D01*
X179626372Y-65272914D01*
X179637279Y-65275500D01*
X179701359Y-65275500D01*
X179704959Y-65275604D01*
X179768935Y-65279331D01*
X179779976Y-65277384D01*
X179801509Y-65275500D01*
X182762770Y-65275500D01*
X182829809Y-65295185D01*
X182850451Y-65311819D01*
X183613181Y-66074548D01*
X183646666Y-66135871D01*
X183649500Y-66162229D01*
X183649500Y-75167128D01*
X183629815Y-75234167D01*
X183577011Y-75279922D01*
X183552245Y-75286784D01*
X183552541Y-75288080D01*
X183545753Y-75289629D01*
X183375478Y-75349210D01*
X183222737Y-75445184D01*
X183095184Y-75572737D01*
X182999211Y-75725476D01*
X182939631Y-75895745D01*
X182939630Y-75895750D01*
X182919435Y-76074996D01*
X182919435Y-76075003D01*
X182939630Y-76254249D01*
X182939631Y-76254254D01*
X182999211Y-76424523D01*
X183085708Y-76562181D01*
X183095184Y-76577262D01*
X183222738Y-76704816D01*
X183375478Y-76800789D01*
X183426465Y-76818630D01*
X183545745Y-76860368D01*
X183552532Y-76861917D01*
X183551846Y-76864922D01*
X183603649Y-76886597D01*
X183643293Y-76944131D01*
X183649500Y-76982871D01*
X183649500Y-84925500D01*
X183629815Y-84992539D01*
X183577011Y-85038294D01*
X183525500Y-85049500D01*
X183499972Y-85049500D01*
X183459017Y-85042542D01*
X183379254Y-85014631D01*
X183379249Y-85014630D01*
X183200004Y-84994435D01*
X183199996Y-84994435D01*
X183020750Y-85014630D01*
X183020745Y-85014631D01*
X182850476Y-85074211D01*
X182697737Y-85170184D01*
X182570184Y-85297737D01*
X182474211Y-85450476D01*
X182414631Y-85620745D01*
X182414630Y-85620750D01*
X182394435Y-85799996D01*
X182394435Y-85800003D01*
X182414630Y-85979249D01*
X182414631Y-85979254D01*
X182474211Y-86149523D01*
X182516373Y-86216623D01*
X182570184Y-86302262D01*
X182697738Y-86429816D01*
X182850478Y-86525789D01*
X183020744Y-86585367D01*
X183020745Y-86585368D01*
X183020750Y-86585369D01*
X183199996Y-86605565D01*
X183200000Y-86605565D01*
X183200004Y-86605565D01*
X183379249Y-86585369D01*
X183379252Y-86585368D01*
X183379255Y-86585368D01*
X183459017Y-86557457D01*
X183499972Y-86550500D01*
X183525500Y-86550500D01*
X183592539Y-86570185D01*
X183638294Y-86622989D01*
X183649500Y-86674500D01*
X183649500Y-97525500D01*
X183629815Y-97592539D01*
X183577011Y-97638294D01*
X183525500Y-97649500D01*
X183499972Y-97649500D01*
X183459017Y-97642542D01*
X183379254Y-97614631D01*
X183379249Y-97614630D01*
X183200004Y-97594435D01*
X183199996Y-97594435D01*
X183020750Y-97614630D01*
X183020745Y-97614631D01*
X182850476Y-97674211D01*
X182697737Y-97770184D01*
X182570184Y-97897737D01*
X182474211Y-98050476D01*
X182414631Y-98220745D01*
X182414630Y-98220750D01*
X182394435Y-98399996D01*
X182394435Y-98400003D01*
X182414630Y-98579249D01*
X182414631Y-98579254D01*
X182474211Y-98749523D01*
X182536463Y-98848596D01*
X182570184Y-98902262D01*
X182697738Y-99029816D01*
X182850478Y-99125789D01*
X183020745Y-99185368D01*
X183020750Y-99185369D01*
X183199996Y-99205565D01*
X183200000Y-99205565D01*
X183200004Y-99205565D01*
X183379249Y-99185369D01*
X183379252Y-99185368D01*
X183379255Y-99185368D01*
X183459017Y-99157457D01*
X183499972Y-99150500D01*
X183525500Y-99150500D01*
X183592539Y-99170185D01*
X183638294Y-99222989D01*
X183649500Y-99274500D01*
X183649500Y-120437769D01*
X183629815Y-120504808D01*
X183613181Y-120525450D01*
X181725451Y-122413181D01*
X181664128Y-122446666D01*
X181637770Y-122449500D01*
X149162229Y-122449500D01*
X149095190Y-122429815D01*
X149074548Y-122413181D01*
X147874199Y-121212832D01*
X147840714Y-121151509D01*
X147845698Y-121081817D01*
X147856887Y-121059178D01*
X147857355Y-121058434D01*
X147909404Y-120975599D01*
X147925788Y-120949524D01*
X147947414Y-120887721D01*
X147985368Y-120779255D01*
X147991331Y-120726331D01*
X148005565Y-120600003D01*
X148005565Y-120599996D01*
X147985369Y-120420750D01*
X147985368Y-120420745D01*
X147975485Y-120392500D01*
X147925789Y-120250478D01*
X147916031Y-120234949D01*
X147846797Y-120124763D01*
X147829816Y-120097738D01*
X147702262Y-119970184D01*
X147655477Y-119940787D01*
X147549523Y-119874211D01*
X147379254Y-119814631D01*
X147379249Y-119814630D01*
X147200004Y-119794435D01*
X147199996Y-119794435D01*
X147020750Y-119814630D01*
X147020745Y-119814631D01*
X146850476Y-119874211D01*
X146697737Y-119970184D01*
X146654741Y-120013181D01*
X146593418Y-120046666D01*
X146567060Y-120049500D01*
X146489345Y-120049500D01*
X146473055Y-120047835D01*
X146473050Y-120047895D01*
X146465860Y-120047265D01*
X146389083Y-120049500D01*
X146356291Y-120049500D01*
X146356287Y-120049500D01*
X146356277Y-120049501D01*
X146348114Y-120050455D01*
X146342722Y-120050848D01*
X146290493Y-120052368D01*
X146290486Y-120052369D01*
X146267281Y-120058586D01*
X146249595Y-120061970D01*
X146225747Y-120064758D01*
X146225741Y-120064759D01*
X146176661Y-120082623D01*
X146171503Y-120084250D01*
X146121023Y-120097777D01*
X146121020Y-120097778D01*
X146099883Y-120109175D01*
X146083453Y-120116547D01*
X146060885Y-120124761D01*
X146060881Y-120124763D01*
X146017232Y-120153471D01*
X146012587Y-120156244D01*
X145966607Y-120181036D01*
X145966601Y-120181040D01*
X145948654Y-120197011D01*
X145934367Y-120207973D01*
X145914304Y-120221169D01*
X145914303Y-120221170D01*
X145888773Y-120248230D01*
X145886655Y-120250476D01*
X145878456Y-120259166D01*
X145874576Y-120262934D01*
X145835538Y-120297676D01*
X145821765Y-120317346D01*
X145810390Y-120331310D01*
X145793910Y-120348778D01*
X145767782Y-120394031D01*
X145764876Y-120398592D01*
X145734913Y-120441384D01*
X145726045Y-120463707D01*
X145718195Y-120479921D01*
X145706188Y-120500717D01*
X145706185Y-120500723D01*
X145691203Y-120550765D01*
X145689428Y-120555872D01*
X145670137Y-120604433D01*
X145670136Y-120604438D01*
X145666656Y-120628195D01*
X145662758Y-120645778D01*
X145655870Y-120668786D01*
X145655870Y-120668791D01*
X145652831Y-120720951D01*
X145652281Y-120726331D01*
X145644710Y-120778023D01*
X145644710Y-120778024D01*
X86245095Y-120778024D01*
X86238494Y-120768597D01*
X86071402Y-120601506D01*
X86071396Y-120601501D01*
X85885842Y-120471575D01*
X85842217Y-120416998D01*
X85835023Y-120347500D01*
X85866546Y-120285145D01*
X85885842Y-120268425D01*
X85911476Y-120250476D01*
X86071401Y-120138495D01*
X86238495Y-119971401D01*
X86374035Y-119777830D01*
X86473903Y-119563663D01*
X86535063Y-119335408D01*
X86555659Y-119100000D01*
X86535063Y-118864592D01*
X86473903Y-118636337D01*
X86374035Y-118422171D01*
X86345515Y-118381439D01*
X86238494Y-118228597D01*
X86071402Y-118061506D01*
X86071401Y-118061505D01*
X85896613Y-117939117D01*
X85885841Y-117931574D01*
X85842216Y-117876997D01*
X85835024Y-117807498D01*
X85866546Y-117745144D01*
X85885836Y-117728428D01*
X86071401Y-117598495D01*
X86091871Y-117578025D01*
X155244710Y-117578025D01*
X155249264Y-117630064D01*
X155249500Y-117635470D01*
X155249500Y-117643709D01*
X155253306Y-117676274D01*
X155260000Y-117752791D01*
X155261461Y-117759867D01*
X155261403Y-117759878D01*
X155263034Y-117767237D01*
X155263092Y-117767224D01*
X155264757Y-117774250D01*
X155291025Y-117846424D01*
X155315185Y-117919331D01*
X155318236Y-117925874D01*
X155318182Y-117925898D01*
X155321470Y-117932688D01*
X155321521Y-117932663D01*
X155324761Y-117939113D01*
X155324762Y-117939114D01*
X155324763Y-117939117D01*
X155345196Y-117970184D01*
X155366965Y-118003283D01*
X155407287Y-118068655D01*
X155411766Y-118074319D01*
X155411719Y-118074355D01*
X155416483Y-118080202D01*
X155416529Y-118080164D01*
X155421167Y-118085692D01*
X155421170Y-118085696D01*
X155421173Y-118085698D01*
X155421174Y-118085700D01*
X155477019Y-118138386D01*
X156246692Y-118908059D01*
X156269358Y-118944125D01*
X156271188Y-118943244D01*
X156274209Y-118949518D01*
X156274211Y-118949522D01*
X156370184Y-119102262D01*
X156497738Y-119229816D01*
X156650478Y-119325789D01*
X156820745Y-119385368D01*
X156820750Y-119385369D01*
X156999996Y-119405565D01*
X157000000Y-119405565D01*
X157000004Y-119405565D01*
X157179249Y-119385369D01*
X157179252Y-119385368D01*
X157179255Y-119385368D01*
X157349522Y-119325789D01*
X157502262Y-119229816D01*
X157629816Y-119102262D01*
X157725789Y-118949522D01*
X157785368Y-118779255D01*
X157805565Y-118600000D01*
X157785528Y-118422169D01*
X157785369Y-118420750D01*
X157785368Y-118420745D01*
X157771614Y-118381439D01*
X157725789Y-118250478D01*
X157712041Y-118228599D01*
X157629815Y-118097737D01*
X157502262Y-117970184D01*
X157452813Y-117939113D01*
X157349522Y-117874211D01*
X157349518Y-117874209D01*
X157343244Y-117871188D01*
X157344125Y-117869358D01*
X157308059Y-117846692D01*
X156786819Y-117325451D01*
X156753334Y-117264128D01*
X156750500Y-117237770D01*
X156750500Y-89910036D01*
X156750500Y-62562226D01*
X156770184Y-62495191D01*
X156786809Y-62474558D01*
X156854551Y-62406816D01*
X156915873Y-62373334D01*
X156942230Y-62370500D01*
X158212299Y-62370500D01*
X158279338Y-62390185D01*
X158313873Y-62423376D01*
X158361505Y-62491401D01*
X158528597Y-62658493D01*
X158528603Y-62658498D01*
X158714158Y-62788425D01*
X158757783Y-62843002D01*
X158764977Y-62912500D01*
X158733454Y-62974855D01*
X158714158Y-62991575D01*
X158528597Y-63121505D01*
X158361505Y-63288597D01*
X158225965Y-63482169D01*
X158225964Y-63482171D01*
X158126098Y-63696335D01*
X158126094Y-63696344D01*
X158064938Y-63924586D01*
X158064936Y-63924596D01*
X158044341Y-64159999D01*
X158044341Y-64160000D01*
X158064936Y-64395403D01*
X158064938Y-64395413D01*
X158126094Y-64623655D01*
X158126096Y-64623659D01*
X158126097Y-64623663D01*
X158218196Y-64821170D01*
X158225965Y-64837830D01*
X158225967Y-64837834D01*
X158302280Y-64946819D01*
X158361501Y-65031396D01*
X158361506Y-65031402D01*
X158483818Y-65153714D01*
X158517303Y-65215037D01*
X158512319Y-65284729D01*
X158470447Y-65340662D01*
X158439471Y-65357577D01*
X158307912Y-65406646D01*
X158307906Y-65406649D01*
X158192812Y-65492809D01*
X158192809Y-65492812D01*
X158106649Y-65607906D01*
X158106645Y-65607913D01*
X158056403Y-65742620D01*
X158056401Y-65742627D01*
X158050000Y-65802155D01*
X158050000Y-66450000D01*
X158776231Y-66450000D01*
X158843270Y-66469685D01*
X158889025Y-66522489D01*
X158898969Y-66591647D01*
X158895208Y-66608936D01*
X158890000Y-66626672D01*
X158890000Y-66773327D01*
X158895208Y-66791064D01*
X158895208Y-66860934D01*
X158857434Y-66919712D01*
X158793879Y-66948738D01*
X158776231Y-66950000D01*
X158050000Y-66950000D01*
X158050000Y-67597844D01*
X158056401Y-67657372D01*
X158056403Y-67657379D01*
X158106645Y-67792086D01*
X158106649Y-67792093D01*
X158192809Y-67907187D01*
X158192812Y-67907190D01*
X158307906Y-67993350D01*
X158307913Y-67993354D01*
X158439470Y-68042421D01*
X158495403Y-68084292D01*
X158519821Y-68149756D01*
X158504970Y-68218029D01*
X158483819Y-68246284D01*
X158361503Y-68368600D01*
X158225965Y-68562169D01*
X158225964Y-68562171D01*
X158126098Y-68776335D01*
X158126094Y-68776344D01*
X158064938Y-69004586D01*
X158064936Y-69004596D01*
X158044341Y-69239999D01*
X158044341Y-69240000D01*
X158064936Y-69475403D01*
X158064938Y-69475413D01*
X158126094Y-69703655D01*
X158126096Y-69703659D01*
X158126097Y-69703663D01*
X158225965Y-69917829D01*
X158225965Y-69917830D01*
X158225967Y-69917834D01*
X158361501Y-70111395D01*
X158361506Y-70111402D01*
X158528597Y-70278493D01*
X158528603Y-70278498D01*
X158714158Y-70408425D01*
X158757783Y-70463002D01*
X158764977Y-70532500D01*
X158733454Y-70594855D01*
X158714158Y-70611575D01*
X158528597Y-70741505D01*
X158361505Y-70908597D01*
X158225965Y-71102169D01*
X158225964Y-71102171D01*
X158126098Y-71316335D01*
X158126094Y-71316344D01*
X158064938Y-71544586D01*
X158064936Y-71544596D01*
X158044341Y-71779999D01*
X158044341Y-71780000D01*
X158064936Y-72015403D01*
X158064938Y-72015413D01*
X158126094Y-72243655D01*
X158126096Y-72243659D01*
X158126097Y-72243663D01*
X158174517Y-72347499D01*
X158225965Y-72457830D01*
X158225967Y-72457834D01*
X158361501Y-72651395D01*
X158361506Y-72651402D01*
X158528597Y-72818493D01*
X158528603Y-72818498D01*
X158714158Y-72948425D01*
X158757783Y-73003002D01*
X158764977Y-73072500D01*
X158733454Y-73134855D01*
X158714158Y-73151575D01*
X158528597Y-73281505D01*
X158361505Y-73448597D01*
X158225965Y-73642169D01*
X158225964Y-73642171D01*
X158126098Y-73856335D01*
X158126094Y-73856344D01*
X158064938Y-74084586D01*
X158064936Y-74084596D01*
X158044341Y-74319999D01*
X158044341Y-74320000D01*
X158064936Y-74555403D01*
X158064938Y-74555413D01*
X158126094Y-74783655D01*
X158126096Y-74783659D01*
X158126097Y-74783663D01*
X158225043Y-74995853D01*
X158225965Y-74997830D01*
X158225967Y-74997834D01*
X158361501Y-75191395D01*
X158361506Y-75191402D01*
X158528597Y-75358493D01*
X158528603Y-75358498D01*
X158714158Y-75488425D01*
X158757783Y-75543002D01*
X158764977Y-75612500D01*
X158733454Y-75674855D01*
X158714158Y-75691575D01*
X158528597Y-75821505D01*
X158361505Y-75988597D01*
X158225965Y-76182169D01*
X158225964Y-76182171D01*
X158126098Y-76396335D01*
X158126094Y-76396344D01*
X158064938Y-76624586D01*
X158064936Y-76624596D01*
X158044341Y-76859999D01*
X158044341Y-76860000D01*
X158064936Y-77095403D01*
X158064938Y-77095413D01*
X158126094Y-77323655D01*
X158126096Y-77323659D01*
X158126097Y-77323663D01*
X158173699Y-77425745D01*
X158225965Y-77537830D01*
X158225967Y-77537834D01*
X158300545Y-77644341D01*
X158361501Y-77731396D01*
X158361506Y-77731402D01*
X158483818Y-77853714D01*
X158517303Y-77915037D01*
X158512319Y-77984729D01*
X158470447Y-78040662D01*
X158439471Y-78057577D01*
X158307912Y-78106646D01*
X158307906Y-78106649D01*
X158192812Y-78192809D01*
X158192809Y-78192812D01*
X158106649Y-78307906D01*
X158106645Y-78307913D01*
X158056403Y-78442620D01*
X158056401Y-78442627D01*
X158050000Y-78502155D01*
X158050000Y-79150000D01*
X158776231Y-79150000D01*
X158843270Y-79169685D01*
X158889025Y-79222489D01*
X158898969Y-79291647D01*
X158895208Y-79308936D01*
X158890000Y-79326672D01*
X158890000Y-79473327D01*
X158895208Y-79491064D01*
X158895208Y-79560934D01*
X158857434Y-79619712D01*
X158793879Y-79648738D01*
X158776231Y-79650000D01*
X158050000Y-79650000D01*
X158050000Y-80297844D01*
X158056401Y-80357372D01*
X158056403Y-80357379D01*
X158106645Y-80492086D01*
X158106649Y-80492093D01*
X158192809Y-80607187D01*
X158192812Y-80607190D01*
X158307906Y-80693350D01*
X158307913Y-80693354D01*
X158439470Y-80742421D01*
X158495403Y-80784292D01*
X158519821Y-80849756D01*
X158504970Y-80918029D01*
X158483819Y-80946284D01*
X158361503Y-81068600D01*
X158225965Y-81262169D01*
X158225964Y-81262171D01*
X158126098Y-81476335D01*
X158126094Y-81476344D01*
X158064938Y-81704586D01*
X158064936Y-81704596D01*
X158044341Y-81939999D01*
X158044341Y-81940000D01*
X158064936Y-82175403D01*
X158064938Y-82175413D01*
X158126094Y-82403655D01*
X158126096Y-82403659D01*
X158126097Y-82403663D01*
X158177602Y-82514116D01*
X158225965Y-82617830D01*
X158225967Y-82617834D01*
X158361501Y-82811395D01*
X158361506Y-82811402D01*
X158528597Y-82978493D01*
X158528603Y-82978498D01*
X158714158Y-83108425D01*
X158757783Y-83163002D01*
X158764977Y-83232500D01*
X158733454Y-83294855D01*
X158714158Y-83311575D01*
X158528597Y-83441505D01*
X158361505Y-83608597D01*
X158225965Y-83802169D01*
X158225964Y-83802171D01*
X158126098Y-84016335D01*
X158126094Y-84016344D01*
X158064938Y-84244586D01*
X158064936Y-84244596D01*
X158044341Y-84479999D01*
X158044341Y-84480000D01*
X158064936Y-84715403D01*
X158064938Y-84715413D01*
X158126094Y-84943655D01*
X158126096Y-84943659D01*
X158126097Y-84943663D01*
X158213220Y-85130499D01*
X158225965Y-85157830D01*
X158225967Y-85157834D01*
X158234615Y-85170184D01*
X158361501Y-85351396D01*
X158361506Y-85351402D01*
X158528597Y-85518493D01*
X158528603Y-85518498D01*
X158714158Y-85648425D01*
X158757783Y-85703002D01*
X158764977Y-85772500D01*
X158733454Y-85834855D01*
X158714158Y-85851575D01*
X158528597Y-85981505D01*
X158361505Y-86148597D01*
X158225965Y-86342169D01*
X158225964Y-86342171D01*
X158126098Y-86556335D01*
X158126094Y-86556344D01*
X158064938Y-86784586D01*
X158064936Y-86784596D01*
X158044341Y-87019999D01*
X158044341Y-87020000D01*
X158064936Y-87255403D01*
X158064938Y-87255413D01*
X158126094Y-87483655D01*
X158126096Y-87483659D01*
X158126097Y-87483663D01*
X158171759Y-87581585D01*
X158225965Y-87697830D01*
X158225967Y-87697834D01*
X158361501Y-87891395D01*
X158361506Y-87891402D01*
X158528597Y-88058493D01*
X158528603Y-88058498D01*
X158714158Y-88188425D01*
X158757783Y-88243002D01*
X158764977Y-88312500D01*
X158733454Y-88374855D01*
X158714158Y-88391575D01*
X158528597Y-88521505D01*
X158361505Y-88688597D01*
X158225965Y-88882169D01*
X158225964Y-88882171D01*
X158126098Y-89096335D01*
X158126094Y-89096344D01*
X158064938Y-89324586D01*
X158064936Y-89324596D01*
X158044341Y-89559999D01*
X158044341Y-89560000D01*
X158064936Y-89795403D01*
X158064938Y-89795413D01*
X158126094Y-90023655D01*
X158126096Y-90023659D01*
X158126097Y-90023663D01*
X158225965Y-90237829D01*
X158225965Y-90237830D01*
X158225967Y-90237834D01*
X158334281Y-90392521D01*
X158361501Y-90431396D01*
X158361506Y-90431402D01*
X158483818Y-90553714D01*
X158517303Y-90615037D01*
X158512319Y-90684729D01*
X158470447Y-90740662D01*
X158439471Y-90757577D01*
X158307912Y-90806646D01*
X158307906Y-90806649D01*
X158192812Y-90892809D01*
X158192809Y-90892812D01*
X158106649Y-91007906D01*
X158106645Y-91007913D01*
X158056403Y-91142620D01*
X158056401Y-91142627D01*
X158050000Y-91202155D01*
X158050000Y-91850000D01*
X158776231Y-91850000D01*
X158843270Y-91869685D01*
X158889025Y-91922489D01*
X158898969Y-91991647D01*
X158895208Y-92008936D01*
X158890000Y-92026672D01*
X158890000Y-92173327D01*
X158895208Y-92191064D01*
X158895208Y-92260934D01*
X158857434Y-92319712D01*
X158793879Y-92348738D01*
X158776231Y-92350000D01*
X158050000Y-92350000D01*
X158050000Y-92997844D01*
X158056401Y-93057372D01*
X158056403Y-93057379D01*
X158106645Y-93192086D01*
X158106649Y-93192093D01*
X158192809Y-93307187D01*
X158192812Y-93307190D01*
X158307906Y-93393350D01*
X158307913Y-93393354D01*
X158439470Y-93442421D01*
X158495403Y-93484292D01*
X158519821Y-93549756D01*
X158504970Y-93618029D01*
X158483819Y-93646284D01*
X158361503Y-93768600D01*
X158225965Y-93962169D01*
X158225964Y-93962171D01*
X158126098Y-94176335D01*
X158126094Y-94176344D01*
X158064938Y-94404586D01*
X158064936Y-94404596D01*
X158044341Y-94639999D01*
X158044341Y-94640000D01*
X158064936Y-94875403D01*
X158064938Y-94875413D01*
X158126094Y-95103655D01*
X158126096Y-95103659D01*
X158126097Y-95103663D01*
X158168153Y-95193852D01*
X158225965Y-95317830D01*
X158225967Y-95317834D01*
X158361501Y-95511395D01*
X158361506Y-95511402D01*
X158528597Y-95678493D01*
X158528603Y-95678498D01*
X158714158Y-95808425D01*
X158757783Y-95863002D01*
X158764977Y-95932500D01*
X158733454Y-95994855D01*
X158714158Y-96011575D01*
X158528597Y-96141505D01*
X158361505Y-96308597D01*
X158225965Y-96502169D01*
X158225964Y-96502171D01*
X158126098Y-96716335D01*
X158126094Y-96716344D01*
X158064938Y-96944586D01*
X158064936Y-96944596D01*
X158044341Y-97179999D01*
X158044341Y-97180000D01*
X158064936Y-97415403D01*
X158064938Y-97415413D01*
X158126094Y-97643655D01*
X158126096Y-97643659D01*
X158126097Y-97643663D01*
X158181245Y-97761927D01*
X158225965Y-97857830D01*
X158225967Y-97857834D01*
X158313873Y-97983376D01*
X158360857Y-98050476D01*
X158361501Y-98051395D01*
X158361506Y-98051402D01*
X158528597Y-98218493D01*
X158528603Y-98218498D01*
X158714158Y-98348425D01*
X158757783Y-98403002D01*
X158764977Y-98472500D01*
X158733454Y-98534855D01*
X158714158Y-98551575D01*
X158528597Y-98681505D01*
X158361505Y-98848597D01*
X158225965Y-99042169D01*
X158225964Y-99042171D01*
X158126098Y-99256335D01*
X158126094Y-99256344D01*
X158064938Y-99484586D01*
X158064936Y-99484596D01*
X158044341Y-99719999D01*
X158044341Y-99720000D01*
X158064936Y-99955403D01*
X158064938Y-99955413D01*
X158126094Y-100183655D01*
X158126096Y-100183659D01*
X158126097Y-100183663D01*
X158181245Y-100301927D01*
X158225965Y-100397830D01*
X158225967Y-100397834D01*
X158361501Y-100591395D01*
X158361506Y-100591402D01*
X158528597Y-100758493D01*
X158528603Y-100758498D01*
X158714158Y-100888425D01*
X158757783Y-100943002D01*
X158764977Y-101012500D01*
X158733454Y-101074855D01*
X158714158Y-101091575D01*
X158528597Y-101221505D01*
X158361505Y-101388597D01*
X158225965Y-101582169D01*
X158225964Y-101582171D01*
X158126098Y-101796335D01*
X158126094Y-101796344D01*
X158064938Y-102024586D01*
X158064936Y-102024596D01*
X158044341Y-102259999D01*
X158044341Y-102260000D01*
X158064936Y-102495403D01*
X158064938Y-102495413D01*
X158126094Y-102723655D01*
X158126096Y-102723659D01*
X158126097Y-102723663D01*
X158206791Y-102896711D01*
X158225965Y-102937830D01*
X158225967Y-102937834D01*
X158288673Y-103027386D01*
X158361501Y-103131396D01*
X158361506Y-103131402D01*
X158483818Y-103253714D01*
X158517303Y-103315037D01*
X158512319Y-103384729D01*
X158470447Y-103440662D01*
X158439471Y-103457577D01*
X158307912Y-103506646D01*
X158307906Y-103506649D01*
X158192812Y-103592809D01*
X158192809Y-103592812D01*
X158106649Y-103707906D01*
X158106645Y-103707913D01*
X158056403Y-103842620D01*
X158056401Y-103842627D01*
X158050000Y-103902155D01*
X158050000Y-104550000D01*
X158776231Y-104550000D01*
X158843270Y-104569685D01*
X158889025Y-104622489D01*
X158898969Y-104691647D01*
X158895208Y-104708936D01*
X158890000Y-104726672D01*
X158890000Y-104873327D01*
X158895208Y-104891064D01*
X158895208Y-104960934D01*
X158857434Y-105019712D01*
X158793879Y-105048738D01*
X158776231Y-105050000D01*
X158050000Y-105050000D01*
X158050000Y-105697844D01*
X158056401Y-105757372D01*
X158056403Y-105757379D01*
X158106645Y-105892086D01*
X158106649Y-105892093D01*
X158192809Y-106007187D01*
X158192812Y-106007190D01*
X158307906Y-106093350D01*
X158307913Y-106093354D01*
X158439470Y-106142421D01*
X158495403Y-106184292D01*
X158519821Y-106249756D01*
X158504970Y-106318029D01*
X158483819Y-106346284D01*
X158361503Y-106468600D01*
X158225965Y-106662169D01*
X158225964Y-106662171D01*
X158126098Y-106876335D01*
X158126094Y-106876344D01*
X158064938Y-107104586D01*
X158064936Y-107104596D01*
X158044341Y-107339999D01*
X158044341Y-107340000D01*
X158064936Y-107575403D01*
X158064938Y-107575413D01*
X158126094Y-107803655D01*
X158126096Y-107803659D01*
X158126097Y-107803663D01*
X158168889Y-107895430D01*
X158225965Y-108017830D01*
X158225967Y-108017834D01*
X158361501Y-108211395D01*
X158361506Y-108211402D01*
X158528597Y-108378493D01*
X158528603Y-108378498D01*
X158714158Y-108508425D01*
X158757783Y-108563002D01*
X158764977Y-108632500D01*
X158733454Y-108694855D01*
X158714158Y-108711575D01*
X158528597Y-108841505D01*
X158361505Y-109008597D01*
X158225965Y-109202169D01*
X158225964Y-109202171D01*
X158126098Y-109416335D01*
X158126094Y-109416344D01*
X158064938Y-109644586D01*
X158064936Y-109644596D01*
X158044341Y-109879999D01*
X158044341Y-109880000D01*
X158064936Y-110115403D01*
X158064938Y-110115413D01*
X158126094Y-110343655D01*
X158126096Y-110343659D01*
X158126097Y-110343663D01*
X158175683Y-110450000D01*
X158225965Y-110557830D01*
X158225967Y-110557834D01*
X158325168Y-110699507D01*
X158361505Y-110751401D01*
X158528599Y-110918495D01*
X158623665Y-110985061D01*
X158722165Y-111054032D01*
X158722167Y-111054033D01*
X158722170Y-111054035D01*
X158936337Y-111153903D01*
X159164592Y-111215063D01*
X159352918Y-111231539D01*
X159399999Y-111235659D01*
X159400000Y-111235659D01*
X159400001Y-111235659D01*
X159439234Y-111232226D01*
X159635408Y-111215063D01*
X159863663Y-111153903D01*
X160077830Y-111054035D01*
X160271401Y-110918495D01*
X160438495Y-110751401D01*
X160574035Y-110557830D01*
X160673903Y-110343663D01*
X160735063Y-110115408D01*
X160755659Y-109880000D01*
X160735063Y-109644592D01*
X160673903Y-109416337D01*
X160574035Y-109202171D01*
X160555296Y-109175408D01*
X160438494Y-109008597D01*
X160271402Y-108841506D01*
X160271396Y-108841501D01*
X160085842Y-108711575D01*
X160042217Y-108656998D01*
X160035023Y-108587500D01*
X160066546Y-108525145D01*
X160085842Y-108508425D01*
X160132197Y-108475967D01*
X160271401Y-108378495D01*
X160438495Y-108211401D01*
X160574035Y-108017830D01*
X160673903Y-107803663D01*
X160735063Y-107575408D01*
X160755659Y-107340000D01*
X160735063Y-107104592D01*
X160680243Y-106900000D01*
X160673905Y-106876344D01*
X160673904Y-106876343D01*
X160673903Y-106876337D01*
X160574035Y-106662171D01*
X160564629Y-106648738D01*
X160438496Y-106468600D01*
X160432426Y-106462530D01*
X160316179Y-106346283D01*
X160282696Y-106284963D01*
X160287680Y-106215271D01*
X160329551Y-106159337D01*
X160360529Y-106142422D01*
X160492086Y-106093354D01*
X160492093Y-106093350D01*
X160607187Y-106007190D01*
X160607190Y-106007187D01*
X160693350Y-105892093D01*
X160693354Y-105892086D01*
X160743596Y-105757379D01*
X160743598Y-105757372D01*
X160749999Y-105697844D01*
X160750000Y-105697827D01*
X160750000Y-105050000D01*
X160023769Y-105050000D01*
X159956730Y-105030315D01*
X159910975Y-104977511D01*
X159901031Y-104908353D01*
X159904792Y-104891064D01*
X159910000Y-104873327D01*
X159910000Y-104726672D01*
X159904792Y-104708936D01*
X159904792Y-104639066D01*
X159942566Y-104580288D01*
X160006121Y-104551262D01*
X160023769Y-104550000D01*
X160750000Y-104550000D01*
X160750000Y-103902172D01*
X160749999Y-103902155D01*
X160743598Y-103842627D01*
X160743596Y-103842620D01*
X160693354Y-103707913D01*
X160693350Y-103707906D01*
X160607190Y-103592812D01*
X160607187Y-103592809D01*
X160492093Y-103506649D01*
X160492088Y-103506646D01*
X160360528Y-103457577D01*
X160304595Y-103415705D01*
X160280178Y-103350241D01*
X160295030Y-103281968D01*
X160316175Y-103253720D01*
X160438495Y-103131401D01*
X160574035Y-102937830D01*
X160673903Y-102723663D01*
X160735063Y-102495408D01*
X160755659Y-102260000D01*
X160735063Y-102024592D01*
X160673903Y-101796337D01*
X160574035Y-101582171D01*
X160438495Y-101388599D01*
X160438494Y-101388597D01*
X160271402Y-101221506D01*
X160271401Y-101221505D01*
X160085842Y-101091575D01*
X160085841Y-101091574D01*
X160042216Y-101036997D01*
X160035024Y-100967498D01*
X160066546Y-100905144D01*
X160085836Y-100888428D01*
X160271401Y-100758495D01*
X160438495Y-100591401D01*
X160574035Y-100397830D01*
X160673903Y-100183663D01*
X160735063Y-99955408D01*
X160755659Y-99720000D01*
X160735063Y-99484592D01*
X160673903Y-99256337D01*
X160574035Y-99042171D01*
X160565384Y-99029815D01*
X160438494Y-98848597D01*
X160271402Y-98681506D01*
X160271396Y-98681501D01*
X160085842Y-98551575D01*
X160042217Y-98496998D01*
X160035023Y-98427500D01*
X160066546Y-98365145D01*
X160085842Y-98348425D01*
X160121453Y-98323490D01*
X160271401Y-98218495D01*
X160438495Y-98051401D01*
X160574035Y-97857830D01*
X160673903Y-97643663D01*
X160735063Y-97415408D01*
X160755659Y-97180000D01*
X160735063Y-96944592D01*
X160673903Y-96716337D01*
X160574035Y-96502171D01*
X160525167Y-96432379D01*
X160438494Y-96308597D01*
X160271402Y-96141506D01*
X160271401Y-96141505D01*
X160085842Y-96011575D01*
X160085841Y-96011574D01*
X160042216Y-95956997D01*
X160035024Y-95887498D01*
X160066546Y-95825144D01*
X160085836Y-95808428D01*
X160271401Y-95678495D01*
X160438495Y-95511401D01*
X160574035Y-95317830D01*
X160673903Y-95103663D01*
X160735063Y-94875408D01*
X160755659Y-94640000D01*
X160735063Y-94404592D01*
X160673903Y-94176337D01*
X160574035Y-93962171D01*
X160523150Y-93889500D01*
X160438496Y-93768600D01*
X160408454Y-93738558D01*
X160316179Y-93646283D01*
X160282696Y-93584963D01*
X160287680Y-93515271D01*
X160329551Y-93459337D01*
X160360529Y-93442422D01*
X160492086Y-93393354D01*
X160492093Y-93393350D01*
X160607187Y-93307190D01*
X160607190Y-93307187D01*
X160693350Y-93192093D01*
X160693354Y-93192086D01*
X160743596Y-93057379D01*
X160743598Y-93057372D01*
X160749999Y-92997844D01*
X160750000Y-92997827D01*
X160750000Y-92350000D01*
X160023769Y-92350000D01*
X159956730Y-92330315D01*
X159910975Y-92277511D01*
X159901031Y-92208353D01*
X159904792Y-92191064D01*
X159910000Y-92173327D01*
X159910000Y-92026672D01*
X159904792Y-92008936D01*
X159904792Y-91939066D01*
X159942566Y-91880288D01*
X160006121Y-91851262D01*
X160023769Y-91850000D01*
X160750000Y-91850000D01*
X160750000Y-91202172D01*
X160749999Y-91202155D01*
X160743598Y-91142627D01*
X160743596Y-91142620D01*
X160693354Y-91007913D01*
X160693350Y-91007906D01*
X160607190Y-90892812D01*
X160607187Y-90892809D01*
X160492093Y-90806649D01*
X160492088Y-90806646D01*
X160360528Y-90757577D01*
X160304595Y-90715705D01*
X160280178Y-90650241D01*
X160295030Y-90581968D01*
X160316175Y-90553720D01*
X160438495Y-90431401D01*
X160574035Y-90237830D01*
X160673903Y-90023663D01*
X160735063Y-89795408D01*
X160755659Y-89560000D01*
X160735063Y-89324592D01*
X160673903Y-89096337D01*
X160574035Y-88882171D01*
X160551844Y-88850478D01*
X160438494Y-88688597D01*
X160271402Y-88521506D01*
X160271396Y-88521501D01*
X160085842Y-88391575D01*
X160042217Y-88336998D01*
X160035023Y-88267500D01*
X160066546Y-88205145D01*
X160085842Y-88188425D01*
X160108026Y-88172891D01*
X160271401Y-88058495D01*
X160438495Y-87891401D01*
X160574035Y-87697830D01*
X160673903Y-87483663D01*
X160735063Y-87255408D01*
X160755659Y-87020000D01*
X160735063Y-86784592D01*
X160673903Y-86556337D01*
X160574035Y-86342171D01*
X160523151Y-86269500D01*
X160438494Y-86148597D01*
X160271402Y-85981506D01*
X160271401Y-85981505D01*
X160085842Y-85851575D01*
X160085841Y-85851574D01*
X160042216Y-85796997D01*
X160035024Y-85727498D01*
X160066546Y-85665144D01*
X160085836Y-85648428D01*
X160271401Y-85518495D01*
X160438495Y-85351401D01*
X160574035Y-85157830D01*
X160673903Y-84943663D01*
X160735063Y-84715408D01*
X160755659Y-84480000D01*
X160735063Y-84244592D01*
X160673903Y-84016337D01*
X160574035Y-83802171D01*
X160567741Y-83793181D01*
X160438494Y-83608597D01*
X160271402Y-83441506D01*
X160271396Y-83441501D01*
X160085842Y-83311575D01*
X160042217Y-83256998D01*
X160035023Y-83187500D01*
X160066546Y-83125145D01*
X160085842Y-83108425D01*
X160270588Y-82979064D01*
X160271401Y-82978495D01*
X160438495Y-82811401D01*
X160574035Y-82617830D01*
X160673903Y-82403663D01*
X160735063Y-82175408D01*
X160755659Y-81940000D01*
X160735063Y-81704592D01*
X160673903Y-81476337D01*
X160574035Y-81262171D01*
X160558930Y-81240599D01*
X160438496Y-81068600D01*
X160402930Y-81033034D01*
X160316179Y-80946283D01*
X160282696Y-80884963D01*
X160287680Y-80815271D01*
X160329551Y-80759337D01*
X160360529Y-80742422D01*
X160492086Y-80693354D01*
X160492093Y-80693350D01*
X160607187Y-80607190D01*
X160607190Y-80607187D01*
X160693350Y-80492093D01*
X160693354Y-80492086D01*
X160743596Y-80357379D01*
X160743598Y-80357372D01*
X160749999Y-80297844D01*
X160750000Y-80297827D01*
X160750000Y-79650000D01*
X160023769Y-79650000D01*
X159956730Y-79630315D01*
X159910975Y-79577511D01*
X159901031Y-79508353D01*
X159904792Y-79491064D01*
X159910000Y-79473327D01*
X159910000Y-79326672D01*
X159904792Y-79308936D01*
X159904792Y-79239066D01*
X159942566Y-79180288D01*
X160006121Y-79151262D01*
X160023769Y-79150000D01*
X160750000Y-79150000D01*
X160750000Y-78502172D01*
X160749999Y-78502155D01*
X160743598Y-78442627D01*
X160743596Y-78442620D01*
X160693354Y-78307913D01*
X160693350Y-78307906D01*
X160607190Y-78192812D01*
X160607187Y-78192809D01*
X160492093Y-78106649D01*
X160492088Y-78106646D01*
X160360528Y-78057577D01*
X160304595Y-78015705D01*
X160280178Y-77950241D01*
X160295030Y-77881968D01*
X160316175Y-77853720D01*
X160438495Y-77731401D01*
X160574035Y-77537830D01*
X160673903Y-77323663D01*
X160735063Y-77095408D01*
X160755659Y-76860000D01*
X160735063Y-76624592D01*
X160673903Y-76396337D01*
X160574035Y-76182171D01*
X160529689Y-76118837D01*
X160438494Y-75988597D01*
X160271402Y-75821506D01*
X160271401Y-75821505D01*
X160085842Y-75691575D01*
X160085841Y-75691574D01*
X160042216Y-75636997D01*
X160035024Y-75567498D01*
X160066546Y-75505144D01*
X160085836Y-75488428D01*
X160271401Y-75358495D01*
X160438495Y-75191401D01*
X160574035Y-74997830D01*
X160673903Y-74783663D01*
X160735063Y-74555408D01*
X160755659Y-74320000D01*
X160735063Y-74084592D01*
X160673903Y-73856337D01*
X160574035Y-73642171D01*
X160573582Y-73641523D01*
X160438494Y-73448597D01*
X160271402Y-73281506D01*
X160271396Y-73281501D01*
X160085842Y-73151575D01*
X160042217Y-73096998D01*
X160035023Y-73027500D01*
X160066546Y-72965145D01*
X160085842Y-72948425D01*
X160108026Y-72932891D01*
X160271401Y-72818495D01*
X160438495Y-72651401D01*
X160574035Y-72457830D01*
X160673903Y-72243663D01*
X160735063Y-72015408D01*
X160755659Y-71780000D01*
X160735063Y-71544592D01*
X160673903Y-71316337D01*
X160574035Y-71102171D01*
X160554028Y-71073597D01*
X160438494Y-70908597D01*
X160271402Y-70741506D01*
X160271401Y-70741505D01*
X160085842Y-70611575D01*
X160085841Y-70611574D01*
X160042216Y-70556997D01*
X160035024Y-70487498D01*
X160066546Y-70425144D01*
X160085836Y-70408428D01*
X160271401Y-70278495D01*
X160438495Y-70111401D01*
X160574035Y-69917830D01*
X160673903Y-69703663D01*
X160735063Y-69475408D01*
X160755659Y-69240000D01*
X160735063Y-69004592D01*
X160673903Y-68776337D01*
X160574035Y-68562171D01*
X160565178Y-68549522D01*
X160438496Y-68368600D01*
X160438495Y-68368599D01*
X160316179Y-68246283D01*
X160282696Y-68184963D01*
X160287680Y-68115271D01*
X160329551Y-68059337D01*
X160360529Y-68042422D01*
X160492086Y-67993354D01*
X160492093Y-67993350D01*
X160607187Y-67907190D01*
X160607190Y-67907187D01*
X160693350Y-67792093D01*
X160693354Y-67792086D01*
X160743596Y-67657379D01*
X160743598Y-67657372D01*
X160749999Y-67597844D01*
X160750000Y-67597827D01*
X160750000Y-66950000D01*
X160023769Y-66950000D01*
X159956730Y-66930315D01*
X159910975Y-66877511D01*
X159901031Y-66808353D01*
X159904792Y-66791064D01*
X159910000Y-66773327D01*
X159910000Y-66626672D01*
X159904792Y-66608936D01*
X159904792Y-66539066D01*
X159942566Y-66480288D01*
X160006121Y-66451262D01*
X160023769Y-66450000D01*
X160750000Y-66450000D01*
X160750000Y-65802172D01*
X160749999Y-65802155D01*
X160743598Y-65742627D01*
X160743596Y-65742620D01*
X160693354Y-65607913D01*
X160693350Y-65607906D01*
X160607190Y-65492812D01*
X160607187Y-65492809D01*
X160492093Y-65406649D01*
X160492088Y-65406646D01*
X160360528Y-65357577D01*
X160304595Y-65315705D01*
X160280178Y-65250241D01*
X160295030Y-65181968D01*
X160316175Y-65153720D01*
X160438495Y-65031401D01*
X160574035Y-64837830D01*
X160673903Y-64623663D01*
X160735063Y-64395408D01*
X160755659Y-64160000D01*
X160735063Y-63924592D01*
X160683155Y-63730868D01*
X160673905Y-63696344D01*
X160673904Y-63696343D01*
X160673903Y-63696337D01*
X160574035Y-63482171D01*
X160573582Y-63481523D01*
X160438494Y-63288597D01*
X160271402Y-63121506D01*
X160271396Y-63121501D01*
X160085842Y-62991575D01*
X160042217Y-62936998D01*
X160035023Y-62867500D01*
X160066546Y-62805145D01*
X160085842Y-62788425D01*
X160147485Y-62745262D01*
X160271401Y-62658495D01*
X160438495Y-62491401D01*
X160574035Y-62297830D01*
X160673903Y-62083663D01*
X160735063Y-61855408D01*
X160755659Y-61620000D01*
X160735063Y-61384592D01*
X160673903Y-61156337D01*
X160574035Y-60942171D01*
X160573582Y-60941523D01*
X160438494Y-60748597D01*
X160271402Y-60581506D01*
X160271395Y-60581501D01*
X160268297Y-60579332D01*
X160230040Y-60552544D01*
X160077834Y-60445967D01*
X160077830Y-60445965D01*
X160076908Y-60445535D01*
X159863663Y-60346097D01*
X159863659Y-60346096D01*
X159863655Y-60346094D01*
X159635413Y-60284938D01*
X159635403Y-60284936D01*
X159400001Y-60264341D01*
X159399999Y-60264341D01*
X159164596Y-60284936D01*
X159164586Y-60284938D01*
X158936344Y-60346094D01*
X158936335Y-60346098D01*
X158722171Y-60445964D01*
X158722169Y-60445965D01*
X158528597Y-60581505D01*
X158361506Y-60748596D01*
X158313874Y-60816623D01*
X158259297Y-60860248D01*
X158212299Y-60869500D01*
X156643705Y-60869500D01*
X156625735Y-60868191D01*
X156601972Y-60864710D01*
X156556533Y-60868686D01*
X156549931Y-60869264D01*
X156544530Y-60869500D01*
X156536289Y-60869500D01*
X156514579Y-60872037D01*
X156503724Y-60873306D01*
X156488419Y-60874645D01*
X156427199Y-60880001D01*
X156420132Y-60881460D01*
X156420120Y-60881404D01*
X156412763Y-60883035D01*
X156412777Y-60883092D01*
X156405743Y-60884759D01*
X156333575Y-60911025D01*
X156260675Y-60935181D01*
X156254126Y-60938236D01*
X156254101Y-60938183D01*
X156247308Y-60941471D01*
X156247334Y-60941523D01*
X156240880Y-60944764D01*
X156176708Y-60986971D01*
X156111347Y-61027285D01*
X156105683Y-61031765D01*
X156105647Y-61031719D01*
X156099798Y-61036484D01*
X156099835Y-61036528D01*
X156094310Y-61041164D01*
X156094304Y-61041169D01*
X156094304Y-61041170D01*
X156089299Y-61046475D01*
X156041599Y-61097033D01*
X155514358Y-61624272D01*
X155500729Y-61636051D01*
X155481468Y-61650390D01*
X155447898Y-61690397D01*
X155444253Y-61694376D01*
X155438409Y-61700222D01*
X155418059Y-61725959D01*
X155368695Y-61784789D01*
X155364729Y-61790819D01*
X155364682Y-61790788D01*
X155360630Y-61797147D01*
X155360679Y-61797177D01*
X155356889Y-61803321D01*
X155324424Y-61872941D01*
X155289960Y-61941566D01*
X155287488Y-61948357D01*
X155287432Y-61948336D01*
X155284960Y-61955450D01*
X155285015Y-61955469D01*
X155282742Y-61962327D01*
X155274975Y-61999946D01*
X155267207Y-62037565D01*
X155256284Y-62083655D01*
X155249498Y-62112286D01*
X155248661Y-62119454D01*
X155248601Y-62119447D01*
X155247835Y-62126945D01*
X155247895Y-62126951D01*
X155247265Y-62134140D01*
X155249500Y-62210916D01*
X155249500Y-117536294D01*
X155248191Y-117554263D01*
X155244710Y-117578025D01*
X86091871Y-117578025D01*
X86238495Y-117431401D01*
X86374035Y-117237830D01*
X86473903Y-117023663D01*
X86535063Y-116795408D01*
X86555659Y-116560000D01*
X86535063Y-116324592D01*
X86473903Y-116096337D01*
X86374035Y-115882171D01*
X86238495Y-115688599D01*
X86238494Y-115688597D01*
X86071402Y-115521506D01*
X86071396Y-115521501D01*
X85885842Y-115391575D01*
X85842217Y-115336998D01*
X85835023Y-115267500D01*
X85866546Y-115205145D01*
X85885842Y-115188425D01*
X85908026Y-115172891D01*
X86071401Y-115058495D01*
X86238495Y-114891401D01*
X86374035Y-114697830D01*
X86473903Y-114483663D01*
X86535063Y-114255408D01*
X86555659Y-114020000D01*
X86535063Y-113784592D01*
X86473903Y-113556337D01*
X86374035Y-113342171D01*
X86238495Y-113148599D01*
X86238494Y-113148597D01*
X86071402Y-112981506D01*
X86071401Y-112981505D01*
X85885842Y-112851575D01*
X85885841Y-112851574D01*
X85842216Y-112796997D01*
X85835024Y-112727498D01*
X85866546Y-112665144D01*
X85885836Y-112648428D01*
X86071401Y-112518495D01*
X86238495Y-112351401D01*
X86374035Y-112157830D01*
X86473903Y-111943663D01*
X86535063Y-111715408D01*
X86555659Y-111480000D01*
X86535063Y-111244592D01*
X86473903Y-111016337D01*
X86374035Y-110802171D01*
X86338487Y-110751402D01*
X86238494Y-110608597D01*
X86071402Y-110441506D01*
X86071396Y-110441501D01*
X85885842Y-110311575D01*
X85842217Y-110256998D01*
X85835023Y-110187500D01*
X85866546Y-110125145D01*
X85885842Y-110108425D01*
X85921508Y-110083451D01*
X86071401Y-109978495D01*
X86238495Y-109811401D01*
X86374035Y-109617830D01*
X86473903Y-109403663D01*
X86535063Y-109175408D01*
X86555659Y-108940000D01*
X86553717Y-108917809D01*
X86540770Y-108769821D01*
X86535063Y-108704592D01*
X86473903Y-108476337D01*
X86374035Y-108262171D01*
X86338487Y-108211402D01*
X86238494Y-108068597D01*
X86071402Y-107901506D01*
X86071401Y-107901505D01*
X85885405Y-107771269D01*
X85841781Y-107716692D01*
X85834588Y-107647193D01*
X85866110Y-107584839D01*
X85885405Y-107568119D01*
X86071082Y-107438105D01*
X86238105Y-107271082D01*
X86373600Y-107077578D01*
X86473429Y-106863492D01*
X86473432Y-106863486D01*
X86530636Y-106650000D01*
X85813347Y-106650000D01*
X85746308Y-106630315D01*
X85700553Y-106577511D01*
X85690609Y-106508353D01*
X85694369Y-106491067D01*
X85700000Y-106471888D01*
X85700000Y-106328111D01*
X85694369Y-106308933D01*
X85694370Y-106239064D01*
X85732145Y-106180286D01*
X85795701Y-106151262D01*
X85813347Y-106150000D01*
X86530636Y-106150000D01*
X86530635Y-106149999D01*
X86473432Y-105936513D01*
X86473429Y-105936507D01*
X86373600Y-105722422D01*
X86373599Y-105722420D01*
X86238113Y-105528926D01*
X86238108Y-105528920D01*
X86071082Y-105361894D01*
X85877578Y-105226399D01*
X85663492Y-105126570D01*
X85663486Y-105126567D01*
X85450000Y-105069364D01*
X85450000Y-105787698D01*
X85430315Y-105854737D01*
X85377511Y-105900492D01*
X85308355Y-105910436D01*
X85235766Y-105900000D01*
X85235763Y-105900000D01*
X85164237Y-105900000D01*
X85164233Y-105900000D01*
X85091645Y-105910436D01*
X85022487Y-105900492D01*
X84969684Y-105854736D01*
X84950000Y-105787698D01*
X84950000Y-105069364D01*
X84949999Y-105069364D01*
X84736513Y-105126567D01*
X84736507Y-105126570D01*
X84522422Y-105226399D01*
X84522420Y-105226400D01*
X84328926Y-105361886D01*
X84328920Y-105361891D01*
X84161891Y-105528920D01*
X84161886Y-105528926D01*
X84026400Y-105722420D01*
X84026399Y-105722422D01*
X83926570Y-105936507D01*
X83926567Y-105936513D01*
X83869364Y-106149999D01*
X83869364Y-106150000D01*
X84586653Y-106150000D01*
X84653692Y-106169685D01*
X84699447Y-106222489D01*
X84709391Y-106291647D01*
X84705631Y-106308933D01*
X84700000Y-106328111D01*
X84700000Y-106471888D01*
X84705631Y-106491067D01*
X84705630Y-106560936D01*
X84667855Y-106619714D01*
X84604299Y-106648738D01*
X84586653Y-106650000D01*
X83869364Y-106650000D01*
X83926567Y-106863486D01*
X83926570Y-106863492D01*
X84026399Y-107077578D01*
X84161894Y-107271082D01*
X84328917Y-107438105D01*
X84514595Y-107568119D01*
X84558219Y-107622696D01*
X84565412Y-107692195D01*
X84533890Y-107754549D01*
X84514595Y-107771269D01*
X84328594Y-107901508D01*
X84161505Y-108068597D01*
X84025965Y-108262169D01*
X84025964Y-108262171D01*
X83971720Y-108378498D01*
X83926271Y-108475965D01*
X83926098Y-108476335D01*
X83926094Y-108476344D01*
X83864938Y-108704586D01*
X83864936Y-108704596D01*
X83844341Y-108939999D01*
X83844341Y-108940000D01*
X83864936Y-109175403D01*
X83864938Y-109175413D01*
X83926094Y-109403655D01*
X83926096Y-109403659D01*
X83926097Y-109403663D01*
X84006773Y-109576673D01*
X84025965Y-109617830D01*
X84025967Y-109617834D01*
X84161501Y-109811395D01*
X84161506Y-109811402D01*
X84328597Y-109978493D01*
X84328603Y-109978498D01*
X84514158Y-110108425D01*
X84557783Y-110163002D01*
X84564977Y-110232500D01*
X84533454Y-110294855D01*
X84514158Y-110311575D01*
X84328597Y-110441505D01*
X84161505Y-110608597D01*
X84025965Y-110802169D01*
X84025964Y-110802171D01*
X83926098Y-111016335D01*
X83926094Y-111016344D01*
X83864938Y-111244586D01*
X83864936Y-111244596D01*
X83844341Y-111479999D01*
X83844341Y-111480000D01*
X83864936Y-111715403D01*
X83864938Y-111715413D01*
X83926094Y-111943655D01*
X83926096Y-111943659D01*
X83926097Y-111943663D01*
X84025965Y-112157829D01*
X84025965Y-112157830D01*
X84025967Y-112157834D01*
X84161501Y-112351395D01*
X84161506Y-112351402D01*
X84328597Y-112518493D01*
X84328603Y-112518498D01*
X84514158Y-112648425D01*
X84557783Y-112703002D01*
X84564977Y-112772500D01*
X84533454Y-112834855D01*
X84514158Y-112851575D01*
X84328597Y-112981505D01*
X84161505Y-113148597D01*
X84025965Y-113342169D01*
X84025964Y-113342171D01*
X83926098Y-113556335D01*
X83926094Y-113556344D01*
X83864938Y-113784586D01*
X83864936Y-113784596D01*
X83844341Y-114019999D01*
X83844341Y-114020000D01*
X83864936Y-114255403D01*
X83864938Y-114255413D01*
X83926094Y-114483655D01*
X83926096Y-114483659D01*
X83926097Y-114483663D01*
X83966443Y-114570184D01*
X84025965Y-114697830D01*
X84025967Y-114697834D01*
X84161501Y-114891395D01*
X84161506Y-114891402D01*
X84328597Y-115058493D01*
X84328603Y-115058498D01*
X84514158Y-115188425D01*
X84557783Y-115243002D01*
X84564977Y-115312500D01*
X84533454Y-115374855D01*
X84514158Y-115391575D01*
X84328597Y-115521505D01*
X84161505Y-115688597D01*
X84025965Y-115882169D01*
X84025964Y-115882171D01*
X83926098Y-116096335D01*
X83926094Y-116096344D01*
X83864938Y-116324586D01*
X83864936Y-116324596D01*
X83844341Y-116559999D01*
X83844341Y-116560000D01*
X83864936Y-116795403D01*
X83864938Y-116795413D01*
X83926094Y-117023655D01*
X83926096Y-117023659D01*
X83926097Y-117023663D01*
X84025937Y-117237770D01*
X84025965Y-117237830D01*
X84025967Y-117237834D01*
X84161501Y-117431395D01*
X84161506Y-117431402D01*
X84328597Y-117598493D01*
X84328603Y-117598498D01*
X84514158Y-117728425D01*
X84557783Y-117783002D01*
X84564977Y-117852500D01*
X84533454Y-117914855D01*
X84514158Y-117931575D01*
X84328597Y-118061505D01*
X84161505Y-118228597D01*
X84025965Y-118422169D01*
X84025964Y-118422171D01*
X83926098Y-118636335D01*
X83926094Y-118636344D01*
X83864938Y-118864586D01*
X83864936Y-118864596D01*
X83844341Y-119099999D01*
X83844341Y-119100000D01*
X83864936Y-119335403D01*
X83864938Y-119335413D01*
X83926094Y-119563655D01*
X83926096Y-119563659D01*
X83926097Y-119563663D01*
X84001071Y-119724445D01*
X84025965Y-119777830D01*
X84025967Y-119777834D01*
X84161501Y-119971395D01*
X84161506Y-119971402D01*
X84328597Y-120138493D01*
X84328603Y-120138498D01*
X84514158Y-120268425D01*
X84557783Y-120323002D01*
X84564977Y-120392500D01*
X84533454Y-120454855D01*
X84514158Y-120471575D01*
X84328597Y-120601505D01*
X84161505Y-120768597D01*
X84025965Y-120962169D01*
X84025964Y-120962171D01*
X83926098Y-121176335D01*
X83926094Y-121176344D01*
X83864938Y-121404586D01*
X83864936Y-121404596D01*
X83844341Y-121639999D01*
X83844341Y-121640000D01*
X83864936Y-121875403D01*
X83864938Y-121875413D01*
X83926094Y-122103655D01*
X83926096Y-122103659D01*
X83926097Y-122103663D01*
X83982655Y-122224952D01*
X84025965Y-122317830D01*
X84025967Y-122317834D01*
X84161501Y-122511395D01*
X84161506Y-122511402D01*
X84328597Y-122678493D01*
X84328603Y-122678498D01*
X84514158Y-122808425D01*
X84557783Y-122863002D01*
X84564977Y-122932500D01*
X84533454Y-122994855D01*
X84514158Y-123011575D01*
X84328597Y-123141505D01*
X84161505Y-123308597D01*
X84025965Y-123502169D01*
X84025964Y-123502171D01*
X83926098Y-123716335D01*
X83926094Y-123716344D01*
X83864938Y-123944586D01*
X83864936Y-123944596D01*
X83844341Y-124179999D01*
X83844341Y-124180000D01*
X83864936Y-124415403D01*
X83864938Y-124415413D01*
X83926094Y-124643655D01*
X83926096Y-124643659D01*
X83926097Y-124643663D01*
X84025964Y-124857829D01*
X84025965Y-124857830D01*
X84025967Y-124857834D01*
X84161501Y-125051395D01*
X84161506Y-125051402D01*
X84328597Y-125218493D01*
X84328603Y-125218498D01*
X84514158Y-125348425D01*
X84557783Y-125403002D01*
X84564977Y-125472500D01*
X84533454Y-125534855D01*
X84514158Y-125551575D01*
X84328597Y-125681505D01*
X84161505Y-125848597D01*
X84025965Y-126042169D01*
X84025964Y-126042171D01*
X83926098Y-126256335D01*
X83926094Y-126256344D01*
X83864938Y-126484586D01*
X83864936Y-126484596D01*
X83844341Y-126719999D01*
X83844341Y-126720000D01*
X83864936Y-126955403D01*
X83864938Y-126955413D01*
X83926094Y-127183655D01*
X83926096Y-127183659D01*
X83926097Y-127183663D01*
X84021274Y-127387770D01*
X84025965Y-127397830D01*
X84025967Y-127397834D01*
X84134281Y-127552521D01*
X84161501Y-127591396D01*
X84161506Y-127591402D01*
X84283430Y-127713326D01*
X84316915Y-127774649D01*
X84311931Y-127844341D01*
X84270059Y-127900274D01*
X84239083Y-127917189D01*
X84107669Y-127966203D01*
X84107664Y-127966206D01*
X83992455Y-128052452D01*
X83992452Y-128052455D01*
X83906206Y-128167664D01*
X83906202Y-128167672D01*
X83898336Y-128188761D01*
X83856463Y-128244694D01*
X83790998Y-128269109D01*
X83722726Y-128254256D01*
X83694474Y-128233106D01*
X82936819Y-127475451D01*
X82903334Y-127414128D01*
X82900500Y-127387770D01*
X82900500Y-84504239D01*
X82920185Y-84437200D01*
X82972989Y-84391445D01*
X83042147Y-84381501D01*
X83105703Y-84410526D01*
X83112185Y-84416561D01*
X83117818Y-84422194D01*
X83232906Y-84508350D01*
X83232913Y-84508354D01*
X83367620Y-84558596D01*
X83367627Y-84558598D01*
X83427155Y-84564999D01*
X83427172Y-84565000D01*
X84150000Y-84565000D01*
X84150000Y-83752301D01*
X84169685Y-83685262D01*
X84222489Y-83639507D01*
X84291647Y-83629563D01*
X84364237Y-83640000D01*
X84364238Y-83640000D01*
X84435762Y-83640000D01*
X84435763Y-83640000D01*
X84508352Y-83629563D01*
X84577510Y-83639507D01*
X84630314Y-83685261D01*
X84649999Y-83752301D01*
X84649999Y-84564999D01*
X84650000Y-84565000D01*
X85372828Y-84565000D01*
X85372844Y-84564999D01*
X85432372Y-84558598D01*
X85432379Y-84558596D01*
X85567086Y-84508354D01*
X85567093Y-84508350D01*
X85682187Y-84422190D01*
X85682190Y-84422187D01*
X85768350Y-84307093D01*
X85768354Y-84307086D01*
X85818596Y-84172379D01*
X85818598Y-84172372D01*
X85824999Y-84112844D01*
X85825000Y-84112827D01*
X85825000Y-83390000D01*
X85013347Y-83390000D01*
X84946308Y-83370315D01*
X84900553Y-83317511D01*
X84890609Y-83248353D01*
X84894369Y-83231067D01*
X84900000Y-83211888D01*
X84900000Y-83068111D01*
X84894369Y-83048933D01*
X84894370Y-82979064D01*
X84932145Y-82920286D01*
X84995701Y-82891262D01*
X85013347Y-82890000D01*
X85825000Y-82890000D01*
X85825000Y-82167172D01*
X85824999Y-82167155D01*
X85818598Y-82107627D01*
X85818596Y-82107620D01*
X85768354Y-81972913D01*
X85768350Y-81972906D01*
X85682190Y-81857812D01*
X85682187Y-81857809D01*
X85567093Y-81771649D01*
X85567086Y-81771645D01*
X85510545Y-81750557D01*
X85454611Y-81708686D01*
X85430194Y-81643222D01*
X85445046Y-81574949D01*
X85462644Y-81550397D01*
X85528775Y-81478561D01*
X85575737Y-81406679D01*
X85628884Y-81361322D01*
X85679547Y-81350500D01*
X89736295Y-81350500D01*
X89754265Y-81351809D01*
X89778023Y-81355289D01*
X89830068Y-81350735D01*
X89835470Y-81350500D01*
X89843704Y-81350500D01*
X89843709Y-81350500D01*
X89855327Y-81349141D01*
X89876276Y-81346693D01*
X89889028Y-81345577D01*
X89952797Y-81339999D01*
X89952805Y-81339996D01*
X89959866Y-81338539D01*
X89959878Y-81338598D01*
X89967243Y-81336965D01*
X89967229Y-81336906D01*
X89974246Y-81335241D01*
X89974255Y-81335241D01*
X90046423Y-81308974D01*
X90119334Y-81284814D01*
X90119343Y-81284807D01*
X90125882Y-81281760D01*
X90125908Y-81281816D01*
X90132690Y-81278532D01*
X90132663Y-81278478D01*
X90139106Y-81275240D01*
X90139117Y-81275237D01*
X90203283Y-81233034D01*
X90268656Y-81192712D01*
X90268662Y-81192705D01*
X90274325Y-81188229D01*
X90274362Y-81188277D01*
X90280195Y-81183525D01*
X90280156Y-81183478D01*
X90284881Y-81179513D01*
X90285400Y-81179285D01*
X90287067Y-81177928D01*
X90291739Y-81174856D01*
X90292584Y-81176141D01*
X90348889Y-81151498D01*
X90364590Y-81150500D01*
X98336295Y-81150500D01*
X98354265Y-81151809D01*
X98378023Y-81155289D01*
X98430068Y-81150735D01*
X98435470Y-81150500D01*
X98443704Y-81150500D01*
X98443709Y-81150500D01*
X98455327Y-81149141D01*
X98476276Y-81146693D01*
X98489028Y-81145577D01*
X98552797Y-81139999D01*
X98552805Y-81139996D01*
X98559866Y-81138539D01*
X98559878Y-81138598D01*
X98567243Y-81136965D01*
X98567229Y-81136906D01*
X98574246Y-81135241D01*
X98574255Y-81135241D01*
X98646423Y-81108974D01*
X98719334Y-81084814D01*
X98719343Y-81084807D01*
X98725882Y-81081760D01*
X98725908Y-81081816D01*
X98732690Y-81078532D01*
X98732663Y-81078478D01*
X98739106Y-81075240D01*
X98739117Y-81075237D01*
X98803283Y-81033034D01*
X98868656Y-80992712D01*
X98868662Y-80992705D01*
X98874325Y-80988229D01*
X98874362Y-80988277D01*
X98880204Y-80983518D01*
X98880164Y-80983471D01*
X98885691Y-80978832D01*
X98885696Y-80978830D01*
X98938386Y-80922981D01*
X103474547Y-76386819D01*
X103535871Y-76353334D01*
X103562229Y-76350500D01*
X104688769Y-76350500D01*
X104755808Y-76370185D01*
X104801563Y-76422989D01*
X104811507Y-76492147D01*
X104782482Y-76555703D01*
X104776450Y-76562181D01*
X102914358Y-78424272D01*
X102900729Y-78436051D01*
X102881468Y-78450390D01*
X102847898Y-78490397D01*
X102844253Y-78494376D01*
X102838409Y-78500222D01*
X102818059Y-78525959D01*
X102768695Y-78584789D01*
X102764729Y-78590819D01*
X102764682Y-78590788D01*
X102760630Y-78597147D01*
X102760679Y-78597177D01*
X102756889Y-78603321D01*
X102724424Y-78672941D01*
X102689960Y-78741566D01*
X102687488Y-78748357D01*
X102687432Y-78748336D01*
X102684960Y-78755450D01*
X102685015Y-78755469D01*
X102682742Y-78762327D01*
X102674974Y-78799946D01*
X102667207Y-78837565D01*
X102654780Y-78890000D01*
X102649498Y-78912286D01*
X102648661Y-78919454D01*
X102648601Y-78919447D01*
X102647835Y-78926945D01*
X102647895Y-78926951D01*
X102647265Y-78934140D01*
X102649500Y-79010916D01*
X102649500Y-83936294D01*
X102648191Y-83954263D01*
X102644710Y-83978025D01*
X102649264Y-84030064D01*
X102649500Y-84035470D01*
X102649500Y-84043709D01*
X102653306Y-84076274D01*
X102660000Y-84152791D01*
X102661461Y-84159867D01*
X102661403Y-84159878D01*
X102663034Y-84167237D01*
X102663092Y-84167224D01*
X102664757Y-84174250D01*
X102691025Y-84246424D01*
X102715185Y-84319331D01*
X102718236Y-84325874D01*
X102718182Y-84325898D01*
X102721470Y-84332688D01*
X102721521Y-84332663D01*
X102724761Y-84339113D01*
X102724762Y-84339114D01*
X102724763Y-84339117D01*
X102752639Y-84381501D01*
X102766965Y-84403283D01*
X102807287Y-84468655D01*
X102811766Y-84474319D01*
X102811719Y-84474356D01*
X102816482Y-84480202D01*
X102816528Y-84480164D01*
X102821173Y-84485700D01*
X102877018Y-84538386D01*
X118544267Y-100205634D01*
X118556048Y-100219266D01*
X118570390Y-100238530D01*
X118610420Y-100272119D01*
X118614392Y-100275759D01*
X118620223Y-100281590D01*
X118620222Y-100281590D01*
X118645944Y-100301927D01*
X118704786Y-100351302D01*
X118704794Y-100351306D01*
X118710824Y-100355273D01*
X118710790Y-100355323D01*
X118717137Y-100359366D01*
X118717169Y-100359316D01*
X118723318Y-100363108D01*
X118723320Y-100363109D01*
X118723323Y-100363111D01*
X118792930Y-100395569D01*
X118861567Y-100430040D01*
X118861576Y-100430042D01*
X118868355Y-100432510D01*
X118868334Y-100432567D01*
X118875451Y-100435040D01*
X118875470Y-100434984D01*
X118882330Y-100437257D01*
X118957532Y-100452784D01*
X119032279Y-100470500D01*
X119032288Y-100470500D01*
X119039452Y-100471338D01*
X119039445Y-100471397D01*
X119046946Y-100472163D01*
X119046952Y-100472104D01*
X119054140Y-100472733D01*
X119054143Y-100472732D01*
X119054144Y-100472733D01*
X119130898Y-100470500D01*
X140432299Y-100470500D01*
X140499338Y-100490185D01*
X140533873Y-100523376D01*
X140581505Y-100591401D01*
X140748597Y-100758493D01*
X140748603Y-100758498D01*
X140934158Y-100888425D01*
X140977783Y-100943002D01*
X140984977Y-101012500D01*
X140953454Y-101074855D01*
X140934158Y-101091575D01*
X140748597Y-101221505D01*
X140581505Y-101388597D01*
X140445965Y-101582169D01*
X140445964Y-101582171D01*
X140346098Y-101796335D01*
X140346094Y-101796344D01*
X140284938Y-102024586D01*
X140284936Y-102024596D01*
X140264341Y-102259999D01*
X140264341Y-102260000D01*
X140284936Y-102495403D01*
X140284938Y-102495413D01*
X140346094Y-102723655D01*
X140346096Y-102723659D01*
X140346097Y-102723663D01*
X140426791Y-102896711D01*
X140445965Y-102937830D01*
X140445967Y-102937834D01*
X140508673Y-103027386D01*
X140581501Y-103131396D01*
X140581506Y-103131402D01*
X140703818Y-103253714D01*
X140737303Y-103315037D01*
X140732319Y-103384729D01*
X140690447Y-103440662D01*
X140659471Y-103457577D01*
X140527912Y-103506646D01*
X140527906Y-103506649D01*
X140412812Y-103592809D01*
X140412809Y-103592812D01*
X140326649Y-103707906D01*
X140326645Y-103707913D01*
X140276403Y-103842620D01*
X140276401Y-103842627D01*
X140270000Y-103902155D01*
X140270000Y-104550000D01*
X140996231Y-104550000D01*
X141063270Y-104569685D01*
X141109025Y-104622489D01*
X141118969Y-104691647D01*
X141115208Y-104708936D01*
X141110000Y-104726672D01*
X141110000Y-104873327D01*
X141115208Y-104891064D01*
X141115208Y-104960934D01*
X141077434Y-105019712D01*
X141013879Y-105048738D01*
X140996231Y-105050000D01*
X140270000Y-105050000D01*
X140270000Y-105697844D01*
X140276401Y-105757372D01*
X140276403Y-105757379D01*
X140326645Y-105892086D01*
X140326649Y-105892093D01*
X140412809Y-106007187D01*
X140412812Y-106007190D01*
X140527906Y-106093350D01*
X140527913Y-106093354D01*
X140659470Y-106142421D01*
X140715403Y-106184292D01*
X140739821Y-106249756D01*
X140724970Y-106318029D01*
X140703819Y-106346284D01*
X140581503Y-106468600D01*
X140445965Y-106662169D01*
X140445964Y-106662171D01*
X140346098Y-106876335D01*
X140346094Y-106876344D01*
X140284938Y-107104586D01*
X140284936Y-107104596D01*
X140264341Y-107339999D01*
X140264341Y-107340000D01*
X140284936Y-107575403D01*
X140284938Y-107575413D01*
X140346094Y-107803655D01*
X140346096Y-107803659D01*
X140346097Y-107803663D01*
X140388889Y-107895430D01*
X140445965Y-108017830D01*
X140445967Y-108017834D01*
X140581501Y-108211395D01*
X140581506Y-108211402D01*
X140748597Y-108378493D01*
X140748603Y-108378498D01*
X140934158Y-108508425D01*
X140977783Y-108563002D01*
X140984977Y-108632500D01*
X140953454Y-108694855D01*
X140934158Y-108711575D01*
X140748597Y-108841505D01*
X140581505Y-109008597D01*
X140445965Y-109202169D01*
X140445964Y-109202171D01*
X140346098Y-109416335D01*
X140346094Y-109416344D01*
X140284938Y-109644586D01*
X140284936Y-109644596D01*
X140264341Y-109879999D01*
X140264341Y-109880000D01*
X140284936Y-110115403D01*
X140284938Y-110115413D01*
X140346094Y-110343655D01*
X140346096Y-110343659D01*
X140346097Y-110343663D01*
X140395683Y-110450000D01*
X140445965Y-110557830D01*
X140445967Y-110557834D01*
X140545168Y-110699507D01*
X140581505Y-110751401D01*
X140748599Y-110918495D01*
X140843665Y-110985061D01*
X140942165Y-111054032D01*
X140942167Y-111054033D01*
X140942170Y-111054035D01*
X141156337Y-111153903D01*
X141384592Y-111215063D01*
X141572918Y-111231539D01*
X141619999Y-111235659D01*
X141620000Y-111235659D01*
X141620001Y-111235659D01*
X141659234Y-111232226D01*
X141855408Y-111215063D01*
X142083663Y-111153903D01*
X142297830Y-111054035D01*
X142491401Y-110918495D01*
X142658495Y-110751401D01*
X142794035Y-110557830D01*
X142893903Y-110343663D01*
X142955063Y-110115408D01*
X142975659Y-109880000D01*
X142955536Y-109650000D01*
X146614341Y-109650000D01*
X146634936Y-109885403D01*
X146634938Y-109885413D01*
X146696094Y-110113655D01*
X146696096Y-110113659D01*
X146696097Y-110113663D01*
X146785769Y-110305965D01*
X146795965Y-110327830D01*
X146795967Y-110327834D01*
X146860303Y-110419714D01*
X146931505Y-110521401D01*
X147098599Y-110688495D01*
X147115030Y-110700000D01*
X147292165Y-110824032D01*
X147292167Y-110824033D01*
X147292170Y-110824035D01*
X147506337Y-110923903D01*
X147734592Y-110985063D01*
X147905319Y-111000000D01*
X147969999Y-111005659D01*
X147970000Y-111005659D01*
X147970001Y-111005659D01*
X148034681Y-111000000D01*
X148205408Y-110985063D01*
X148433663Y-110923903D01*
X148647830Y-110824035D01*
X148841401Y-110688495D01*
X148963717Y-110566178D01*
X149025036Y-110532696D01*
X149094728Y-110537680D01*
X149150662Y-110579551D01*
X149167577Y-110610528D01*
X149216646Y-110742088D01*
X149216649Y-110742093D01*
X149302809Y-110857187D01*
X149302812Y-110857190D01*
X149417906Y-110943350D01*
X149417913Y-110943354D01*
X149552620Y-110993596D01*
X149552627Y-110993598D01*
X149612155Y-110999999D01*
X149612172Y-111000000D01*
X150260000Y-111000000D01*
X150260000Y-110272403D01*
X150279685Y-110205364D01*
X150332489Y-110159609D01*
X150401646Y-110149665D01*
X150473527Y-110160000D01*
X150473530Y-110160000D01*
X150546470Y-110160000D01*
X150546473Y-110160000D01*
X150618353Y-110149665D01*
X150687512Y-110159609D01*
X150740316Y-110205364D01*
X150760000Y-110272403D01*
X150760000Y-111000000D01*
X151407828Y-111000000D01*
X151407844Y-110999999D01*
X151467372Y-110993598D01*
X151467379Y-110993596D01*
X151602086Y-110943354D01*
X151602093Y-110943350D01*
X151717187Y-110857190D01*
X151717190Y-110857187D01*
X151803350Y-110742093D01*
X151803354Y-110742086D01*
X151852422Y-110610529D01*
X151894293Y-110554595D01*
X151959757Y-110530178D01*
X152028030Y-110545030D01*
X152056285Y-110566181D01*
X152178599Y-110688495D01*
X152195030Y-110700000D01*
X152372165Y-110824032D01*
X152372167Y-110824033D01*
X152372170Y-110824035D01*
X152586337Y-110923903D01*
X152814592Y-110985063D01*
X152985319Y-111000000D01*
X153049999Y-111005659D01*
X153050000Y-111005659D01*
X153050001Y-111005659D01*
X153114681Y-111000000D01*
X153285408Y-110985063D01*
X153513663Y-110923903D01*
X153727830Y-110824035D01*
X153921401Y-110688495D01*
X154088495Y-110521401D01*
X154224035Y-110327830D01*
X154323903Y-110113663D01*
X154385063Y-109885408D01*
X154405659Y-109650000D01*
X154385063Y-109414592D01*
X154323903Y-109186337D01*
X154224035Y-108972171D01*
X154222451Y-108969908D01*
X154088494Y-108778597D01*
X153921402Y-108611506D01*
X153921395Y-108611501D01*
X153919251Y-108610000D01*
X153817228Y-108538562D01*
X153727834Y-108475967D01*
X153727830Y-108475965D01*
X153656727Y-108442809D01*
X153513663Y-108376097D01*
X153513659Y-108376096D01*
X153513655Y-108376094D01*
X153285413Y-108314938D01*
X153285403Y-108314936D01*
X153050001Y-108294341D01*
X153049999Y-108294341D01*
X152814596Y-108314936D01*
X152814586Y-108314938D01*
X152586344Y-108376094D01*
X152586335Y-108376098D01*
X152372171Y-108475964D01*
X152372169Y-108475965D01*
X152178600Y-108611503D01*
X152056284Y-108733819D01*
X151994961Y-108767303D01*
X151925269Y-108762319D01*
X151869336Y-108720447D01*
X151852421Y-108689470D01*
X151803354Y-108557913D01*
X151803350Y-108557906D01*
X151717190Y-108442812D01*
X151717187Y-108442809D01*
X151602093Y-108356649D01*
X151602086Y-108356645D01*
X151467379Y-108306403D01*
X151467372Y-108306401D01*
X151407844Y-108300000D01*
X150760000Y-108300000D01*
X150760000Y-109027596D01*
X150740315Y-109094635D01*
X150687511Y-109140390D01*
X150618355Y-109150334D01*
X150546476Y-109140000D01*
X150546473Y-109140000D01*
X150473527Y-109140000D01*
X150473523Y-109140000D01*
X150401645Y-109150334D01*
X150332487Y-109140390D01*
X150279684Y-109094634D01*
X150260000Y-109027596D01*
X150260000Y-108300000D01*
X149612155Y-108300000D01*
X149552627Y-108306401D01*
X149552620Y-108306403D01*
X149417913Y-108356645D01*
X149417906Y-108356649D01*
X149302812Y-108442809D01*
X149302809Y-108442812D01*
X149216649Y-108557906D01*
X149216645Y-108557913D01*
X149167578Y-108689470D01*
X149125707Y-108745404D01*
X149060242Y-108769821D01*
X148991969Y-108754969D01*
X148963715Y-108733819D01*
X148902942Y-108673046D01*
X148841401Y-108611505D01*
X148841397Y-108611502D01*
X148841396Y-108611501D01*
X148647834Y-108475967D01*
X148647830Y-108475965D01*
X148576727Y-108442809D01*
X148433663Y-108376097D01*
X148433659Y-108376096D01*
X148433655Y-108376094D01*
X148205413Y-108314938D01*
X148205403Y-108314936D01*
X147970001Y-108294341D01*
X147969999Y-108294341D01*
X147734596Y-108314936D01*
X147734586Y-108314938D01*
X147506344Y-108376094D01*
X147506335Y-108376098D01*
X147292171Y-108475964D01*
X147292169Y-108475965D01*
X147098597Y-108611505D01*
X146931505Y-108778597D01*
X146795965Y-108972169D01*
X146795964Y-108972171D01*
X146696098Y-109186335D01*
X146696094Y-109186344D01*
X146634938Y-109414586D01*
X146634936Y-109414596D01*
X146614341Y-109649999D01*
X146614341Y-109650000D01*
X142955536Y-109650000D01*
X142955063Y-109644592D01*
X142893903Y-109416337D01*
X142794035Y-109202171D01*
X142775296Y-109175408D01*
X142658494Y-109008597D01*
X142491402Y-108841506D01*
X142491396Y-108841501D01*
X142305842Y-108711575D01*
X142262217Y-108656998D01*
X142255023Y-108587500D01*
X142286546Y-108525145D01*
X142305842Y-108508425D01*
X142352197Y-108475967D01*
X142491401Y-108378495D01*
X142658495Y-108211401D01*
X142794035Y-108017830D01*
X142893903Y-107803663D01*
X142955063Y-107575408D01*
X142975659Y-107340000D01*
X142955063Y-107104592D01*
X142900243Y-106900000D01*
X142893905Y-106876344D01*
X142893904Y-106876343D01*
X142893903Y-106876337D01*
X142794035Y-106662171D01*
X142784629Y-106648738D01*
X142658496Y-106468600D01*
X142652426Y-106462530D01*
X142536179Y-106346283D01*
X142502696Y-106284963D01*
X142507680Y-106215271D01*
X142549551Y-106159337D01*
X142580529Y-106142422D01*
X142712086Y-106093354D01*
X142712093Y-106093350D01*
X142827187Y-106007190D01*
X142827190Y-106007187D01*
X142913350Y-105892093D01*
X142913354Y-105892086D01*
X142963596Y-105757379D01*
X142963598Y-105757372D01*
X142969999Y-105697844D01*
X142970000Y-105697827D01*
X142970000Y-105050000D01*
X142243769Y-105050000D01*
X142176730Y-105030315D01*
X142130975Y-104977511D01*
X142121031Y-104908353D01*
X142124792Y-104891064D01*
X142130000Y-104873327D01*
X142130000Y-104726672D01*
X142124792Y-104708936D01*
X142124792Y-104639066D01*
X142162566Y-104580288D01*
X142226121Y-104551262D01*
X142243769Y-104550000D01*
X142970000Y-104550000D01*
X142970000Y-103902172D01*
X142969999Y-103902155D01*
X142963598Y-103842627D01*
X142963596Y-103842620D01*
X142913354Y-103707913D01*
X142913350Y-103707906D01*
X142827190Y-103592812D01*
X142827187Y-103592809D01*
X142712093Y-103506649D01*
X142712088Y-103506646D01*
X142580528Y-103457577D01*
X142524595Y-103415705D01*
X142500178Y-103350241D01*
X142515030Y-103281968D01*
X142536175Y-103253720D01*
X142658495Y-103131401D01*
X142794035Y-102937830D01*
X142893903Y-102723663D01*
X142955063Y-102495408D01*
X142975659Y-102260000D01*
X142955063Y-102024592D01*
X142893903Y-101796337D01*
X142794035Y-101582171D01*
X142658495Y-101388599D01*
X142658494Y-101388597D01*
X142491402Y-101221506D01*
X142491401Y-101221505D01*
X142305842Y-101091575D01*
X142305841Y-101091574D01*
X142262216Y-101036997D01*
X142255024Y-100967498D01*
X142286546Y-100905144D01*
X142305836Y-100888428D01*
X142491401Y-100758495D01*
X142658495Y-100591401D01*
X142794035Y-100397830D01*
X142893903Y-100183663D01*
X142955063Y-99955408D01*
X142975659Y-99720000D01*
X142955063Y-99484592D01*
X142893903Y-99256337D01*
X142794035Y-99042171D01*
X142785384Y-99029815D01*
X142658494Y-98848597D01*
X142491402Y-98681506D01*
X142491396Y-98681501D01*
X142305842Y-98551575D01*
X142262217Y-98496998D01*
X142255023Y-98427500D01*
X142286546Y-98365145D01*
X142305842Y-98348425D01*
X142341453Y-98323490D01*
X142491401Y-98218495D01*
X142658495Y-98051401D01*
X142794035Y-97857830D01*
X142893903Y-97643663D01*
X142955063Y-97415408D01*
X142975659Y-97180000D01*
X142955063Y-96944592D01*
X142893903Y-96716337D01*
X142794035Y-96502171D01*
X142745167Y-96432379D01*
X142658494Y-96308597D01*
X142491402Y-96141506D01*
X142491401Y-96141505D01*
X142305842Y-96011575D01*
X142305841Y-96011574D01*
X142262216Y-95956997D01*
X142255024Y-95887498D01*
X142286546Y-95825144D01*
X142305836Y-95808428D01*
X142491401Y-95678495D01*
X142658495Y-95511401D01*
X142794035Y-95317830D01*
X142893903Y-95103663D01*
X142955063Y-94875408D01*
X142975659Y-94640000D01*
X142955063Y-94404592D01*
X142893903Y-94176337D01*
X142794035Y-93962171D01*
X142743150Y-93889500D01*
X142658496Y-93768600D01*
X142628454Y-93738558D01*
X142536179Y-93646283D01*
X142502696Y-93584963D01*
X142507680Y-93515271D01*
X142549551Y-93459337D01*
X142580529Y-93442422D01*
X142712086Y-93393354D01*
X142712093Y-93393350D01*
X142827187Y-93307190D01*
X142827190Y-93307187D01*
X142913350Y-93192093D01*
X142913354Y-93192086D01*
X142963596Y-93057379D01*
X142963598Y-93057372D01*
X142969999Y-92997844D01*
X142970000Y-92997827D01*
X142970000Y-92350000D01*
X142243769Y-92350000D01*
X142176730Y-92330315D01*
X142130975Y-92277511D01*
X142121031Y-92208353D01*
X142124792Y-92191064D01*
X142130000Y-92173327D01*
X142130000Y-92026672D01*
X142124792Y-92008936D01*
X142124792Y-91939066D01*
X142162566Y-91880288D01*
X142226121Y-91851262D01*
X142243769Y-91850000D01*
X142970000Y-91850000D01*
X142970000Y-91202172D01*
X142969999Y-91202155D01*
X142963598Y-91142627D01*
X142963596Y-91142620D01*
X142913354Y-91007913D01*
X142913350Y-91007906D01*
X142827190Y-90892812D01*
X142827187Y-90892809D01*
X142712093Y-90806649D01*
X142712088Y-90806646D01*
X142580528Y-90757577D01*
X142524595Y-90715705D01*
X142500178Y-90650241D01*
X142515030Y-90581968D01*
X142536175Y-90553720D01*
X142658495Y-90431401D01*
X142794035Y-90237830D01*
X142893903Y-90023663D01*
X142955063Y-89795408D01*
X142975659Y-89560000D01*
X142955063Y-89324592D01*
X142893903Y-89096337D01*
X142794035Y-88882171D01*
X142771844Y-88850478D01*
X142658494Y-88688597D01*
X142491402Y-88521506D01*
X142491396Y-88521501D01*
X142305842Y-88391575D01*
X142262217Y-88336998D01*
X142255023Y-88267500D01*
X142286546Y-88205145D01*
X142305842Y-88188425D01*
X142328026Y-88172891D01*
X142491401Y-88058495D01*
X142658495Y-87891401D01*
X142794035Y-87697830D01*
X142893903Y-87483663D01*
X142955063Y-87255408D01*
X142975659Y-87020000D01*
X142955063Y-86784592D01*
X142893903Y-86556337D01*
X142794035Y-86342171D01*
X142743151Y-86269500D01*
X142658494Y-86148597D01*
X142491402Y-85981506D01*
X142491401Y-85981505D01*
X142305842Y-85851575D01*
X142305841Y-85851574D01*
X142262216Y-85796997D01*
X142255024Y-85727498D01*
X142286546Y-85665144D01*
X142305836Y-85648428D01*
X142491401Y-85518495D01*
X142658495Y-85351401D01*
X142794035Y-85157830D01*
X142893903Y-84943663D01*
X142955063Y-84715408D01*
X142975659Y-84480000D01*
X142955063Y-84244592D01*
X142893903Y-84016337D01*
X142794035Y-83802171D01*
X142787741Y-83793181D01*
X142658494Y-83608597D01*
X142491402Y-83441506D01*
X142491396Y-83441501D01*
X142305842Y-83311575D01*
X142262217Y-83256998D01*
X142255023Y-83187500D01*
X142286546Y-83125145D01*
X142305842Y-83108425D01*
X142490588Y-82979064D01*
X142491401Y-82978495D01*
X142658495Y-82811401D01*
X142794035Y-82617830D01*
X142893903Y-82403663D01*
X142955063Y-82175408D01*
X142975659Y-81940000D01*
X142955063Y-81704592D01*
X142893903Y-81476337D01*
X142794035Y-81262171D01*
X142778930Y-81240599D01*
X142658496Y-81068600D01*
X142622930Y-81033034D01*
X142536179Y-80946283D01*
X142502696Y-80884963D01*
X142507680Y-80815271D01*
X142549551Y-80759337D01*
X142580529Y-80742422D01*
X142712086Y-80693354D01*
X142712093Y-80693350D01*
X142827187Y-80607190D01*
X142827190Y-80607187D01*
X142913350Y-80492093D01*
X142913354Y-80492086D01*
X142963596Y-80357379D01*
X142963598Y-80357372D01*
X142969999Y-80297844D01*
X142970000Y-80297827D01*
X142970000Y-79650000D01*
X142243769Y-79650000D01*
X142176730Y-79630315D01*
X142130975Y-79577511D01*
X142121031Y-79508353D01*
X142124792Y-79491064D01*
X142130000Y-79473327D01*
X142130000Y-79326672D01*
X142124792Y-79308936D01*
X142124792Y-79239066D01*
X142162566Y-79180288D01*
X142226121Y-79151262D01*
X142243769Y-79150000D01*
X142970000Y-79150000D01*
X142970000Y-78502172D01*
X142969999Y-78502155D01*
X142963598Y-78442627D01*
X142963596Y-78442620D01*
X142913354Y-78307913D01*
X142913350Y-78307906D01*
X142827190Y-78192812D01*
X142827187Y-78192809D01*
X142712093Y-78106649D01*
X142712088Y-78106646D01*
X142580528Y-78057577D01*
X142524595Y-78015705D01*
X142500178Y-77950241D01*
X142515030Y-77881968D01*
X142536175Y-77853720D01*
X142658495Y-77731401D01*
X142794035Y-77537830D01*
X142893903Y-77323663D01*
X142955063Y-77095408D01*
X142975659Y-76860000D01*
X142955063Y-76624592D01*
X142893903Y-76396337D01*
X142794035Y-76182171D01*
X142749689Y-76118837D01*
X142658494Y-75988597D01*
X142491402Y-75821506D01*
X142491396Y-75821501D01*
X142305842Y-75691575D01*
X142262217Y-75636998D01*
X142255023Y-75567500D01*
X142286546Y-75505145D01*
X142305842Y-75488425D01*
X142385337Y-75432762D01*
X142491401Y-75358495D01*
X142658495Y-75191401D01*
X142794035Y-74997830D01*
X142893903Y-74783663D01*
X142955063Y-74555408D01*
X142975659Y-74320000D01*
X142955063Y-74084592D01*
X142893903Y-73856337D01*
X142794035Y-73642171D01*
X142793582Y-73641523D01*
X142658494Y-73448597D01*
X142491402Y-73281506D01*
X142491396Y-73281501D01*
X142305842Y-73151575D01*
X142262217Y-73096998D01*
X142255023Y-73027500D01*
X142286546Y-72965145D01*
X142305842Y-72948425D01*
X142328026Y-72932891D01*
X142491401Y-72818495D01*
X142658495Y-72651401D01*
X142794035Y-72457830D01*
X142893903Y-72243663D01*
X142955063Y-72015408D01*
X142975659Y-71780000D01*
X142955063Y-71544592D01*
X142893903Y-71316337D01*
X142794035Y-71102171D01*
X142774028Y-71073597D01*
X142658494Y-70908597D01*
X142491402Y-70741506D01*
X142491396Y-70741501D01*
X142305842Y-70611575D01*
X142262217Y-70556998D01*
X142255023Y-70487500D01*
X142286546Y-70425145D01*
X142305842Y-70408425D01*
X142328026Y-70392891D01*
X142491401Y-70278495D01*
X142658495Y-70111401D01*
X142794035Y-69917830D01*
X142893903Y-69703663D01*
X142955063Y-69475408D01*
X142975659Y-69240000D01*
X142955063Y-69004592D01*
X142893903Y-68776337D01*
X142794035Y-68562171D01*
X142785178Y-68549522D01*
X142658496Y-68368600D01*
X142658495Y-68368599D01*
X142536179Y-68246283D01*
X142502696Y-68184963D01*
X142507680Y-68115271D01*
X142549551Y-68059337D01*
X142580529Y-68042422D01*
X142712086Y-67993354D01*
X142712093Y-67993350D01*
X142827187Y-67907190D01*
X142827190Y-67907187D01*
X142913350Y-67792093D01*
X142913354Y-67792086D01*
X142963596Y-67657379D01*
X142963598Y-67657372D01*
X142969999Y-67597844D01*
X142970000Y-67597827D01*
X142970000Y-66950000D01*
X142243769Y-66950000D01*
X142176730Y-66930315D01*
X142130975Y-66877511D01*
X142121031Y-66808353D01*
X142124792Y-66791064D01*
X142130000Y-66773327D01*
X142130000Y-66626672D01*
X142124792Y-66608936D01*
X142124792Y-66539066D01*
X142162566Y-66480288D01*
X142226121Y-66451262D01*
X142243769Y-66450000D01*
X142970000Y-66450000D01*
X142970000Y-65802172D01*
X142969999Y-65802155D01*
X142963598Y-65742627D01*
X142963596Y-65742620D01*
X142913354Y-65607913D01*
X142913350Y-65607906D01*
X142827190Y-65492812D01*
X142827187Y-65492809D01*
X142712093Y-65406649D01*
X142712088Y-65406646D01*
X142580528Y-65357577D01*
X142524595Y-65315705D01*
X142500178Y-65250241D01*
X142515030Y-65181968D01*
X142536175Y-65153720D01*
X142658495Y-65031401D01*
X142794035Y-64837830D01*
X142821000Y-64780003D01*
X146829723Y-64780003D01*
X146831688Y-64802470D01*
X146831862Y-64810660D01*
X146830709Y-64836324D01*
X146830710Y-64836328D01*
X146841641Y-64917031D01*
X146841966Y-64919949D01*
X146848792Y-64997972D01*
X146848795Y-64997987D01*
X146855482Y-65022941D01*
X146857034Y-65030670D01*
X146860924Y-65059381D01*
X146860926Y-65059392D01*
X146885075Y-65133713D01*
X146885997Y-65136825D01*
X146905423Y-65209324D01*
X146905427Y-65209336D01*
X146917736Y-65235732D01*
X146920512Y-65242779D01*
X146930483Y-65273464D01*
X146965970Y-65339411D01*
X146967558Y-65342576D01*
X146997898Y-65407639D01*
X147016288Y-65433903D01*
X147016490Y-65434191D01*
X147020303Y-65440378D01*
X147037146Y-65471678D01*
X147037152Y-65471687D01*
X147081792Y-65527663D01*
X147084106Y-65530758D01*
X147110510Y-65568465D01*
X147123402Y-65586877D01*
X147123405Y-65586880D01*
X147148646Y-65612121D01*
X147153282Y-65617308D01*
X147165602Y-65632757D01*
X147177492Y-65647666D01*
X147228959Y-65692632D01*
X147232008Y-65695483D01*
X147278116Y-65741592D01*
X147278122Y-65741597D01*
X147278123Y-65741598D01*
X147279583Y-65742620D01*
X147310055Y-65763957D01*
X147315290Y-65768057D01*
X147347004Y-65795765D01*
X147347013Y-65795771D01*
X147402849Y-65829131D01*
X147406613Y-65831568D01*
X147457359Y-65867101D01*
X147457364Y-65867104D01*
X147479917Y-65877620D01*
X147495677Y-65884969D01*
X147501271Y-65887935D01*
X147538349Y-65910088D01*
X147540236Y-65911215D01*
X147558828Y-65918192D01*
X147598083Y-65932925D01*
X147602503Y-65934782D01*
X147655670Y-65959575D01*
X147655674Y-65959577D01*
X147686069Y-65967720D01*
X147699677Y-65971366D01*
X147705413Y-65973207D01*
X147720396Y-65978830D01*
X147750976Y-65990307D01*
X147808545Y-66000754D01*
X147813511Y-66001868D01*
X147867023Y-66016207D01*
X147915689Y-66020464D01*
X147921306Y-66021218D01*
X147972453Y-66030500D01*
X148027691Y-66030500D01*
X148033092Y-66030735D01*
X148059362Y-66033034D01*
X148084998Y-66035277D01*
X148085000Y-66035277D01*
X148137992Y-66030640D01*
X148141121Y-66030500D01*
X148141155Y-66030500D01*
X148195172Y-66025638D01*
X148302977Y-66016207D01*
X148303000Y-66016200D01*
X148303475Y-66016117D01*
X148308713Y-66015419D01*
X148309188Y-66015377D01*
X148412997Y-65986726D01*
X148514330Y-65959575D01*
X148514337Y-65959571D01*
X148521254Y-65957053D01*
X148525948Y-65955554D01*
X148526170Y-65955493D01*
X148526181Y-65955487D01*
X148526183Y-65955487D01*
X148620454Y-65910088D01*
X148712639Y-65867102D01*
X148712644Y-65867097D01*
X148717327Y-65864395D01*
X148717400Y-65864522D01*
X148728164Y-65858218D01*
X148728973Y-65857829D01*
X148811156Y-65798118D01*
X148891877Y-65741598D01*
X148892747Y-65740727D01*
X148907550Y-65728084D01*
X148911078Y-65725522D01*
X148979131Y-65654343D01*
X149046598Y-65586877D01*
X149049285Y-65583039D01*
X149061239Y-65568465D01*
X149066629Y-65562828D01*
X149066628Y-65562828D01*
X149066632Y-65562825D01*
X149119164Y-65483241D01*
X149172102Y-65407639D01*
X149175543Y-65400259D01*
X149184432Y-65384364D01*
X149190635Y-65374968D01*
X149226889Y-65290146D01*
X149264575Y-65209330D01*
X149267570Y-65198148D01*
X149273325Y-65181505D01*
X149279103Y-65167988D01*
X149298936Y-65081092D01*
X149321207Y-64997977D01*
X149322887Y-64978766D01*
X149324206Y-64970377D01*
X149327222Y-64957162D01*
X149329191Y-64948537D01*
X149333050Y-64862602D01*
X149340277Y-64780003D01*
X151679723Y-64780003D01*
X151681688Y-64802470D01*
X151681862Y-64810660D01*
X151680709Y-64836324D01*
X151680710Y-64836328D01*
X151691641Y-64917031D01*
X151691966Y-64919949D01*
X151698792Y-64997972D01*
X151698795Y-64997987D01*
X151705482Y-65022941D01*
X151707034Y-65030670D01*
X151710924Y-65059381D01*
X151710926Y-65059392D01*
X151735075Y-65133713D01*
X151735997Y-65136825D01*
X151755423Y-65209324D01*
X151755427Y-65209336D01*
X151767736Y-65235732D01*
X151770512Y-65242779D01*
X151780483Y-65273464D01*
X151815970Y-65339411D01*
X151817558Y-65342576D01*
X151847898Y-65407639D01*
X151866288Y-65433903D01*
X151866490Y-65434191D01*
X151870303Y-65440378D01*
X151887146Y-65471678D01*
X151887152Y-65471687D01*
X151931792Y-65527663D01*
X151934106Y-65530758D01*
X151960510Y-65568465D01*
X151973402Y-65586877D01*
X151973405Y-65586880D01*
X151998646Y-65612121D01*
X152003282Y-65617308D01*
X152015602Y-65632757D01*
X152027492Y-65647666D01*
X152078959Y-65692632D01*
X152082008Y-65695483D01*
X152128116Y-65741592D01*
X152128122Y-65741597D01*
X152128123Y-65741598D01*
X152129583Y-65742620D01*
X152160055Y-65763957D01*
X152165290Y-65768057D01*
X152197004Y-65795765D01*
X152197013Y-65795771D01*
X152252849Y-65829131D01*
X152256613Y-65831568D01*
X152307359Y-65867101D01*
X152307364Y-65867104D01*
X152329917Y-65877620D01*
X152345677Y-65884969D01*
X152351271Y-65887935D01*
X152388349Y-65910088D01*
X152390236Y-65911215D01*
X152408828Y-65918192D01*
X152448083Y-65932925D01*
X152452503Y-65934782D01*
X152505670Y-65959575D01*
X152505674Y-65959577D01*
X152536069Y-65967720D01*
X152549677Y-65971366D01*
X152555413Y-65973207D01*
X152570396Y-65978830D01*
X152600976Y-65990307D01*
X152658545Y-66000754D01*
X152663511Y-66001868D01*
X152717023Y-66016207D01*
X152765689Y-66020464D01*
X152771306Y-66021218D01*
X152822453Y-66030500D01*
X152877691Y-66030500D01*
X152883092Y-66030735D01*
X152909362Y-66033034D01*
X152934998Y-66035277D01*
X152935000Y-66035277D01*
X152987992Y-66030640D01*
X152991121Y-66030500D01*
X152991155Y-66030500D01*
X153045172Y-66025638D01*
X153152977Y-66016207D01*
X153153000Y-66016200D01*
X153153475Y-66016117D01*
X153158713Y-66015419D01*
X153159188Y-66015377D01*
X153262997Y-65986726D01*
X153364330Y-65959575D01*
X153364337Y-65959571D01*
X153371254Y-65957053D01*
X153375948Y-65955554D01*
X153376170Y-65955493D01*
X153376181Y-65955487D01*
X153376183Y-65955487D01*
X153470454Y-65910088D01*
X153470453Y-65910088D01*
X153562639Y-65867102D01*
X153562644Y-65867097D01*
X153567327Y-65864395D01*
X153567400Y-65864522D01*
X153578164Y-65858218D01*
X153578973Y-65857829D01*
X153661156Y-65798118D01*
X153741877Y-65741598D01*
X153742747Y-65740727D01*
X153757550Y-65728084D01*
X153761078Y-65725522D01*
X153829131Y-65654343D01*
X153896598Y-65586877D01*
X153899285Y-65583039D01*
X153911239Y-65568465D01*
X153916629Y-65562828D01*
X153916628Y-65562828D01*
X153916632Y-65562825D01*
X153969164Y-65483241D01*
X154022102Y-65407639D01*
X154025543Y-65400259D01*
X154034432Y-65384364D01*
X154040635Y-65374968D01*
X154076889Y-65290146D01*
X154114575Y-65209330D01*
X154117570Y-65198148D01*
X154123325Y-65181505D01*
X154129103Y-65167988D01*
X154148936Y-65081092D01*
X154171207Y-64997977D01*
X154172887Y-64978766D01*
X154174206Y-64970377D01*
X154177222Y-64957162D01*
X154179191Y-64948537D01*
X154183050Y-64862602D01*
X154190277Y-64780000D01*
X154188310Y-64757528D01*
X154188137Y-64749334D01*
X154189290Y-64723670D01*
X154178353Y-64642939D01*
X154178034Y-64640067D01*
X154171207Y-64562023D01*
X154164515Y-64537053D01*
X154162963Y-64529322D01*
X154159076Y-64500618D01*
X154159075Y-64500616D01*
X154159075Y-64500613D01*
X154134921Y-64426276D01*
X154133998Y-64423161D01*
X154114576Y-64350673D01*
X154114574Y-64350669D01*
X154102266Y-64324274D01*
X154099488Y-64317222D01*
X154089519Y-64286541D01*
X154089517Y-64286537D01*
X154089517Y-64286536D01*
X154076988Y-64263253D01*
X154054027Y-64220583D01*
X154052432Y-64217405D01*
X154037338Y-64185036D01*
X154022102Y-64152362D01*
X154003512Y-64125813D01*
X153999698Y-64119625D01*
X153999359Y-64118995D01*
X153982852Y-64088319D01*
X153938192Y-64032318D01*
X153935896Y-64029247D01*
X153896598Y-63973123D01*
X153871353Y-63947878D01*
X153866715Y-63942689D01*
X153842508Y-63912334D01*
X153834866Y-63905657D01*
X153791039Y-63867366D01*
X153787990Y-63864515D01*
X153741878Y-63818402D01*
X153709940Y-63796039D01*
X153704705Y-63791939D01*
X153684745Y-63774500D01*
X153672996Y-63764235D01*
X153672994Y-63764233D01*
X153672992Y-63764232D01*
X153617149Y-63730868D01*
X153613386Y-63728431D01*
X153562641Y-63692899D01*
X153524333Y-63675035D01*
X153518735Y-63672067D01*
X153479769Y-63648787D01*
X153479767Y-63648786D01*
X153421928Y-63627079D01*
X153417515Y-63625226D01*
X153364330Y-63600425D01*
X153320321Y-63588632D01*
X153314581Y-63586790D01*
X153269025Y-63569692D01*
X153211456Y-63559245D01*
X153206480Y-63558128D01*
X153152977Y-63543793D01*
X153104327Y-63539536D01*
X153098659Y-63538775D01*
X153047551Y-63529500D01*
X153047547Y-63529500D01*
X152992309Y-63529500D01*
X152986907Y-63529264D01*
X152958451Y-63526774D01*
X152935002Y-63524723D01*
X152934997Y-63524723D01*
X152882050Y-63529355D01*
X152878862Y-63529499D01*
X152878851Y-63529500D01*
X152878845Y-63529500D01*
X152832671Y-63533655D01*
X152824826Y-63534361D01*
X152717020Y-63543793D01*
X152716468Y-63543891D01*
X152711275Y-63544581D01*
X152710812Y-63544622D01*
X152710809Y-63544623D01*
X152607002Y-63573273D01*
X152505659Y-63600428D01*
X152498739Y-63602946D01*
X152494050Y-63604444D01*
X152493849Y-63604499D01*
X152493832Y-63604505D01*
X152399528Y-63649919D01*
X152307358Y-63692899D01*
X152302670Y-63695606D01*
X152302598Y-63695481D01*
X152291871Y-63701764D01*
X152291030Y-63702168D01*
X152208831Y-63761889D01*
X152128123Y-63818401D01*
X152127241Y-63819284D01*
X152112461Y-63831906D01*
X152108928Y-63834472D01*
X152108916Y-63834483D01*
X152077477Y-63867366D01*
X152040868Y-63905656D01*
X152021938Y-63924586D01*
X151973403Y-63973120D01*
X151973402Y-63973121D01*
X151970711Y-63976965D01*
X151958773Y-63991521D01*
X151953368Y-63997174D01*
X151947232Y-64006470D01*
X151900828Y-64076768D01*
X151847897Y-64152361D01*
X151847898Y-64152362D01*
X151847891Y-64152374D01*
X151844457Y-64159738D01*
X151835572Y-64175628D01*
X151829362Y-64185035D01*
X151829362Y-64185036D01*
X151793108Y-64269859D01*
X151755425Y-64350669D01*
X151755424Y-64350671D01*
X151752425Y-64361860D01*
X151746681Y-64378475D01*
X151740899Y-64392005D01*
X151740896Y-64392016D01*
X151721063Y-64478907D01*
X151698793Y-64562022D01*
X151698793Y-64562023D01*
X151697112Y-64581226D01*
X151695793Y-64589625D01*
X151690809Y-64611459D01*
X151690809Y-64611463D01*
X151688629Y-64660001D01*
X151686949Y-64697397D01*
X151679723Y-64779996D01*
X151679723Y-64780003D01*
X149340277Y-64780003D01*
X149340277Y-64780000D01*
X149338310Y-64757528D01*
X149338137Y-64749334D01*
X149339290Y-64723670D01*
X149328353Y-64642939D01*
X149328034Y-64640067D01*
X149321207Y-64562023D01*
X149314515Y-64537053D01*
X149312963Y-64529322D01*
X149309076Y-64500618D01*
X149309075Y-64500616D01*
X149309075Y-64500613D01*
X149284921Y-64426276D01*
X149283998Y-64423161D01*
X149264576Y-64350673D01*
X149264574Y-64350669D01*
X149252266Y-64324274D01*
X149249488Y-64317222D01*
X149239519Y-64286541D01*
X149239517Y-64286537D01*
X149239517Y-64286536D01*
X149226988Y-64263253D01*
X149204027Y-64220583D01*
X149202432Y-64217405D01*
X149187338Y-64185036D01*
X149172102Y-64152362D01*
X149153512Y-64125813D01*
X149149698Y-64119625D01*
X149149359Y-64118995D01*
X149132852Y-64088319D01*
X149088192Y-64032318D01*
X149085896Y-64029247D01*
X149046598Y-63973123D01*
X149021353Y-63947878D01*
X149016715Y-63942689D01*
X148992508Y-63912334D01*
X148984866Y-63905657D01*
X148941039Y-63867366D01*
X148937990Y-63864515D01*
X148891878Y-63818402D01*
X148859940Y-63796039D01*
X148854705Y-63791939D01*
X148834745Y-63774500D01*
X148822996Y-63764235D01*
X148822994Y-63764233D01*
X148822992Y-63764232D01*
X148767149Y-63730868D01*
X148763386Y-63728431D01*
X148712641Y-63692899D01*
X148674333Y-63675035D01*
X148668735Y-63672067D01*
X148629769Y-63648787D01*
X148629767Y-63648786D01*
X148571928Y-63627079D01*
X148567515Y-63625226D01*
X148514330Y-63600425D01*
X148470321Y-63588632D01*
X148464581Y-63586790D01*
X148419025Y-63569692D01*
X148361456Y-63559245D01*
X148356480Y-63558128D01*
X148302977Y-63543793D01*
X148254327Y-63539536D01*
X148248659Y-63538775D01*
X148197551Y-63529500D01*
X148197547Y-63529500D01*
X148142309Y-63529500D01*
X148136907Y-63529264D01*
X148108451Y-63526774D01*
X148085002Y-63524723D01*
X148084997Y-63524723D01*
X148032050Y-63529355D01*
X148028862Y-63529499D01*
X148028851Y-63529500D01*
X148028845Y-63529500D01*
X147982671Y-63533655D01*
X147974826Y-63534361D01*
X147867020Y-63543793D01*
X147866468Y-63543891D01*
X147861275Y-63544581D01*
X147860812Y-63544622D01*
X147860809Y-63544623D01*
X147757002Y-63573273D01*
X147655659Y-63600428D01*
X147648739Y-63602946D01*
X147644050Y-63604444D01*
X147643849Y-63604499D01*
X147643832Y-63604505D01*
X147549528Y-63649919D01*
X147457358Y-63692899D01*
X147452670Y-63695606D01*
X147452598Y-63695481D01*
X147441871Y-63701764D01*
X147441030Y-63702168D01*
X147358831Y-63761889D01*
X147278123Y-63818401D01*
X147277241Y-63819284D01*
X147262461Y-63831906D01*
X147258928Y-63834472D01*
X147258916Y-63834483D01*
X147227477Y-63867366D01*
X147190868Y-63905656D01*
X147171938Y-63924586D01*
X147123403Y-63973120D01*
X147123402Y-63973121D01*
X147120711Y-63976965D01*
X147108773Y-63991521D01*
X147103368Y-63997174D01*
X147097232Y-64006470D01*
X147050828Y-64076768D01*
X146997897Y-64152362D01*
X146997898Y-64152362D01*
X146997891Y-64152374D01*
X146994457Y-64159738D01*
X146985572Y-64175628D01*
X146979362Y-64185035D01*
X146979362Y-64185036D01*
X146943108Y-64269859D01*
X146905425Y-64350669D01*
X146905424Y-64350671D01*
X146902425Y-64361860D01*
X146896681Y-64378475D01*
X146890899Y-64392005D01*
X146890896Y-64392016D01*
X146871063Y-64478907D01*
X146848793Y-64562022D01*
X146848793Y-64562023D01*
X146847112Y-64581226D01*
X146845793Y-64589625D01*
X146840809Y-64611459D01*
X146840809Y-64611463D01*
X146838629Y-64660001D01*
X146836949Y-64697397D01*
X146829723Y-64779996D01*
X146829723Y-64780003D01*
X142821000Y-64780003D01*
X142893903Y-64623663D01*
X142955063Y-64395408D01*
X142975659Y-64160000D01*
X142955063Y-63924592D01*
X142903155Y-63730868D01*
X142893905Y-63696344D01*
X142893904Y-63696343D01*
X142893903Y-63696337D01*
X142794035Y-63482171D01*
X142793582Y-63481523D01*
X142658494Y-63288597D01*
X142491402Y-63121506D01*
X142491396Y-63121501D01*
X142305842Y-62991575D01*
X142262217Y-62936998D01*
X142255023Y-62867500D01*
X142286546Y-62805145D01*
X142305842Y-62788425D01*
X142367485Y-62745262D01*
X142491401Y-62658495D01*
X142658495Y-62491401D01*
X142794035Y-62297830D01*
X142893903Y-62083663D01*
X142955063Y-61855408D01*
X142964285Y-61750000D01*
X146379700Y-61750000D01*
X146382209Y-61780286D01*
X146386955Y-61837567D01*
X146390819Y-61928523D01*
X146390820Y-61928532D01*
X146395718Y-61951262D01*
X146395939Y-61952284D01*
X146397118Y-61960225D01*
X146397481Y-61964592D01*
X146398865Y-61981301D01*
X146398865Y-61981304D01*
X146398866Y-61981305D01*
X146421205Y-62069520D01*
X146424253Y-62083663D01*
X146441046Y-62161582D01*
X146448883Y-62181084D01*
X146451458Y-62188987D01*
X146455844Y-62206303D01*
X146493655Y-62292504D01*
X146529934Y-62382787D01*
X146529935Y-62382788D01*
X146539232Y-62397888D01*
X146543218Y-62405495D01*
X146549076Y-62418850D01*
X146602275Y-62500277D01*
X146654930Y-62585794D01*
X146661543Y-62593308D01*
X146672263Y-62607402D01*
X146674738Y-62611189D01*
X146676021Y-62613153D01*
X146744027Y-62687028D01*
X146812436Y-62764755D01*
X146817564Y-62768895D01*
X146830882Y-62781377D01*
X146833216Y-62783913D01*
X146914933Y-62847515D01*
X146997920Y-62914523D01*
X146997922Y-62914524D01*
X147000678Y-62916064D01*
X147016360Y-62926460D01*
X147016367Y-62926465D01*
X147016371Y-62926467D01*
X147016374Y-62926470D01*
X147105783Y-62974855D01*
X147110162Y-62977225D01*
X147206046Y-63030790D01*
X147208849Y-63032058D01*
X147215695Y-63035097D01*
X147215794Y-63034873D01*
X147220490Y-63036932D01*
X147220497Y-63036936D01*
X147324276Y-63072563D01*
X147430829Y-63110211D01*
X147431398Y-63110308D01*
X147436129Y-63111312D01*
X147440007Y-63112294D01*
X147440019Y-63112298D01*
X147551324Y-63130870D01*
X147551324Y-63130871D01*
X147665791Y-63150499D01*
X147665800Y-63150500D01*
X147901044Y-63150500D01*
X147901049Y-63150500D01*
X147934073Y-63144988D01*
X147957469Y-63141085D01*
X147962407Y-63140463D01*
X148022541Y-63135346D01*
X148074615Y-63121786D01*
X148080017Y-63120634D01*
X148129981Y-63112298D01*
X148187186Y-63092658D01*
X148191663Y-63091309D01*
X148253249Y-63075275D01*
X148259249Y-63072563D01*
X148264262Y-63070296D01*
X148299297Y-63054459D01*
X148304681Y-63052322D01*
X148349503Y-63036936D01*
X148405554Y-63006601D01*
X148409527Y-63004632D01*
X148418156Y-63000730D01*
X148470486Y-62977077D01*
X148509647Y-62950608D01*
X148514820Y-62947469D01*
X148553626Y-62926470D01*
X148606532Y-62885290D01*
X148609850Y-62882881D01*
X148668003Y-62843579D01*
X148699770Y-62813131D01*
X148704548Y-62809002D01*
X148736784Y-62783913D01*
X148739109Y-62781388D01*
X148754420Y-62764755D01*
X148784389Y-62732198D01*
X148787101Y-62729432D01*
X148840118Y-62678621D01*
X148864329Y-62645883D01*
X148868540Y-62640785D01*
X148893979Y-62613153D01*
X148934206Y-62551578D01*
X148936241Y-62548652D01*
X148981879Y-62486947D01*
X148998733Y-62453517D01*
X149002170Y-62447552D01*
X149020924Y-62418849D01*
X149051805Y-62348445D01*
X149053174Y-62345538D01*
X149089207Y-62274074D01*
X149099208Y-62241413D01*
X149101701Y-62234694D01*
X149114157Y-62206300D01*
X149133827Y-62128621D01*
X149134635Y-62125732D01*
X149159016Y-62046123D01*
X149162936Y-62015508D01*
X149164330Y-62008170D01*
X149171134Y-61981305D01*
X149178132Y-61896845D01*
X149189298Y-61809654D01*
X149188126Y-61782079D01*
X149188281Y-61774355D01*
X149190300Y-61750000D01*
X151829700Y-61750000D01*
X151832209Y-61780286D01*
X151836955Y-61837567D01*
X151840819Y-61928523D01*
X151840820Y-61928532D01*
X151845718Y-61951262D01*
X151845939Y-61952284D01*
X151847118Y-61960225D01*
X151847481Y-61964592D01*
X151848865Y-61981301D01*
X151848865Y-61981304D01*
X151848866Y-61981305D01*
X151871205Y-62069520D01*
X151874253Y-62083663D01*
X151891046Y-62161582D01*
X151898883Y-62181084D01*
X151901458Y-62188987D01*
X151905844Y-62206303D01*
X151943655Y-62292504D01*
X151979934Y-62382787D01*
X151979935Y-62382788D01*
X151989232Y-62397888D01*
X151993218Y-62405495D01*
X151999076Y-62418850D01*
X152052275Y-62500277D01*
X152104930Y-62585794D01*
X152111543Y-62593308D01*
X152122263Y-62607402D01*
X152124738Y-62611189D01*
X152126021Y-62613153D01*
X152194027Y-62687028D01*
X152262436Y-62764755D01*
X152267564Y-62768895D01*
X152280882Y-62781377D01*
X152283216Y-62783913D01*
X152364933Y-62847515D01*
X152447920Y-62914523D01*
X152447922Y-62914524D01*
X152450678Y-62916064D01*
X152466360Y-62926460D01*
X152466367Y-62926465D01*
X152466371Y-62926467D01*
X152466374Y-62926470D01*
X152555783Y-62974855D01*
X152560162Y-62977225D01*
X152656046Y-63030790D01*
X152658849Y-63032058D01*
X152665695Y-63035097D01*
X152665794Y-63034873D01*
X152670490Y-63036932D01*
X152670497Y-63036936D01*
X152774276Y-63072563D01*
X152880829Y-63110211D01*
X152881398Y-63110308D01*
X152886129Y-63111312D01*
X152890007Y-63112294D01*
X152890019Y-63112298D01*
X153001324Y-63130870D01*
X153001324Y-63130871D01*
X153115791Y-63150499D01*
X153115800Y-63150500D01*
X153351044Y-63150500D01*
X153351049Y-63150500D01*
X153384073Y-63144988D01*
X153407469Y-63141085D01*
X153412407Y-63140463D01*
X153472541Y-63135346D01*
X153524615Y-63121786D01*
X153530017Y-63120634D01*
X153579981Y-63112298D01*
X153637186Y-63092658D01*
X153641663Y-63091309D01*
X153703249Y-63075275D01*
X153709249Y-63072563D01*
X153714262Y-63070296D01*
X153749297Y-63054459D01*
X153754681Y-63052322D01*
X153799503Y-63036936D01*
X153855554Y-63006601D01*
X153859527Y-63004632D01*
X153868156Y-63000730D01*
X153920486Y-62977077D01*
X153959647Y-62950608D01*
X153964820Y-62947469D01*
X154003626Y-62926470D01*
X154056532Y-62885290D01*
X154059850Y-62882881D01*
X154118003Y-62843579D01*
X154149770Y-62813131D01*
X154154548Y-62809002D01*
X154186784Y-62783913D01*
X154189109Y-62781388D01*
X154204420Y-62764755D01*
X154234389Y-62732198D01*
X154237101Y-62729432D01*
X154290118Y-62678621D01*
X154314329Y-62645883D01*
X154318540Y-62640785D01*
X154343979Y-62613153D01*
X154384206Y-62551578D01*
X154386241Y-62548652D01*
X154431879Y-62486947D01*
X154448733Y-62453517D01*
X154452170Y-62447552D01*
X154470924Y-62418849D01*
X154501805Y-62348445D01*
X154503174Y-62345538D01*
X154539207Y-62274074D01*
X154549208Y-62241413D01*
X154551701Y-62234694D01*
X154564157Y-62206300D01*
X154583827Y-62128621D01*
X154584635Y-62125732D01*
X154609016Y-62046123D01*
X154612936Y-62015508D01*
X154614330Y-62008170D01*
X154621134Y-61981305D01*
X154628132Y-61896845D01*
X154639298Y-61809654D01*
X154638126Y-61782079D01*
X154638281Y-61774355D01*
X154640300Y-61750000D01*
X154639168Y-61736344D01*
X154633044Y-61662432D01*
X154631423Y-61624272D01*
X154629180Y-61571468D01*
X154624059Y-61547709D01*
X154622879Y-61539762D01*
X154622596Y-61536344D01*
X154621134Y-61518695D01*
X154621133Y-61518692D01*
X154621133Y-61518688D01*
X154598794Y-61430480D01*
X154589574Y-61387698D01*
X154578954Y-61338419D01*
X154571115Y-61318912D01*
X154568541Y-61311015D01*
X154564157Y-61293700D01*
X154526344Y-61207495D01*
X154490064Y-61117210D01*
X154480768Y-61102112D01*
X154476779Y-61094500D01*
X154470924Y-61081151D01*
X154417724Y-60999721D01*
X154365071Y-60914208D01*
X154365070Y-60914207D01*
X154365069Y-60914205D01*
X154358451Y-60906686D01*
X154347727Y-60892584D01*
X154343978Y-60886845D01*
X154275972Y-60812971D01*
X154207565Y-60735246D01*
X154202439Y-60731107D01*
X154189117Y-60718621D01*
X154186785Y-60716088D01*
X154186783Y-60716086D01*
X154105066Y-60652484D01*
X154022080Y-60585477D01*
X154022073Y-60585472D01*
X154019311Y-60583929D01*
X154003643Y-60573542D01*
X154003634Y-60573535D01*
X154003628Y-60573532D01*
X154003626Y-60573530D01*
X153909837Y-60522774D01*
X153813954Y-60469210D01*
X153813953Y-60469209D01*
X153813952Y-60469209D01*
X153811381Y-60468047D01*
X153804284Y-60464898D01*
X153804188Y-60465119D01*
X153799506Y-60463065D01*
X153695723Y-60427436D01*
X153589168Y-60389788D01*
X153589160Y-60389786D01*
X153588612Y-60389692D01*
X153583889Y-60388691D01*
X153579989Y-60387703D01*
X153468675Y-60369128D01*
X153354209Y-60349500D01*
X153354200Y-60349500D01*
X153351049Y-60349500D01*
X153118951Y-60349500D01*
X153118950Y-60349500D01*
X153062533Y-60358913D01*
X153057587Y-60359535D01*
X153055099Y-60359747D01*
X152997469Y-60364652D01*
X152997461Y-60364653D01*
X152945397Y-60378208D01*
X152939981Y-60379363D01*
X152890013Y-60387703D01*
X152832840Y-60407331D01*
X152828330Y-60408690D01*
X152766749Y-60424725D01*
X152766744Y-60424727D01*
X152720711Y-60445535D01*
X152715304Y-60447680D01*
X152670503Y-60463060D01*
X152670498Y-60463063D01*
X152614448Y-60493395D01*
X152610478Y-60495363D01*
X152549514Y-60522922D01*
X152510359Y-60549385D01*
X152505149Y-60552544D01*
X152466379Y-60573526D01*
X152466367Y-60573533D01*
X152413487Y-60614692D01*
X152410124Y-60617133D01*
X152352001Y-60656417D01*
X152351994Y-60656422D01*
X152320248Y-60686847D01*
X152315430Y-60691011D01*
X152283218Y-60716085D01*
X152283209Y-60716093D01*
X152235613Y-60767795D01*
X152232900Y-60770564D01*
X152179882Y-60821378D01*
X152179880Y-60821380D01*
X152155681Y-60854098D01*
X152151448Y-60859223D01*
X152126022Y-60886845D01*
X152085797Y-60948412D01*
X152083741Y-60951367D01*
X152038124Y-61013047D01*
X152038120Y-61013054D01*
X152021268Y-61046475D01*
X152017811Y-61052472D01*
X151999076Y-61081149D01*
X151968219Y-61151496D01*
X151966803Y-61154503D01*
X151930790Y-61225931D01*
X151920792Y-61258573D01*
X151918288Y-61265323D01*
X151905845Y-61293691D01*
X151905845Y-61293692D01*
X151886178Y-61371347D01*
X151885358Y-61374279D01*
X151860984Y-61453876D01*
X151860983Y-61453879D01*
X151857063Y-61484485D01*
X151855668Y-61491830D01*
X151848867Y-61518688D01*
X151848864Y-61518705D01*
X151841867Y-61603154D01*
X151830702Y-61690344D01*
X151830701Y-61690344D01*
X151831872Y-61717900D01*
X151831716Y-61725655D01*
X151830831Y-61736344D01*
X151829700Y-61750000D01*
X149190300Y-61750000D01*
X149189168Y-61736344D01*
X149183044Y-61662432D01*
X149181423Y-61624272D01*
X149179180Y-61571468D01*
X149174059Y-61547709D01*
X149172879Y-61539762D01*
X149172596Y-61536344D01*
X149171134Y-61518695D01*
X149171133Y-61518692D01*
X149171133Y-61518688D01*
X149148794Y-61430480D01*
X149139574Y-61387698D01*
X149128954Y-61338419D01*
X149121115Y-61318912D01*
X149118541Y-61311015D01*
X149114157Y-61293700D01*
X149076344Y-61207495D01*
X149040064Y-61117210D01*
X149030768Y-61102112D01*
X149026779Y-61094500D01*
X149020924Y-61081151D01*
X148967724Y-60999721D01*
X148915071Y-60914208D01*
X148915070Y-60914207D01*
X148915069Y-60914205D01*
X148908451Y-60906686D01*
X148897727Y-60892584D01*
X148893978Y-60886845D01*
X148825972Y-60812971D01*
X148757565Y-60735246D01*
X148752439Y-60731107D01*
X148739117Y-60718621D01*
X148736785Y-60716088D01*
X148736783Y-60716086D01*
X148655066Y-60652484D01*
X148572080Y-60585477D01*
X148572073Y-60585472D01*
X148569311Y-60583929D01*
X148553643Y-60573542D01*
X148553634Y-60573535D01*
X148553628Y-60573532D01*
X148553626Y-60573530D01*
X148459837Y-60522774D01*
X148363954Y-60469210D01*
X148363953Y-60469209D01*
X148363952Y-60469209D01*
X148361381Y-60468047D01*
X148354284Y-60464898D01*
X148354188Y-60465119D01*
X148349506Y-60463065D01*
X148245723Y-60427436D01*
X148139168Y-60389788D01*
X148139160Y-60389786D01*
X148138612Y-60389692D01*
X148133889Y-60388691D01*
X148129989Y-60387703D01*
X148018675Y-60369128D01*
X147904209Y-60349500D01*
X147904200Y-60349500D01*
X147901049Y-60349500D01*
X147668951Y-60349500D01*
X147668950Y-60349500D01*
X147612533Y-60358913D01*
X147607587Y-60359535D01*
X147605099Y-60359747D01*
X147547469Y-60364652D01*
X147547461Y-60364653D01*
X147495397Y-60378208D01*
X147489981Y-60379363D01*
X147440013Y-60387703D01*
X147382840Y-60407331D01*
X147378330Y-60408690D01*
X147316749Y-60424725D01*
X147316744Y-60424727D01*
X147270711Y-60445535D01*
X147265304Y-60447680D01*
X147220503Y-60463060D01*
X147220498Y-60463063D01*
X147164448Y-60493395D01*
X147160478Y-60495363D01*
X147099514Y-60522922D01*
X147060359Y-60549385D01*
X147055149Y-60552544D01*
X147016379Y-60573526D01*
X147016367Y-60573533D01*
X146963487Y-60614692D01*
X146960124Y-60617133D01*
X146902001Y-60656417D01*
X146901994Y-60656422D01*
X146870248Y-60686847D01*
X146865430Y-60691011D01*
X146833218Y-60716085D01*
X146833209Y-60716093D01*
X146785613Y-60767795D01*
X146782900Y-60770564D01*
X146729882Y-60821378D01*
X146729880Y-60821380D01*
X146705681Y-60854098D01*
X146701448Y-60859223D01*
X146676022Y-60886845D01*
X146635797Y-60948412D01*
X146633741Y-60951367D01*
X146588124Y-61013047D01*
X146588120Y-61013054D01*
X146571268Y-61046475D01*
X146567811Y-61052472D01*
X146549076Y-61081149D01*
X146518219Y-61151496D01*
X146516803Y-61154503D01*
X146480790Y-61225931D01*
X146470792Y-61258573D01*
X146468288Y-61265323D01*
X146455845Y-61293691D01*
X146455845Y-61293692D01*
X146436178Y-61371347D01*
X146435358Y-61374279D01*
X146410984Y-61453876D01*
X146410983Y-61453879D01*
X146407063Y-61484485D01*
X146405668Y-61491830D01*
X146398867Y-61518688D01*
X146398864Y-61518705D01*
X146391867Y-61603154D01*
X146380702Y-61690344D01*
X146380701Y-61690344D01*
X146381872Y-61717900D01*
X146381716Y-61725655D01*
X146380831Y-61736344D01*
X146379700Y-61750000D01*
X142964285Y-61750000D01*
X142975659Y-61620000D01*
X142955063Y-61384592D01*
X142893903Y-61156337D01*
X142794035Y-60942171D01*
X142793582Y-60941523D01*
X142658494Y-60748597D01*
X142491402Y-60581506D01*
X142491395Y-60581501D01*
X142488297Y-60579332D01*
X142450040Y-60552544D01*
X142297834Y-60445967D01*
X142297830Y-60445965D01*
X142296908Y-60445535D01*
X142083663Y-60346097D01*
X142083659Y-60346096D01*
X142083655Y-60346094D01*
X141855413Y-60284938D01*
X141855403Y-60284936D01*
X141620001Y-60264341D01*
X141619999Y-60264341D01*
X141384596Y-60284936D01*
X141384586Y-60284938D01*
X141156344Y-60346094D01*
X141156335Y-60346098D01*
X140942171Y-60445964D01*
X140942169Y-60445965D01*
X140748597Y-60581505D01*
X140581505Y-60748597D01*
X140445965Y-60942169D01*
X140445964Y-60942171D01*
X140346098Y-61156335D01*
X140346094Y-61156344D01*
X140284938Y-61384586D01*
X140284936Y-61384596D01*
X140264341Y-61619999D01*
X140264341Y-61620000D01*
X140284936Y-61855403D01*
X140284938Y-61855413D01*
X140346094Y-62083655D01*
X140346096Y-62083659D01*
X140346097Y-62083663D01*
X140434887Y-62274074D01*
X140445965Y-62297830D01*
X140445967Y-62297834D01*
X140521353Y-62405495D01*
X140569704Y-62474548D01*
X140581501Y-62491395D01*
X140581506Y-62491402D01*
X140748597Y-62658493D01*
X140748603Y-62658498D01*
X140934158Y-62788425D01*
X140977783Y-62843002D01*
X140984977Y-62912500D01*
X140953454Y-62974855D01*
X140934158Y-62991575D01*
X140748597Y-63121505D01*
X140581506Y-63288596D01*
X140533874Y-63356623D01*
X140479297Y-63400248D01*
X140432299Y-63409500D01*
X111903705Y-63409500D01*
X111885735Y-63408191D01*
X111861972Y-63404710D01*
X111816533Y-63408686D01*
X111809931Y-63409264D01*
X111804530Y-63409500D01*
X111796289Y-63409500D01*
X111774579Y-63412037D01*
X111763724Y-63413306D01*
X111748419Y-63414645D01*
X111687199Y-63420001D01*
X111680132Y-63421460D01*
X111680120Y-63421404D01*
X111672763Y-63423035D01*
X111672777Y-63423092D01*
X111665743Y-63424759D01*
X111593575Y-63451025D01*
X111520675Y-63475181D01*
X111514126Y-63478236D01*
X111514101Y-63478183D01*
X111507308Y-63481471D01*
X111507334Y-63481523D01*
X111500880Y-63484764D01*
X111436708Y-63526971D01*
X111371347Y-63567285D01*
X111365683Y-63571765D01*
X111365647Y-63571719D01*
X111359798Y-63576484D01*
X111359835Y-63576528D01*
X111354310Y-63581164D01*
X111354304Y-63581169D01*
X111354304Y-63581170D01*
X111336135Y-63600428D01*
X111301598Y-63637034D01*
X110325451Y-64613181D01*
X110264128Y-64646666D01*
X110237770Y-64649500D01*
X89863705Y-64649500D01*
X89845735Y-64648191D01*
X89821972Y-64644710D01*
X89776533Y-64648686D01*
X89769931Y-64649264D01*
X89764530Y-64649500D01*
X89756289Y-64649500D01*
X89734579Y-64652037D01*
X89723724Y-64653306D01*
X89708419Y-64654645D01*
X89647199Y-64660001D01*
X89640132Y-64661460D01*
X89640120Y-64661404D01*
X89632763Y-64663035D01*
X89632777Y-64663092D01*
X89625743Y-64664759D01*
X89553575Y-64691025D01*
X89480675Y-64715181D01*
X89474126Y-64718236D01*
X89474101Y-64718183D01*
X89467308Y-64721471D01*
X89467334Y-64721523D01*
X89460880Y-64724764D01*
X89396708Y-64766971D01*
X89331347Y-64807285D01*
X89325683Y-64811765D01*
X89325647Y-64811719D01*
X89319798Y-64816484D01*
X89319835Y-64816528D01*
X89314310Y-64821164D01*
X89261598Y-64877034D01*
X88691937Y-65446693D01*
X88655873Y-65469370D01*
X88656750Y-65471191D01*
X88650475Y-65474212D01*
X88497737Y-65570184D01*
X88370184Y-65697737D01*
X88274211Y-65850476D01*
X88214631Y-66020745D01*
X88214630Y-66020750D01*
X88194435Y-66199996D01*
X88194435Y-66200003D01*
X88214630Y-66379249D01*
X88214631Y-66379254D01*
X88274211Y-66549523D01*
X88322688Y-66626673D01*
X88370184Y-66702262D01*
X88497738Y-66829816D01*
X88547262Y-66860934D01*
X88640806Y-66919712D01*
X88650478Y-66925789D01*
X88820745Y-66985368D01*
X88820750Y-66985369D01*
X88999996Y-67005565D01*
X89000000Y-67005565D01*
X89000004Y-67005565D01*
X89179249Y-66985369D01*
X89179252Y-66985368D01*
X89179255Y-66985368D01*
X89349522Y-66925789D01*
X89502262Y-66829816D01*
X89629816Y-66702262D01*
X89725789Y-66549522D01*
X89725790Y-66549518D01*
X89728811Y-66543246D01*
X89730655Y-66544134D01*
X89753303Y-66508063D01*
X90074550Y-66186816D01*
X90135872Y-66153334D01*
X90162230Y-66150500D01*
X110536295Y-66150500D01*
X110554265Y-66151809D01*
X110578023Y-66155289D01*
X110630068Y-66150735D01*
X110635470Y-66150500D01*
X110643704Y-66150500D01*
X110643709Y-66150500D01*
X110655327Y-66149141D01*
X110676276Y-66146693D01*
X110689028Y-66145577D01*
X110752797Y-66139999D01*
X110752805Y-66139996D01*
X110759866Y-66138539D01*
X110759878Y-66138598D01*
X110767243Y-66136965D01*
X110767229Y-66136906D01*
X110774246Y-66135241D01*
X110774255Y-66135241D01*
X110846423Y-66108974D01*
X110919334Y-66084814D01*
X110919343Y-66084807D01*
X110925882Y-66081760D01*
X110925908Y-66081816D01*
X110932690Y-66078532D01*
X110932663Y-66078478D01*
X110939106Y-66075240D01*
X110939117Y-66075237D01*
X111003283Y-66033034D01*
X111068656Y-65992712D01*
X111068662Y-65992705D01*
X111074325Y-65988229D01*
X111074363Y-65988277D01*
X111080200Y-65983522D01*
X111080161Y-65983475D01*
X111085696Y-65978830D01*
X111138385Y-65922982D01*
X112114549Y-64946819D01*
X112175872Y-64913334D01*
X112202230Y-64910500D01*
X140432299Y-64910500D01*
X140499338Y-64930185D01*
X140533873Y-64963376D01*
X140581505Y-65031401D01*
X140703818Y-65153714D01*
X140737303Y-65215037D01*
X140732319Y-65284729D01*
X140690447Y-65340662D01*
X140659471Y-65357577D01*
X140527912Y-65406646D01*
X140527906Y-65406649D01*
X140412812Y-65492809D01*
X140412809Y-65492812D01*
X140326649Y-65607906D01*
X140326645Y-65607913D01*
X140276403Y-65742620D01*
X140276401Y-65742627D01*
X140270000Y-65802155D01*
X140270000Y-66450000D01*
X140996231Y-66450000D01*
X141063270Y-66469685D01*
X141109025Y-66522489D01*
X141118969Y-66591647D01*
X141115208Y-66608936D01*
X141110000Y-66626672D01*
X141110000Y-66773327D01*
X141115208Y-66791064D01*
X141115208Y-66860934D01*
X141077434Y-66919712D01*
X141013879Y-66948738D01*
X140996231Y-66950000D01*
X140270000Y-66950000D01*
X140270000Y-67597844D01*
X140276401Y-67657372D01*
X140276403Y-67657379D01*
X140326645Y-67792086D01*
X140326649Y-67792093D01*
X140412809Y-67907187D01*
X140412812Y-67907190D01*
X140527906Y-67993350D01*
X140527913Y-67993354D01*
X140659470Y-68042421D01*
X140715403Y-68084292D01*
X140739821Y-68149756D01*
X140724970Y-68218029D01*
X140703819Y-68246284D01*
X140581503Y-68368600D01*
X140445965Y-68562169D01*
X140445964Y-68562171D01*
X140346098Y-68776335D01*
X140346094Y-68776344D01*
X140284938Y-69004586D01*
X140284936Y-69004596D01*
X140264341Y-69239999D01*
X140264341Y-69240000D01*
X140284936Y-69475403D01*
X140284938Y-69475413D01*
X140346094Y-69703655D01*
X140346096Y-69703659D01*
X140346097Y-69703663D01*
X140445965Y-69917830D01*
X140445967Y-69917834D01*
X140581501Y-70111395D01*
X140581506Y-70111402D01*
X140748597Y-70278493D01*
X140748603Y-70278498D01*
X140934158Y-70408425D01*
X140977783Y-70463002D01*
X140984977Y-70532500D01*
X140953454Y-70594855D01*
X140934158Y-70611575D01*
X140748597Y-70741505D01*
X140581505Y-70908597D01*
X140445965Y-71102169D01*
X140445964Y-71102171D01*
X140346098Y-71316335D01*
X140346094Y-71316344D01*
X140284938Y-71544586D01*
X140284936Y-71544596D01*
X140264341Y-71779999D01*
X140264341Y-71780000D01*
X140284936Y-72015403D01*
X140284938Y-72015413D01*
X140346094Y-72243655D01*
X140346096Y-72243659D01*
X140346097Y-72243663D01*
X140394517Y-72347499D01*
X140445965Y-72457830D01*
X140445967Y-72457834D01*
X140581501Y-72651395D01*
X140581506Y-72651402D01*
X140748597Y-72818493D01*
X140748603Y-72818498D01*
X140934158Y-72948425D01*
X140977783Y-73003002D01*
X140984977Y-73072500D01*
X140953454Y-73134855D01*
X140934158Y-73151575D01*
X140748597Y-73281505D01*
X140581506Y-73448596D01*
X140533874Y-73516623D01*
X140479297Y-73560248D01*
X140432299Y-73569500D01*
X102543705Y-73569500D01*
X102525735Y-73568191D01*
X102501972Y-73564710D01*
X102456533Y-73568686D01*
X102449931Y-73569264D01*
X102444530Y-73569500D01*
X102436289Y-73569500D01*
X102414579Y-73572037D01*
X102403724Y-73573306D01*
X102388419Y-73574645D01*
X102327199Y-73580001D01*
X102320132Y-73581460D01*
X102320120Y-73581404D01*
X102312763Y-73583035D01*
X102312777Y-73583092D01*
X102305743Y-73584759D01*
X102233575Y-73611025D01*
X102160675Y-73635181D01*
X102154126Y-73638236D01*
X102154101Y-73638183D01*
X102147308Y-73641471D01*
X102147334Y-73641523D01*
X102140880Y-73644764D01*
X102076708Y-73686971D01*
X102011347Y-73727285D01*
X102005683Y-73731765D01*
X102005647Y-73731719D01*
X101999798Y-73736484D01*
X101999835Y-73736528D01*
X101994310Y-73741164D01*
X101941597Y-73797035D01*
X97725451Y-78013181D01*
X97664128Y-78046666D01*
X97637770Y-78049500D01*
X90362230Y-78049500D01*
X90295191Y-78029815D01*
X90274549Y-78013181D01*
X89835729Y-77574361D01*
X89823949Y-77560730D01*
X89816482Y-77550701D01*
X89809612Y-77541472D01*
X89809610Y-77541470D01*
X89769587Y-77507886D01*
X89765612Y-77504244D01*
X89762690Y-77501322D01*
X89759780Y-77498411D01*
X89734040Y-77478059D01*
X89675209Y-77428694D01*
X89669180Y-77424729D01*
X89669212Y-77424680D01*
X89662853Y-77420628D01*
X89662822Y-77420679D01*
X89656680Y-77416891D01*
X89656678Y-77416890D01*
X89656677Y-77416889D01*
X89595232Y-77388236D01*
X89587058Y-77384424D01*
X89552894Y-77367267D01*
X89518433Y-77349960D01*
X89518431Y-77349959D01*
X89518430Y-77349959D01*
X89511645Y-77347489D01*
X89511665Y-77347433D01*
X89504549Y-77344959D01*
X89504531Y-77345015D01*
X89497671Y-77342742D01*
X89469841Y-77336996D01*
X89422434Y-77327207D01*
X89373472Y-77315603D01*
X89347719Y-77309499D01*
X89340547Y-77308661D01*
X89340553Y-77308601D01*
X89333055Y-77307835D01*
X89333050Y-77307895D01*
X89325860Y-77307265D01*
X89249083Y-77309500D01*
X85679547Y-77309500D01*
X85612508Y-77289815D01*
X85575738Y-77253321D01*
X85528774Y-77181437D01*
X85368776Y-77007635D01*
X85368766Y-77007626D01*
X85214882Y-76887853D01*
X85174069Y-76831143D01*
X85170394Y-76761370D01*
X85205026Y-76700687D01*
X85214882Y-76692147D01*
X85362485Y-76577262D01*
X85368773Y-76572368D01*
X85528775Y-76398561D01*
X85657986Y-76200788D01*
X85752883Y-75984445D01*
X85810876Y-75755434D01*
X85830385Y-75520000D01*
X85829154Y-75505145D01*
X85811296Y-75289632D01*
X85810876Y-75284566D01*
X85752883Y-75055555D01*
X85657986Y-74839212D01*
X85552437Y-74677656D01*
X85528774Y-74641437D01*
X85368776Y-74467635D01*
X85368775Y-74467634D01*
X85368773Y-74467632D01*
X85275559Y-74395081D01*
X85182348Y-74322531D01*
X84974580Y-74210092D01*
X84974571Y-74210089D01*
X84751141Y-74133384D01*
X84595793Y-74107461D01*
X84518120Y-74094500D01*
X84281880Y-74094500D01*
X84223625Y-74104221D01*
X84048858Y-74133384D01*
X83825428Y-74210089D01*
X83825419Y-74210092D01*
X83617651Y-74322531D01*
X83431228Y-74467631D01*
X83431223Y-74467635D01*
X83271225Y-74641437D01*
X83142012Y-74839213D01*
X83138055Y-74848236D01*
X83093098Y-74901721D01*
X83026362Y-74922410D01*
X82959034Y-74903734D01*
X82912492Y-74851623D01*
X82900500Y-74798424D01*
X82900500Y-69212230D01*
X82920185Y-69145191D01*
X82936819Y-69124549D01*
X83074549Y-68986819D01*
X83135872Y-68953334D01*
X83162230Y-68950500D01*
X109700028Y-68950500D01*
X109740983Y-68957458D01*
X109820745Y-68985368D01*
X109820750Y-68985369D01*
X109999996Y-69005565D01*
X110000000Y-69005565D01*
X110000004Y-69005565D01*
X110179249Y-68985369D01*
X110179252Y-68985368D01*
X110179255Y-68985368D01*
X110349522Y-68925789D01*
X110502262Y-68829816D01*
X110629816Y-68702262D01*
X110725789Y-68549522D01*
X110785368Y-68379255D01*
X110803534Y-68218029D01*
X110805565Y-68200003D01*
X110805565Y-68199996D01*
X110785369Y-68020750D01*
X110785368Y-68020745D01*
X110725788Y-67850476D01*
X110629815Y-67697737D01*
X110502262Y-67570184D01*
X110349523Y-67474211D01*
X110179254Y-67414631D01*
X110179249Y-67414630D01*
X110000004Y-67394435D01*
X109999996Y-67394435D01*
X109820750Y-67414630D01*
X109820745Y-67414631D01*
X109740983Y-67442542D01*
X109700028Y-67449500D01*
X82863705Y-67449500D01*
X82845735Y-67448191D01*
X82821972Y-67444710D01*
X82776533Y-67448686D01*
X82769931Y-67449264D01*
X82764530Y-67449500D01*
X82756289Y-67449500D01*
X82734579Y-67452037D01*
X82723724Y-67453306D01*
X82708419Y-67454645D01*
X82647199Y-67460001D01*
X82640132Y-67461460D01*
X82640120Y-67461404D01*
X82632763Y-67463035D01*
X82632777Y-67463092D01*
X82625743Y-67464759D01*
X82553575Y-67491025D01*
X82480675Y-67515181D01*
X82474126Y-67518236D01*
X82474101Y-67518183D01*
X82467308Y-67521471D01*
X82467334Y-67521523D01*
X82460880Y-67524764D01*
X82396708Y-67566971D01*
X82331347Y-67607285D01*
X82325683Y-67611765D01*
X82325647Y-67611719D01*
X82319797Y-67616485D01*
X82319834Y-67616529D01*
X82314305Y-67621168D01*
X82261598Y-67677033D01*
X82112181Y-67826449D01*
X82050858Y-67859934D01*
X81981166Y-67854950D01*
X81925233Y-67813078D01*
X81900816Y-67747614D01*
X81900500Y-67738768D01*
X81900500Y-62401877D01*
X81900613Y-62398133D01*
X81909573Y-62250000D01*
X81918497Y-62102458D01*
X81919401Y-62095026D01*
X81936815Y-62000000D01*
X96564341Y-62000000D01*
X96584936Y-62235403D01*
X96584938Y-62235413D01*
X96646094Y-62463655D01*
X96646096Y-62463659D01*
X96646097Y-62463663D01*
X96685714Y-62548621D01*
X96745965Y-62677830D01*
X96745967Y-62677834D01*
X96854281Y-62832521D01*
X96881505Y-62871401D01*
X97048599Y-63038495D01*
X97133334Y-63097827D01*
X97242165Y-63174032D01*
X97242167Y-63174033D01*
X97242170Y-63174035D01*
X97456337Y-63273903D01*
X97684592Y-63335063D01*
X97855319Y-63350000D01*
X97919999Y-63355659D01*
X97920000Y-63355659D01*
X97920001Y-63355659D01*
X97984681Y-63350000D01*
X98155408Y-63335063D01*
X98383663Y-63273903D01*
X98597830Y-63174035D01*
X98791401Y-63038495D01*
X98958495Y-62871401D01*
X99088426Y-62685840D01*
X99143001Y-62642217D01*
X99212499Y-62635023D01*
X99274854Y-62666546D01*
X99291574Y-62685841D01*
X99322097Y-62729432D01*
X99421505Y-62871401D01*
X99588599Y-63038495D01*
X99673334Y-63097827D01*
X99782165Y-63174032D01*
X99782167Y-63174033D01*
X99782170Y-63174035D01*
X99996337Y-63273903D01*
X100224592Y-63335063D01*
X100395319Y-63350000D01*
X100459999Y-63355659D01*
X100460000Y-63355659D01*
X100460001Y-63355659D01*
X100524681Y-63350000D01*
X100695408Y-63335063D01*
X100923663Y-63273903D01*
X101137830Y-63174035D01*
X101331401Y-63038495D01*
X101453717Y-62916178D01*
X101515036Y-62882696D01*
X101584728Y-62887680D01*
X101640662Y-62929551D01*
X101657577Y-62960528D01*
X101706646Y-63092088D01*
X101706649Y-63092093D01*
X101792809Y-63207187D01*
X101792812Y-63207190D01*
X101907906Y-63293350D01*
X101907913Y-63293354D01*
X102042620Y-63343596D01*
X102042627Y-63343598D01*
X102102155Y-63349999D01*
X102102172Y-63350000D01*
X102750000Y-63350000D01*
X102750000Y-62612301D01*
X102769685Y-62545262D01*
X102822489Y-62499507D01*
X102891647Y-62489563D01*
X102964237Y-62500000D01*
X102964238Y-62500000D01*
X103035762Y-62500000D01*
X103035763Y-62500000D01*
X103108353Y-62489563D01*
X103177512Y-62499507D01*
X103230315Y-62545262D01*
X103250000Y-62612301D01*
X103250000Y-63350000D01*
X103897828Y-63350000D01*
X103897844Y-63349999D01*
X103957372Y-63343598D01*
X103957379Y-63343596D01*
X104092086Y-63293354D01*
X104092093Y-63293350D01*
X104207187Y-63207190D01*
X104207190Y-63207187D01*
X104293350Y-63092093D01*
X104293354Y-63092086D01*
X104343596Y-62957379D01*
X104343598Y-62957372D01*
X104349999Y-62897844D01*
X104350000Y-62897827D01*
X104350000Y-62250000D01*
X103613347Y-62250000D01*
X103546308Y-62230315D01*
X103500553Y-62177511D01*
X103490609Y-62108353D01*
X103494369Y-62091067D01*
X103500000Y-62071888D01*
X103500000Y-61928111D01*
X103494369Y-61908933D01*
X103494370Y-61839064D01*
X103532145Y-61780286D01*
X103595701Y-61751262D01*
X103613347Y-61750000D01*
X104350000Y-61750000D01*
X104350000Y-61102172D01*
X104349999Y-61102155D01*
X104343598Y-61042627D01*
X104343596Y-61042620D01*
X104293354Y-60907913D01*
X104293350Y-60907906D01*
X104207190Y-60792812D01*
X104207187Y-60792809D01*
X104092093Y-60706649D01*
X104092086Y-60706645D01*
X103957379Y-60656403D01*
X103957372Y-60656401D01*
X103897844Y-60650000D01*
X103250000Y-60650000D01*
X103249999Y-61387698D01*
X103230314Y-61454738D01*
X103177510Y-61500492D01*
X103108353Y-61510436D01*
X103035764Y-61500000D01*
X103035763Y-61500000D01*
X102964237Y-61500000D01*
X102964233Y-61500000D01*
X102891645Y-61510436D01*
X102822487Y-61500492D01*
X102769684Y-61454736D01*
X102750000Y-61387698D01*
X102750000Y-60650000D01*
X102102155Y-60650000D01*
X102042627Y-60656401D01*
X102042620Y-60656403D01*
X101907913Y-60706645D01*
X101907906Y-60706649D01*
X101792812Y-60792809D01*
X101792809Y-60792812D01*
X101706649Y-60907906D01*
X101706645Y-60907913D01*
X101657578Y-61039470D01*
X101615707Y-61095404D01*
X101550242Y-61119821D01*
X101481969Y-61104969D01*
X101453715Y-61083819D01*
X101395860Y-61025964D01*
X101331401Y-60961505D01*
X101331397Y-60961502D01*
X101331396Y-60961501D01*
X101137834Y-60825967D01*
X101137830Y-60825965D01*
X101066727Y-60792809D01*
X100923663Y-60726097D01*
X100923659Y-60726096D01*
X100923655Y-60726094D01*
X100695413Y-60664938D01*
X100695403Y-60664936D01*
X100460001Y-60644341D01*
X100459999Y-60644341D01*
X100224596Y-60664936D01*
X100224586Y-60664938D01*
X99996344Y-60726094D01*
X99996335Y-60726098D01*
X99782171Y-60825964D01*
X99782169Y-60825965D01*
X99588597Y-60961505D01*
X99421505Y-61128597D01*
X99291575Y-61314158D01*
X99236998Y-61357783D01*
X99167500Y-61364977D01*
X99105145Y-61333454D01*
X99088425Y-61314158D01*
X98958494Y-61128597D01*
X98791402Y-60961506D01*
X98791395Y-60961501D01*
X98774861Y-60949924D01*
X98713053Y-60906645D01*
X98597834Y-60825967D01*
X98597830Y-60825965D01*
X98526727Y-60792809D01*
X98383663Y-60726097D01*
X98383659Y-60726096D01*
X98383655Y-60726094D01*
X98155413Y-60664938D01*
X98155403Y-60664936D01*
X97920001Y-60644341D01*
X97919999Y-60644341D01*
X97684596Y-60664936D01*
X97684586Y-60664938D01*
X97456344Y-60726094D01*
X97456335Y-60726098D01*
X97242171Y-60825964D01*
X97242169Y-60825965D01*
X97048597Y-60961505D01*
X96881505Y-61128597D01*
X96745965Y-61322169D01*
X96745964Y-61322171D01*
X96646098Y-61536335D01*
X96646094Y-61536344D01*
X96584938Y-61764586D01*
X96584936Y-61764596D01*
X96564341Y-61999999D01*
X96564341Y-62000000D01*
X81936815Y-62000000D01*
X81972456Y-61805516D01*
X81974246Y-61798250D01*
X82061816Y-61517230D01*
X82064465Y-61510248D01*
X82089449Y-61454736D01*
X82185268Y-61241834D01*
X82188745Y-61235211D01*
X82233302Y-61161506D01*
X82341012Y-60983330D01*
X82345252Y-60977186D01*
X82526793Y-60745465D01*
X82531737Y-60739884D01*
X82739884Y-60531737D01*
X82745465Y-60526793D01*
X82977186Y-60345252D01*
X82983334Y-60341010D01*
X83235215Y-60188742D01*
X83241834Y-60185268D01*
X83510246Y-60064465D01*
X83517230Y-60061816D01*
X83798250Y-59974246D01*
X83805516Y-59972456D01*
X84095026Y-59919401D01*
X84102458Y-59918497D01*
X84327572Y-59904880D01*
X84398134Y-59900613D01*
X84401878Y-59900500D01*
X84465892Y-59900500D01*
X198334108Y-59900500D01*
X198398122Y-59900500D01*
X198401866Y-59900613D01*
G37*
%TD.AperFunction*%
%TA.AperFunction,Conductor*%
G36*
X114154855Y-82206546D02*
G01*
X114171575Y-82225842D01*
X114301501Y-82411396D01*
X114301506Y-82411402D01*
X114468595Y-82578492D01*
X114468598Y-82578494D01*
X114468599Y-82578495D01*
X114536623Y-82626125D01*
X114580248Y-82680701D01*
X114589500Y-82727700D01*
X114589500Y-83276294D01*
X114588191Y-83294263D01*
X114584710Y-83318025D01*
X114589264Y-83370064D01*
X114589500Y-83375470D01*
X114589500Y-83383709D01*
X114593306Y-83416274D01*
X114600000Y-83492791D01*
X114601461Y-83499867D01*
X114601403Y-83499878D01*
X114603034Y-83507237D01*
X114603092Y-83507224D01*
X114604757Y-83514250D01*
X114631025Y-83586424D01*
X114655185Y-83659331D01*
X114658236Y-83665874D01*
X114658182Y-83665898D01*
X114661470Y-83672688D01*
X114661521Y-83672663D01*
X114664761Y-83679113D01*
X114664762Y-83679114D01*
X114664763Y-83679117D01*
X114668804Y-83685261D01*
X114706965Y-83743283D01*
X114747287Y-83808655D01*
X114751766Y-83814319D01*
X114751719Y-83814356D01*
X114756482Y-83820202D01*
X114756528Y-83820164D01*
X114761173Y-83825700D01*
X114817017Y-83878385D01*
X118444270Y-87505638D01*
X118456051Y-87519270D01*
X118470388Y-87538528D01*
X118510409Y-87572111D01*
X118514397Y-87575766D01*
X118520216Y-87581585D01*
X118520220Y-87581588D01*
X118520223Y-87581591D01*
X118545959Y-87601940D01*
X118604786Y-87651302D01*
X118604787Y-87651302D01*
X118604789Y-87651304D01*
X118610818Y-87655270D01*
X118610785Y-87655319D01*
X118617147Y-87659372D01*
X118617179Y-87659321D01*
X118623319Y-87663108D01*
X118623323Y-87663111D01*
X118658132Y-87679343D01*
X118692941Y-87695575D01*
X118761565Y-87730039D01*
X118761567Y-87730040D01*
X118761569Y-87730040D01*
X118768357Y-87732511D01*
X118768336Y-87732567D01*
X118775457Y-87735043D01*
X118775476Y-87734986D01*
X118782322Y-87737254D01*
X118782327Y-87737257D01*
X118782332Y-87737258D01*
X118782335Y-87737259D01*
X118857564Y-87752792D01*
X118857565Y-87752792D01*
X118932279Y-87770500D01*
X118932282Y-87770500D01*
X118932286Y-87770501D01*
X118939453Y-87771339D01*
X118939446Y-87771398D01*
X118946944Y-87772164D01*
X118946950Y-87772105D01*
X118954139Y-87772734D01*
X118954143Y-87772733D01*
X118954144Y-87772734D01*
X119030917Y-87770500D01*
X140432299Y-87770500D01*
X140499338Y-87790185D01*
X140533873Y-87823376D01*
X140581505Y-87891401D01*
X140748597Y-88058493D01*
X140748603Y-88058498D01*
X140934158Y-88188425D01*
X140977783Y-88243002D01*
X140984977Y-88312500D01*
X140953454Y-88374855D01*
X140934158Y-88391575D01*
X140748597Y-88521505D01*
X140581505Y-88688597D01*
X140445965Y-88882169D01*
X140445964Y-88882171D01*
X140346098Y-89096335D01*
X140346094Y-89096344D01*
X140284938Y-89324586D01*
X140284936Y-89324596D01*
X140264341Y-89559999D01*
X140264341Y-89560000D01*
X140284936Y-89795403D01*
X140284938Y-89795413D01*
X140346094Y-90023655D01*
X140346096Y-90023659D01*
X140346097Y-90023663D01*
X140445965Y-90237830D01*
X140445967Y-90237834D01*
X140554281Y-90392521D01*
X140581501Y-90431396D01*
X140581506Y-90431402D01*
X140703818Y-90553714D01*
X140737303Y-90615037D01*
X140732319Y-90684729D01*
X140690447Y-90740662D01*
X140659471Y-90757577D01*
X140527912Y-90806646D01*
X140527906Y-90806649D01*
X140412812Y-90892809D01*
X140412809Y-90892812D01*
X140326649Y-91007906D01*
X140326645Y-91007913D01*
X140276403Y-91142620D01*
X140276401Y-91142627D01*
X140270000Y-91202155D01*
X140270000Y-91850000D01*
X140996231Y-91850000D01*
X141063270Y-91869685D01*
X141109025Y-91922489D01*
X141118969Y-91991647D01*
X141115208Y-92008936D01*
X141110000Y-92026672D01*
X141110000Y-92173327D01*
X141115208Y-92191064D01*
X141115208Y-92260934D01*
X141077434Y-92319712D01*
X141013879Y-92348738D01*
X140996231Y-92350000D01*
X140270000Y-92350000D01*
X140270000Y-92997844D01*
X140276401Y-93057372D01*
X140276403Y-93057379D01*
X140326645Y-93192086D01*
X140326649Y-93192093D01*
X140412809Y-93307187D01*
X140412812Y-93307190D01*
X140527906Y-93393350D01*
X140527913Y-93393354D01*
X140659470Y-93442421D01*
X140715403Y-93484292D01*
X140739821Y-93549756D01*
X140724970Y-93618029D01*
X140703819Y-93646284D01*
X140581503Y-93768600D01*
X140533874Y-93836623D01*
X140479297Y-93880248D01*
X140432299Y-93889500D01*
X119802229Y-93889500D01*
X119735190Y-93869815D01*
X119714548Y-93853181D01*
X113261371Y-87400003D01*
X114194435Y-87400003D01*
X114214630Y-87579249D01*
X114214631Y-87579254D01*
X114274211Y-87749523D01*
X114363356Y-87891395D01*
X114370184Y-87902262D01*
X114497738Y-88029816D01*
X114650478Y-88125789D01*
X114650483Y-88125792D01*
X114656753Y-88128812D01*
X114655864Y-88130656D01*
X114691937Y-88153305D01*
X115559378Y-89020745D01*
X116224267Y-89685634D01*
X116236048Y-89699266D01*
X116250390Y-89718530D01*
X116290420Y-89752119D01*
X116294392Y-89755759D01*
X116300223Y-89761590D01*
X116325939Y-89781923D01*
X116383013Y-89829815D01*
X116384786Y-89831302D01*
X116384788Y-89831303D01*
X116390823Y-89835272D01*
X116390789Y-89835322D01*
X116397144Y-89839370D01*
X116397177Y-89839318D01*
X116403319Y-89843107D01*
X116403323Y-89843110D01*
X116472913Y-89875561D01*
X116472914Y-89875561D01*
X116541558Y-89910036D01*
X116541561Y-89910037D01*
X116541567Y-89910040D01*
X116541572Y-89910041D01*
X116548355Y-89912510D01*
X116548334Y-89912567D01*
X116555451Y-89915040D01*
X116555470Y-89914984D01*
X116562330Y-89917257D01*
X116637532Y-89932784D01*
X116712279Y-89950500D01*
X116712288Y-89950500D01*
X116719452Y-89951338D01*
X116719445Y-89951397D01*
X116726946Y-89952163D01*
X116726952Y-89952104D01*
X116734140Y-89952733D01*
X116734143Y-89952732D01*
X116734144Y-89952733D01*
X116810898Y-89950500D01*
X124500028Y-89950500D01*
X124540983Y-89957458D01*
X124620745Y-89985368D01*
X124620750Y-89985369D01*
X124799996Y-90005565D01*
X124800000Y-90005565D01*
X124800004Y-90005565D01*
X124979249Y-89985369D01*
X124979252Y-89985368D01*
X124979255Y-89985368D01*
X125149522Y-89925789D01*
X125302262Y-89829816D01*
X125429816Y-89702262D01*
X125525789Y-89549522D01*
X125585368Y-89379255D01*
X125605565Y-89200000D01*
X125593885Y-89096337D01*
X125585369Y-89020750D01*
X125585368Y-89020745D01*
X125525788Y-88850476D01*
X125429815Y-88697737D01*
X125302262Y-88570184D01*
X125149523Y-88474211D01*
X124979254Y-88414631D01*
X124979249Y-88414630D01*
X124800004Y-88394435D01*
X124799996Y-88394435D01*
X124620750Y-88414630D01*
X124620745Y-88414631D01*
X124540983Y-88442542D01*
X124500028Y-88449500D01*
X117162229Y-88449500D01*
X117095190Y-88429815D01*
X117074548Y-88413181D01*
X116431867Y-87770500D01*
X115753305Y-87091937D01*
X115730656Y-87055864D01*
X115728812Y-87056753D01*
X115725792Y-87050483D01*
X115629815Y-86897737D01*
X115502262Y-86770184D01*
X115349523Y-86674211D01*
X115179254Y-86614631D01*
X115179249Y-86614630D01*
X115000004Y-86594435D01*
X114999996Y-86594435D01*
X114820750Y-86614630D01*
X114820745Y-86614631D01*
X114650476Y-86674211D01*
X114497737Y-86770184D01*
X114370184Y-86897737D01*
X114274211Y-87050476D01*
X114214631Y-87220745D01*
X114214630Y-87220750D01*
X114194435Y-87399996D01*
X114194435Y-87400003D01*
X113261371Y-87400003D01*
X111046819Y-85185451D01*
X111013334Y-85124128D01*
X111010500Y-85097770D01*
X111010500Y-82727700D01*
X111030185Y-82660661D01*
X111063375Y-82626126D01*
X111131401Y-82578495D01*
X111298495Y-82411401D01*
X111428424Y-82225842D01*
X111483002Y-82182217D01*
X111552500Y-82175023D01*
X111614855Y-82206546D01*
X111631575Y-82225842D01*
X111761500Y-82411395D01*
X111761505Y-82411401D01*
X111928599Y-82578495D01*
X112009468Y-82635120D01*
X112122165Y-82714032D01*
X112122167Y-82714033D01*
X112122170Y-82714035D01*
X112336337Y-82813903D01*
X112564592Y-82875063D01*
X112741034Y-82890500D01*
X112799999Y-82895659D01*
X112800000Y-82895659D01*
X112800001Y-82895659D01*
X112858966Y-82890500D01*
X113035408Y-82875063D01*
X113263663Y-82813903D01*
X113477830Y-82714035D01*
X113671401Y-82578495D01*
X113838495Y-82411401D01*
X113968424Y-82225842D01*
X114023002Y-82182217D01*
X114092500Y-82175023D01*
X114154855Y-82206546D01*
G37*
%TD.AperFunction*%
%TA.AperFunction,Conductor*%
G36*
X126546231Y-80870185D02*
G01*
X126566873Y-80886819D01*
X130559564Y-84879510D01*
X130569635Y-84892080D01*
X130569822Y-84891926D01*
X130574796Y-84897937D01*
X130574798Y-84897940D01*
X130603345Y-84924748D01*
X130627243Y-84947190D01*
X130648967Y-84968913D01*
X130654757Y-84973405D01*
X130659197Y-84977197D01*
X130688498Y-85004711D01*
X130694607Y-85010448D01*
X130694610Y-85010450D01*
X130694612Y-85010451D01*
X130713207Y-85020674D01*
X130729468Y-85031356D01*
X130746232Y-85044359D01*
X130746236Y-85044362D01*
X130790811Y-85063651D01*
X130796050Y-85066217D01*
X130838632Y-85089627D01*
X130859204Y-85094908D01*
X130877594Y-85101205D01*
X130897074Y-85109635D01*
X130941221Y-85116626D01*
X130945048Y-85117233D01*
X130950757Y-85118415D01*
X130997823Y-85130500D01*
X131019045Y-85130500D01*
X131038444Y-85132026D01*
X131059405Y-85135347D01*
X131104104Y-85131121D01*
X131107770Y-85130775D01*
X131113608Y-85130500D01*
X140362278Y-85130500D01*
X140429317Y-85150185D01*
X140463853Y-85183377D01*
X140581501Y-85351396D01*
X140581506Y-85351402D01*
X140748597Y-85518493D01*
X140748603Y-85518498D01*
X140934158Y-85648425D01*
X140977783Y-85703002D01*
X140984977Y-85772500D01*
X140953454Y-85834855D01*
X140934158Y-85851575D01*
X140748597Y-85981505D01*
X140581506Y-86148596D01*
X140533874Y-86216623D01*
X140479297Y-86260248D01*
X140432299Y-86269500D01*
X119382229Y-86269500D01*
X119315190Y-86249815D01*
X119294548Y-86233181D01*
X116126819Y-83065451D01*
X116093334Y-83004128D01*
X116090500Y-82977770D01*
X116090500Y-82727700D01*
X116110185Y-82660661D01*
X116143375Y-82626126D01*
X116211401Y-82578495D01*
X116378495Y-82411401D01*
X116508424Y-82225842D01*
X116563002Y-82182217D01*
X116632500Y-82175023D01*
X116694855Y-82206546D01*
X116711575Y-82225842D01*
X116841500Y-82411395D01*
X116841505Y-82411401D01*
X117008599Y-82578495D01*
X117089468Y-82635120D01*
X117202165Y-82714032D01*
X117202167Y-82714033D01*
X117202170Y-82714035D01*
X117416337Y-82813903D01*
X117644592Y-82875063D01*
X117821034Y-82890500D01*
X117879999Y-82895659D01*
X117880000Y-82895659D01*
X117880001Y-82895659D01*
X117938966Y-82890500D01*
X118115408Y-82875063D01*
X118343663Y-82813903D01*
X118557830Y-82714035D01*
X118751401Y-82578495D01*
X118918495Y-82411401D01*
X119048730Y-82225405D01*
X119103307Y-82181781D01*
X119172805Y-82174587D01*
X119235160Y-82206110D01*
X119251879Y-82225405D01*
X119381890Y-82411078D01*
X119548917Y-82578105D01*
X119742421Y-82713600D01*
X119956507Y-82813429D01*
X119956516Y-82813433D01*
X120170000Y-82870634D01*
X120170000Y-82152301D01*
X120189685Y-82085262D01*
X120242489Y-82039507D01*
X120311647Y-82029563D01*
X120384237Y-82040000D01*
X120384238Y-82040000D01*
X120455762Y-82040000D01*
X120455763Y-82040000D01*
X120528353Y-82029563D01*
X120597512Y-82039507D01*
X120650315Y-82085262D01*
X120670000Y-82152301D01*
X120670000Y-82870633D01*
X120883483Y-82813433D01*
X120883492Y-82813429D01*
X121097578Y-82713600D01*
X121291078Y-82578108D01*
X121413133Y-82456053D01*
X121474456Y-82422568D01*
X121544148Y-82427552D01*
X121600082Y-82469423D01*
X121616997Y-82500401D01*
X121666202Y-82632328D01*
X121666206Y-82632335D01*
X121752452Y-82747544D01*
X121752455Y-82747547D01*
X121867664Y-82833793D01*
X121867671Y-82833797D01*
X122002517Y-82884091D01*
X122002516Y-82884091D01*
X122009444Y-82884835D01*
X122062127Y-82890500D01*
X123857872Y-82890499D01*
X123917483Y-82884091D01*
X124052331Y-82833796D01*
X124167546Y-82747546D01*
X124253796Y-82632331D01*
X124304091Y-82497483D01*
X124310500Y-82437873D01*
X124310499Y-80974499D01*
X124330184Y-80907461D01*
X124382987Y-80861706D01*
X124434499Y-80850500D01*
X126479192Y-80850500D01*
X126546231Y-80870185D01*
G37*
%TD.AperFunction*%
%TA.AperFunction,Conductor*%
G36*
X136904809Y-76370185D02*
G01*
X136925451Y-76386819D01*
X137884270Y-77345638D01*
X137896051Y-77359270D01*
X137910388Y-77378528D01*
X137910389Y-77378529D01*
X137910390Y-77378530D01*
X137916062Y-77383289D01*
X137950409Y-77412111D01*
X137954397Y-77415766D01*
X137960216Y-77421585D01*
X137960220Y-77421588D01*
X137960223Y-77421591D01*
X137985959Y-77441940D01*
X138044786Y-77491302D01*
X138044787Y-77491302D01*
X138044789Y-77491304D01*
X138050818Y-77495270D01*
X138050785Y-77495319D01*
X138057147Y-77499372D01*
X138057179Y-77499321D01*
X138063319Y-77503108D01*
X138063323Y-77503111D01*
X138098132Y-77519343D01*
X138132941Y-77535575D01*
X138183021Y-77560726D01*
X138201567Y-77570040D01*
X138201569Y-77570040D01*
X138208357Y-77572511D01*
X138208336Y-77572567D01*
X138215455Y-77575042D01*
X138215474Y-77574986D01*
X138222323Y-77577256D01*
X138222326Y-77577256D01*
X138222327Y-77577257D01*
X138297550Y-77592787D01*
X138297550Y-77592788D01*
X138372279Y-77610500D01*
X138379452Y-77611339D01*
X138379445Y-77611397D01*
X138386946Y-77612163D01*
X138386952Y-77612104D01*
X138394140Y-77612733D01*
X138394143Y-77612732D01*
X138394144Y-77612733D01*
X138470898Y-77610500D01*
X140432299Y-77610500D01*
X140499338Y-77630185D01*
X140533873Y-77663376D01*
X140581505Y-77731401D01*
X140703818Y-77853714D01*
X140737303Y-77915037D01*
X140732319Y-77984729D01*
X140690447Y-78040662D01*
X140659471Y-78057577D01*
X140527912Y-78106646D01*
X140527906Y-78106649D01*
X140412812Y-78192809D01*
X140412809Y-78192812D01*
X140326649Y-78307906D01*
X140326645Y-78307913D01*
X140276403Y-78442620D01*
X140276401Y-78442627D01*
X140270000Y-78502155D01*
X140270000Y-79150000D01*
X140996231Y-79150000D01*
X141063270Y-79169685D01*
X141109025Y-79222489D01*
X141118969Y-79291647D01*
X141115208Y-79308936D01*
X141110000Y-79326672D01*
X141110000Y-79473327D01*
X141115208Y-79491064D01*
X141115208Y-79560934D01*
X141077434Y-79619712D01*
X141013879Y-79648738D01*
X140996231Y-79650000D01*
X140270000Y-79650000D01*
X140270000Y-80297844D01*
X140276401Y-80357372D01*
X140276403Y-80357379D01*
X140326645Y-80492086D01*
X140326649Y-80492093D01*
X140412809Y-80607187D01*
X140412812Y-80607190D01*
X140527906Y-80693350D01*
X140527913Y-80693354D01*
X140659470Y-80742421D01*
X140715403Y-80784292D01*
X140739821Y-80849756D01*
X140724970Y-80918029D01*
X140703819Y-80946284D01*
X140581503Y-81068600D01*
X140445965Y-81262169D01*
X140445964Y-81262171D01*
X140346098Y-81476335D01*
X140346094Y-81476344D01*
X140284938Y-81704586D01*
X140284936Y-81704596D01*
X140264341Y-81939999D01*
X140264341Y-81940000D01*
X140284936Y-82175403D01*
X140284938Y-82175413D01*
X140346094Y-82403655D01*
X140346096Y-82403659D01*
X140346097Y-82403663D01*
X140397602Y-82514116D01*
X140445965Y-82617830D01*
X140445967Y-82617834D01*
X140581501Y-82811395D01*
X140581506Y-82811402D01*
X140748597Y-82978493D01*
X140748603Y-82978498D01*
X140934158Y-83108425D01*
X140977783Y-83163002D01*
X140984977Y-83232500D01*
X140953454Y-83294855D01*
X140934158Y-83311575D01*
X140748597Y-83441505D01*
X140581506Y-83608596D01*
X140463854Y-83776623D01*
X140409277Y-83820248D01*
X140362279Y-83829500D01*
X131400808Y-83829500D01*
X131333769Y-83809815D01*
X131313127Y-83793181D01*
X127320434Y-79800488D01*
X127310361Y-79787914D01*
X127310174Y-79788070D01*
X127305201Y-79782059D01*
X127252756Y-79732810D01*
X127231035Y-79711089D01*
X127225240Y-79706594D01*
X127220798Y-79702799D01*
X127185396Y-79669554D01*
X127185388Y-79669548D01*
X127166792Y-79659325D01*
X127150531Y-79648644D01*
X127133763Y-79635637D01*
X127110295Y-79625482D01*
X127089178Y-79616343D01*
X127083956Y-79613786D01*
X127041368Y-79590373D01*
X127041365Y-79590372D01*
X127020801Y-79585092D01*
X127002396Y-79578790D01*
X126982927Y-79570365D01*
X126982921Y-79570363D01*
X126934951Y-79562766D01*
X126929236Y-79561582D01*
X126912772Y-79557355D01*
X126882180Y-79549500D01*
X126882177Y-79549500D01*
X126860955Y-79549500D01*
X126841555Y-79547973D01*
X126839421Y-79547635D01*
X126833474Y-79546693D01*
X126820596Y-79544653D01*
X126820595Y-79544653D01*
X126799015Y-79546693D01*
X126772230Y-79549225D01*
X126766392Y-79549500D01*
X124372503Y-79549500D01*
X124305464Y-79529815D01*
X124259709Y-79477011D01*
X124249765Y-79407853D01*
X124252728Y-79393407D01*
X124263793Y-79352111D01*
X124295063Y-79235408D01*
X124315659Y-79000000D01*
X124295063Y-78764592D01*
X124233903Y-78536337D01*
X124134035Y-78322171D01*
X124133582Y-78321523D01*
X123998494Y-78128597D01*
X123831402Y-77961506D01*
X123831395Y-77961501D01*
X123637834Y-77825967D01*
X123637830Y-77825965D01*
X123529035Y-77775233D01*
X123423663Y-77726097D01*
X123423659Y-77726096D01*
X123423655Y-77726094D01*
X123195413Y-77664938D01*
X123195403Y-77664936D01*
X122960001Y-77644341D01*
X122959999Y-77644341D01*
X122724596Y-77664936D01*
X122724586Y-77664938D01*
X122496344Y-77726094D01*
X122496337Y-77726096D01*
X122496337Y-77726097D01*
X122484973Y-77731396D01*
X122282171Y-77825964D01*
X122282169Y-77825965D01*
X122088597Y-77961505D01*
X121921508Y-78128594D01*
X121791269Y-78314595D01*
X121736692Y-78358219D01*
X121667193Y-78365412D01*
X121604839Y-78333890D01*
X121588119Y-78314594D01*
X121458113Y-78128926D01*
X121458108Y-78128920D01*
X121291082Y-77961894D01*
X121097578Y-77826399D01*
X120883492Y-77726570D01*
X120883486Y-77726567D01*
X120670000Y-77669364D01*
X120670000Y-78387698D01*
X120650315Y-78454737D01*
X120597511Y-78500492D01*
X120528355Y-78510436D01*
X120455766Y-78500000D01*
X120455763Y-78500000D01*
X120384237Y-78500000D01*
X120384233Y-78500000D01*
X120311645Y-78510436D01*
X120242487Y-78500492D01*
X120189684Y-78454736D01*
X120170000Y-78387698D01*
X120170000Y-77669364D01*
X120169999Y-77669364D01*
X119956513Y-77726567D01*
X119956507Y-77726570D01*
X119742422Y-77826399D01*
X119742420Y-77826400D01*
X119548926Y-77961886D01*
X119548920Y-77961891D01*
X119381891Y-78128920D01*
X119381890Y-78128922D01*
X119251880Y-78314595D01*
X119197303Y-78358219D01*
X119127804Y-78365412D01*
X119065450Y-78333890D01*
X119048730Y-78314594D01*
X118918494Y-78128597D01*
X118751402Y-77961506D01*
X118751395Y-77961501D01*
X118557834Y-77825967D01*
X118557830Y-77825965D01*
X118449035Y-77775233D01*
X118343663Y-77726097D01*
X118343659Y-77726096D01*
X118343655Y-77726094D01*
X118115413Y-77664938D01*
X118115403Y-77664936D01*
X117880001Y-77644341D01*
X117879999Y-77644341D01*
X117644596Y-77664936D01*
X117644586Y-77664938D01*
X117416344Y-77726094D01*
X117416337Y-77726096D01*
X117416337Y-77726097D01*
X117404973Y-77731396D01*
X117202171Y-77825964D01*
X117202169Y-77825965D01*
X117008597Y-77961505D01*
X116841508Y-78128594D01*
X116711574Y-78314159D01*
X116656997Y-78357784D01*
X116587498Y-78364976D01*
X116525144Y-78333454D01*
X116508424Y-78314158D01*
X116504046Y-78307906D01*
X116426126Y-78196623D01*
X116378494Y-78128597D01*
X116211402Y-77961506D01*
X116211395Y-77961501D01*
X116017834Y-77825967D01*
X116017830Y-77825965D01*
X115909035Y-77775233D01*
X115803663Y-77726097D01*
X115803659Y-77726096D01*
X115803655Y-77726094D01*
X115575413Y-77664938D01*
X115575403Y-77664936D01*
X115340001Y-77644341D01*
X115339999Y-77644341D01*
X115104596Y-77664936D01*
X115104586Y-77664938D01*
X114876344Y-77726094D01*
X114876337Y-77726096D01*
X114876337Y-77726097D01*
X114864973Y-77731396D01*
X114662171Y-77825964D01*
X114662169Y-77825965D01*
X114468597Y-77961505D01*
X114301505Y-78128597D01*
X114171575Y-78314158D01*
X114116998Y-78357783D01*
X114047500Y-78364977D01*
X113985145Y-78333454D01*
X113968425Y-78314158D01*
X113838494Y-78128597D01*
X113671402Y-77961506D01*
X113671395Y-77961501D01*
X113477834Y-77825967D01*
X113477830Y-77825965D01*
X113369035Y-77775233D01*
X113263663Y-77726097D01*
X113263659Y-77726096D01*
X113263655Y-77726094D01*
X113035413Y-77664938D01*
X113035403Y-77664936D01*
X112800001Y-77644341D01*
X112799999Y-77644341D01*
X112564596Y-77664936D01*
X112564586Y-77664938D01*
X112336344Y-77726094D01*
X112336337Y-77726096D01*
X112336337Y-77726097D01*
X112324973Y-77731396D01*
X112122171Y-77825964D01*
X112122169Y-77825965D01*
X111928597Y-77961505D01*
X111761505Y-78128597D01*
X111631575Y-78314158D01*
X111576998Y-78357783D01*
X111507500Y-78364977D01*
X111445145Y-78333454D01*
X111428425Y-78314158D01*
X111298494Y-78128597D01*
X111131404Y-77961507D01*
X111063375Y-77913872D01*
X111019751Y-77859294D01*
X111010500Y-77812298D01*
X111010500Y-77623640D01*
X111010605Y-77620034D01*
X111011064Y-77612163D01*
X111014331Y-77556065D01*
X111005836Y-77507893D01*
X111003202Y-77492954D01*
X111002679Y-77489384D01*
X110997343Y-77443734D01*
X110995241Y-77425745D01*
X110991408Y-77415215D01*
X110985811Y-77394330D01*
X110983865Y-77383289D01*
X110958484Y-77324448D01*
X110957152Y-77321095D01*
X110952626Y-77308661D01*
X110935237Y-77260883D01*
X110929072Y-77251510D01*
X110918818Y-77232491D01*
X110914379Y-77222200D01*
X110914373Y-77222190D01*
X110876115Y-77170802D01*
X110874046Y-77167847D01*
X110858681Y-77144486D01*
X110838830Y-77114304D01*
X110830672Y-77106607D01*
X110816304Y-77090462D01*
X110809609Y-77081469D01*
X110760524Y-77040282D01*
X110757830Y-77037884D01*
X110747714Y-77028340D01*
X110711218Y-76993908D01*
X110701503Y-76988299D01*
X110683804Y-76975906D01*
X110675214Y-76968698D01*
X110617941Y-76939934D01*
X110614766Y-76938222D01*
X110592996Y-76925653D01*
X110567315Y-76905947D01*
X110223549Y-76562181D01*
X110190064Y-76500858D01*
X110195048Y-76431166D01*
X110236920Y-76375233D01*
X110302384Y-76350816D01*
X110311230Y-76350500D01*
X136837770Y-76350500D01*
X136904809Y-76370185D01*
G37*
%TD.AperFunction*%
%TD*%
M02*
