M48
; DRILL file {KiCad 7.0.7} date Tue Oct 10 10:53:34 2023
; FORMAT={-:-/ absolute / metric / decimal}
; #@! TF.CreationDate,2023-10-10T10:53:34+02:00
; #@! TF.GenerationSoftware,Kicad,Pcbnew,7.0.7
; #@! TF.FileFunction,Plated,1,2,PTH
FMAT,2
METRIC
; #@! TA.AperFunction,Plated,PTH,ViaDrill
T1C0.300
; #@! TA.AperFunction,Plated,PTH,ComponentDrill
T2C1.000
; #@! TA.AperFunction,Plated,PTH,ComponentDrill
T3C1.020
; #@! TA.AperFunction,Plated,PTH,ComponentDrill
T4C3.300
%
G90
G05
T1
X89.0Y-66.2
X110.0Y-68.2
X115.0Y-87.4
X124.8Y-89.2
X147.2Y-120.6
X157.0Y-118.6
X183.2Y-85.8
X183.2Y-98.4
X183.725Y-76.075
X193.4Y-103.8
X193.4Y-115.2
T2
X84.4Y-75.52
X84.4Y-78.06
X84.4Y-80.6
X84.4Y-83.14
X85.2Y-106.4
X85.2Y-108.94
X85.2Y-111.48
X85.2Y-114.02
X85.2Y-116.56
X85.2Y-119.1
X85.2Y-121.64
X85.2Y-124.18
X85.2Y-126.72
X85.2Y-129.26
X97.92Y-62.0
X100.46Y-62.0
X103.0Y-62.0
X107.72Y-79.0
X107.72Y-81.54
X110.26Y-79.0
X110.26Y-81.54
X112.8Y-79.0
X112.8Y-81.54
X115.34Y-79.0
X115.34Y-81.54
X117.88Y-79.0
X117.88Y-81.54
X120.42Y-79.0
X120.42Y-81.54
X122.96Y-79.0
X122.96Y-81.54
X151.513Y-135.8
X154.053Y-135.8
X179.725Y-62.2
X182.265Y-62.2
X184.805Y-62.2
X196.6Y-72.347
X196.6Y-74.888
X196.6Y-81.127
X196.6Y-83.667
X196.6Y-92.86
X196.6Y-95.4
X196.6Y-107.66
X196.6Y-110.2
X197.0Y-119.26
X197.0Y-121.8
T3
X141.62Y-61.62
X141.62Y-64.16
X141.62Y-66.7
X141.62Y-69.24
X141.62Y-71.78
X141.62Y-74.32
X141.62Y-76.86
X141.62Y-79.4
X141.62Y-81.94
X141.62Y-84.48
X141.62Y-87.02
X141.62Y-89.56
X141.62Y-92.1
X141.62Y-94.64
X141.62Y-97.18
X141.62Y-99.72
X141.62Y-102.26
X141.62Y-104.8
X141.62Y-107.34
X141.62Y-109.88
X147.97Y-109.65
X150.51Y-109.65
X153.05Y-109.65
X159.4Y-61.62
X159.4Y-64.16
X159.4Y-66.7
X159.4Y-69.24
X159.4Y-71.78
X159.4Y-74.32
X159.4Y-76.86
X159.4Y-79.4
X159.4Y-81.94
X159.4Y-84.48
X159.4Y-87.02
X159.4Y-89.56
X159.4Y-92.1
X159.4Y-94.64
X159.4Y-97.18
X159.4Y-99.72
X159.4Y-102.26
X159.4Y-104.8
X159.4Y-107.34
X159.4Y-109.88
T4
X84.4Y-62.4
X84.4Y-136.2
X198.4Y-62.4
X198.4Y-136.2
T0
M30
