%TF.GenerationSoftware,KiCad,Pcbnew,7.0.7*%
%TF.CreationDate,2023-10-10T10:51:27+02:00*%
%TF.ProjectId,RB2AMPController,52423241-4d50-4436-9f6e-74726f6c6c65,rev?*%
%TF.SameCoordinates,Original*%
%TF.FileFunction,Paste,Top*%
%TF.FilePolarity,Positive*%
%FSLAX46Y46*%
G04 Gerber Fmt 4.6, Leading zero omitted, Abs format (unit mm)*
G04 Created by KiCad (PCBNEW 7.0.7) date 2023-10-10 10:51:27*
%MOMM*%
%LPD*%
G01*
G04 APERTURE LIST*
G04 Aperture macros list*
%AMRoundRect*
0 Rectangle with rounded corners*
0 $1 Rounding radius*
0 $2 $3 $4 $5 $6 $7 $8 $9 X,Y pos of 4 corners*
0 Add a 4 corners polygon primitive as box body*
4,1,4,$2,$3,$4,$5,$6,$7,$8,$9,$2,$3,0*
0 Add four circle primitives for the rounded corners*
1,1,$1+$1,$2,$3*
1,1,$1+$1,$4,$5*
1,1,$1+$1,$6,$7*
1,1,$1+$1,$8,$9*
0 Add four rect primitives between the rounded corners*
20,1,$1+$1,$2,$3,$4,$5,0*
20,1,$1+$1,$4,$5,$6,$7,0*
20,1,$1+$1,$6,$7,$8,$9,0*
20,1,$1+$1,$8,$9,$2,$3,0*%
G04 Aperture macros list end*
%ADD10R,0.889000X1.397000*%
%ADD11RoundRect,0.243750X-0.456250X0.243750X-0.456250X-0.243750X0.456250X-0.243750X0.456250X0.243750X0*%
%ADD12R,1.397000X0.889000*%
%ADD13R,0.900000X0.800000*%
%ADD14R,1.500000X2.000000*%
%ADD15R,3.800000X2.000000*%
%ADD16RoundRect,0.150000X0.825000X0.150000X-0.825000X0.150000X-0.825000X-0.150000X0.825000X-0.150000X0*%
%ADD17RoundRect,0.150000X-0.150000X0.850000X-0.150000X-0.850000X0.150000X-0.850000X0.150000X0.850000X0*%
%ADD18R,0.600000X1.250000*%
%ADD19R,0.800000X0.900000*%
%ADD20RoundRect,0.243750X0.243750X0.456250X-0.243750X0.456250X-0.243750X-0.456250X0.243750X-0.456250X0*%
%ADD21R,1.500000X3.000000*%
G04 APERTURE END LIST*
D10*
%TO.C,C108*%
X143782563Y-129600062D03*
X141877563Y-129600062D03*
%TD*%
%TO.C,R202*%
X192200000Y-112060000D03*
X190295000Y-112060000D03*
%TD*%
D11*
%TO.C,D201*%
X188200000Y-95042500D03*
X188200000Y-96917500D03*
%TD*%
D10*
%TO.C,C203*%
X192402500Y-91230000D03*
X190497500Y-91230000D03*
%TD*%
%TO.C,R217*%
X94705000Y-85824000D03*
X92800000Y-85824000D03*
%TD*%
D12*
%TO.C,C107*%
X149477563Y-126295062D03*
X149477563Y-128200062D03*
%TD*%
D10*
%TO.C,R207*%
X192152500Y-98980000D03*
X190247500Y-98980000D03*
%TD*%
D13*
%TO.C,Q201*%
X190200000Y-107910000D03*
X190200000Y-109810000D03*
X192200000Y-108860000D03*
%TD*%
D10*
%TO.C,R214*%
X189897500Y-73637500D03*
X191802500Y-73637500D03*
%TD*%
D11*
%TO.C,D205*%
X187600000Y-74200000D03*
X187600000Y-76075000D03*
%TD*%
D10*
%TO.C,C202*%
X180505000Y-65600000D03*
X178600000Y-65600000D03*
%TD*%
D12*
%TO.C,J207*%
X92050000Y-68250000D03*
X92050000Y-66345000D03*
%TD*%
D10*
%TO.C,C204*%
X189152500Y-78000000D03*
X187247500Y-78000000D03*
%TD*%
%TO.C,R208*%
X192105000Y-80687500D03*
X190200000Y-80687500D03*
%TD*%
D14*
%TO.C,IC102*%
X158977501Y-126950124D03*
X161277501Y-126950124D03*
X163577500Y-126950124D03*
D15*
X161277501Y-120650125D03*
%TD*%
D10*
%TO.C,R218*%
X94705000Y-83200000D03*
X92800000Y-83200000D03*
%TD*%
D12*
%TO.C,R210*%
X106600000Y-68200000D03*
X106600000Y-66295000D03*
%TD*%
D10*
%TO.C,C205*%
X95395000Y-74297500D03*
X97300000Y-74297500D03*
%TD*%
D12*
%TO.C,C101*%
X155000000Y-123200000D03*
X155000000Y-125105000D03*
%TD*%
D14*
%TO.C,IC101*%
X140977501Y-126950124D03*
X143277501Y-126950124D03*
X145577500Y-126950124D03*
D15*
X143277501Y-120650125D03*
%TD*%
D10*
%TO.C,R213*%
X191802500Y-71637500D03*
X189897500Y-71637500D03*
%TD*%
D12*
%TO.C,R215*%
X90800000Y-76705000D03*
X90800000Y-74800000D03*
%TD*%
D16*
%TO.C,U201*%
X95400000Y-119940000D03*
X95400000Y-118670000D03*
X95400000Y-117400000D03*
X95400000Y-116130000D03*
X95400000Y-114860000D03*
X95400000Y-113590000D03*
X95400000Y-112320000D03*
X95400000Y-111050000D03*
X90450000Y-111050000D03*
X90450000Y-112320000D03*
X90450000Y-113590000D03*
X90450000Y-114860000D03*
X90450000Y-116130000D03*
X90450000Y-117400000D03*
X90450000Y-118670000D03*
X90450000Y-119940000D03*
%TD*%
D10*
%TO.C,R209*%
X190247500Y-82687500D03*
X192152500Y-82687500D03*
%TD*%
D12*
%TO.C,C104*%
X137782563Y-122047562D03*
X137782563Y-123952562D03*
%TD*%
D10*
%TO.C,R203*%
X190705000Y-117070000D03*
X192610000Y-117070000D03*
%TD*%
D17*
%TO.C,U202*%
X97447500Y-89374000D03*
X96177500Y-89374000D03*
X94907500Y-89374000D03*
X93637500Y-89374000D03*
X92367500Y-89374000D03*
X91097500Y-89374000D03*
X89827500Y-89374000D03*
X88557500Y-89374000D03*
X87287500Y-89374000D03*
X86017500Y-89374000D03*
X86017500Y-98624000D03*
X87287500Y-98624000D03*
X88557500Y-98624000D03*
X89827500Y-98624000D03*
X91097500Y-98624000D03*
X92367500Y-98624000D03*
X93637500Y-98624000D03*
X94907500Y-98624000D03*
X96177500Y-98624000D03*
X97447500Y-98624000D03*
%TD*%
D10*
%TO.C,R101*%
X158782563Y-132400062D03*
X160687563Y-132400062D03*
%TD*%
%TO.C,R211*%
X104705000Y-70797500D03*
X102800000Y-70797500D03*
%TD*%
%TO.C,R205*%
X192152500Y-96730000D03*
X190247500Y-96730000D03*
%TD*%
%TO.C,R201*%
X190247500Y-105660000D03*
X192152500Y-105660000D03*
%TD*%
%TO.C,J208*%
X99955000Y-66547500D03*
X98050000Y-66547500D03*
%TD*%
D13*
%TO.C,Q202*%
X190655000Y-119520000D03*
X190655000Y-121420000D03*
X192655000Y-120470000D03*
%TD*%
D18*
%TO.C,IC301*%
X165250000Y-74300000D03*
X167150000Y-74300000D03*
X166200000Y-72200000D03*
%TD*%
D12*
%TO.C,C103*%
X135782563Y-122095062D03*
X135782563Y-124000062D03*
%TD*%
D11*
%TO.C,D203*%
X188200000Y-83000000D03*
X188200000Y-84875000D03*
%TD*%
D12*
%TO.C,C102*%
X156877563Y-123200062D03*
X156877563Y-125105062D03*
%TD*%
%TO.C,C105*%
X166477563Y-125210062D03*
X166477563Y-123305062D03*
%TD*%
%TO.C,R216*%
X88200000Y-76705000D03*
X88200000Y-74800000D03*
%TD*%
D10*
%TO.C,C201*%
X91495000Y-108400000D03*
X93400000Y-108400000D03*
%TD*%
D12*
%TO.C,C106*%
X169057500Y-125152562D03*
X169057500Y-123247562D03*
%TD*%
D10*
%TO.C,R204*%
X192655000Y-123670000D03*
X190750000Y-123670000D03*
%TD*%
D13*
%TO.C,Q204*%
X95300000Y-70347500D03*
X95300000Y-72247500D03*
X97300000Y-71297500D03*
%TD*%
D19*
%TO.C,Q203*%
X102600000Y-68297500D03*
X104500000Y-68297500D03*
X103550000Y-66297500D03*
%TD*%
D20*
%TO.C,D206*%
X191787500Y-75887500D03*
X189912500Y-75887500D03*
%TD*%
D21*
%TO.C,D207*%
X164800000Y-136600000D03*
X162300000Y-136600000D03*
%TD*%
D20*
%TO.C,D204*%
X192075000Y-84687500D03*
X190200000Y-84687500D03*
%TD*%
D11*
%TO.C,D202*%
X188200000Y-91230000D03*
X188200000Y-93105000D03*
%TD*%
D10*
%TO.C,R206*%
X192402500Y-93480000D03*
X190497500Y-93480000D03*
%TD*%
D12*
%TO.C,J211*%
X95300000Y-66392500D03*
X95300000Y-68297500D03*
%TD*%
%TO.C,R212*%
X92050000Y-72297500D03*
X92050000Y-70392500D03*
%TD*%
M02*
