%TF.GenerationSoftware,KiCad,Pcbnew,7.0.7*%
%TF.CreationDate,2023-10-10T10:51:27+02:00*%
%TF.ProjectId,RB2AMPController,52423241-4d50-4436-9f6e-74726f6c6c65,rev?*%
%TF.SameCoordinates,Original*%
%TF.FileFunction,Soldermask,Bot*%
%TF.FilePolarity,Negative*%
%FSLAX46Y46*%
G04 Gerber Fmt 4.6, Leading zero omitted, Abs format (unit mm)*
G04 Created by KiCad (PCBNEW 7.0.7) date 2023-10-10 10:51:27*
%MOMM*%
%LPD*%
G01*
G04 APERTURE LIST*
%ADD10R,1.700000X1.700000*%
%ADD11O,1.700000X1.700000*%
%ADD12C,5.300000*%
%ADD13R,1.850000X1.850000*%
%ADD14C,1.850000*%
%ADD15O,1.800000X1.800000*%
%ADD16O,1.500000X1.500000*%
G04 APERTURE END LIST*
D10*
%TO.C,J201*%
X85200000Y-129260000D03*
D11*
X85200000Y-126720000D03*
X85200000Y-124180000D03*
X85200000Y-121640000D03*
X85200000Y-119100000D03*
X85200000Y-116560000D03*
X85200000Y-114020000D03*
X85200000Y-111480000D03*
X85200000Y-108940000D03*
X85200000Y-106400000D03*
%TD*%
D12*
%TO.C,MH1*%
X84400000Y-62400000D03*
%TD*%
D10*
%TO.C,J203*%
X184805000Y-62200000D03*
D11*
X182265000Y-62200000D03*
X179725000Y-62200000D03*
%TD*%
D13*
%TO.C,J209*%
X196600000Y-83667500D03*
D14*
X196600000Y-81127500D03*
%TD*%
D12*
%TO.C,MH3*%
X84400000Y-136200000D03*
%TD*%
%TO.C,MH4*%
X198400000Y-136200000D03*
%TD*%
D13*
%TO.C,J101*%
X151512563Y-135800062D03*
D14*
X154052563Y-135800062D03*
%TD*%
D12*
%TO.C,MH2*%
X198400000Y-62400000D03*
%TD*%
D13*
%TO.C,J205*%
X197000000Y-121800000D03*
D14*
X197000000Y-119260000D03*
%TD*%
D15*
%TO.C,U301*%
X147785000Y-61750000D03*
D16*
X148085000Y-64780000D03*
X152935000Y-64780000D03*
D15*
X153235000Y-61750000D03*
D11*
X141620000Y-61620000D03*
X141620000Y-64160000D03*
D10*
X141620000Y-66700000D03*
D11*
X141620000Y-69240000D03*
X141620000Y-71780000D03*
X141620000Y-74320000D03*
X141620000Y-76860000D03*
D10*
X141620000Y-79400000D03*
D11*
X141620000Y-81940000D03*
X141620000Y-84480000D03*
X141620000Y-87020000D03*
X141620000Y-89560000D03*
D10*
X141620000Y-92100000D03*
D11*
X141620000Y-94640000D03*
X141620000Y-97180000D03*
X141620000Y-99720000D03*
X141620000Y-102260000D03*
D10*
X141620000Y-104800000D03*
D11*
X141620000Y-107340000D03*
X141620000Y-109880000D03*
X159400000Y-109880000D03*
X159400000Y-107340000D03*
D10*
X159400000Y-104800000D03*
D11*
X159400000Y-102260000D03*
X159400000Y-99720000D03*
X159400000Y-97180000D03*
X159400000Y-94640000D03*
D10*
X159400000Y-92100000D03*
D11*
X159400000Y-89560000D03*
X159400000Y-87020000D03*
X159400000Y-84480000D03*
X159400000Y-81940000D03*
D10*
X159400000Y-79400000D03*
D11*
X159400000Y-76860000D03*
X159400000Y-74320000D03*
X159400000Y-71780000D03*
X159400000Y-69240000D03*
D10*
X159400000Y-66700000D03*
D11*
X159400000Y-64160000D03*
X159400000Y-61620000D03*
X147970000Y-109650000D03*
D10*
X150510000Y-109650000D03*
D11*
X153050000Y-109650000D03*
%TD*%
D10*
%TO.C,J301*%
X122960000Y-81540000D03*
D11*
X122960000Y-79000000D03*
X120420000Y-81540000D03*
X120420000Y-79000000D03*
X117880000Y-81540000D03*
X117880000Y-79000000D03*
X115340000Y-81540000D03*
X115340000Y-79000000D03*
X112800000Y-81540000D03*
X112800000Y-79000000D03*
X110260000Y-81540000D03*
X110260000Y-79000000D03*
X107720000Y-81540000D03*
X107720000Y-79000000D03*
%TD*%
D13*
%TO.C,J206*%
X196600000Y-95400000D03*
D14*
X196600000Y-92860000D03*
%TD*%
D10*
%TO.C,J212*%
X196600000Y-74887500D03*
D11*
X196600000Y-72347500D03*
%TD*%
D13*
%TO.C,J204*%
X84400000Y-83140000D03*
D14*
X84400000Y-80600000D03*
X84400000Y-78060000D03*
X84400000Y-75520000D03*
%TD*%
D13*
%TO.C,J202*%
X196600000Y-110200000D03*
D14*
X196600000Y-107660000D03*
%TD*%
D10*
%TO.C,J210*%
X103000000Y-62000000D03*
D11*
X100460000Y-62000000D03*
X97920000Y-62000000D03*
%TD*%
M02*
